<svg width="123" height="41" viewBox="0 0 123 41" fill="none" xmlns="http://www.w3.org/2000/svg">
<rect x="1.4125" y="0.50625" width="120.488" height="39.4875" rx="6.58125" fill="black"/>
<rect x="1.4125" y="0.50625" width="120.488" height="39.4875" rx="6.58125" stroke="#A6A6A6" stroke-width="1.0125"/>
<path d="M83.451 19.4448V21.7644H81.997V23.2856H83.451V28.4544C83.451 30.2194 84.2494 30.9254 86.2581 30.9254C86.6111 30.9254 86.9473 30.8834 87.2415 30.8329V29.3285C86.9893 29.3537 86.8296 29.3705 86.5523 29.3705C85.653 29.3705 85.258 28.9503 85.258 27.9922V23.2856H87.2415V21.7644H85.258V19.4448H83.451Z" fill="white"/>
<path d="M92.3585 31.0514C95.0311 31.0514 96.67 29.2613 96.67 26.2945C96.67 23.3445 95.0227 21.5459 92.3585 21.5459C89.6858 21.5459 88.0385 23.3445 88.0385 26.2945C88.0385 29.2613 89.6774 31.0514 92.3585 31.0514ZM92.3585 29.4462C90.7868 29.4462 89.9044 28.2948 89.9044 26.2945C89.9044 24.311 90.7868 23.1512 92.3585 23.1512C93.9217 23.1512 94.8126 24.311 94.8126 26.2945C94.8126 28.2863 93.9217 29.4462 92.3585 29.4462Z" fill="white"/>
<path d="M98.0722 30.8749H99.8792V25.4708C99.8792 24.1849 100.846 23.3193 102.216 23.3193C102.535 23.3193 103.073 23.3781 103.224 23.4285V21.6468C103.031 21.5963 102.686 21.5711 102.417 21.5711C101.224 21.5711 100.207 22.2267 99.9464 23.126H99.812V21.7224H98.0722V30.8749Z" fill="white"/>
<path d="M107.711 23.0839C109.047 23.0839 109.921 24.0168 109.963 25.454H105.341C105.442 24.0252 106.375 23.0839 107.711 23.0839ZM109.955 28.404C109.619 29.1184 108.871 29.5134 107.778 29.5134C106.333 29.5134 105.4 28.4965 105.341 26.8912V26.7903H111.804V26.16C111.804 23.2856 110.266 21.5459 107.719 21.5459C105.139 21.5459 103.5 23.4033 103.5 26.3281C103.5 29.2529 105.105 31.0514 107.728 31.0514C109.82 31.0514 111.283 30.0429 111.695 28.404H109.955Z" fill="white"/>
<path d="M71.6011 27.4951C71.7405 29.7425 73.6134 31.1798 76.4009 31.1798C79.3801 31.1798 81.2443 29.6728 81.2443 27.2686C81.2443 25.3783 80.1815 24.3329 77.6031 23.7319L76.218 23.3921C74.5803 23.0089 73.9183 22.4949 73.9183 21.5977C73.9183 20.4652 74.9462 19.7248 76.488 19.7248C77.9515 19.7248 78.962 20.4478 79.1449 21.6064H81.0439C80.9307 19.4896 79.0665 18 76.5142 18C73.7702 18 71.9409 19.4896 71.9409 21.7283C71.9409 23.5751 72.9775 24.6727 75.2511 25.204L76.8713 25.596C78.5351 25.988 79.2669 26.563 79.2669 27.5212C79.2669 28.6362 78.117 29.4463 76.549 29.4463C74.8678 29.4463 73.7005 28.6885 73.535 27.4951H71.6011Z" fill="white"/>
<path d="M52.8827 21.5711C51.6388 21.5711 50.5631 22.1931 50.0084 23.2352H49.8739V21.7224H48.1341V33.9174H49.9411V29.4882H50.084C50.5631 30.4547 51.5968 31.0262 52.8995 31.0262C55.2108 31.0262 56.6816 29.2024 56.6816 26.2945C56.6816 23.3865 55.2108 21.5711 52.8827 21.5711ZM52.37 29.4042C50.8572 29.4042 49.9075 28.2107 49.9075 26.3029C49.9075 24.3866 50.8572 23.1932 52.3784 23.1932C53.9081 23.1932 54.8242 24.3614 54.8242 26.2945C54.8242 28.2359 53.9081 29.4042 52.37 29.4042Z" fill="white"/>
<path d="M63.0045 21.5711C61.7606 21.5711 60.6848 22.1931 60.1301 23.2352H59.9956V21.7224H58.2559V33.9174H60.0629V29.4882H60.2058C60.6848 30.4547 61.7186 31.0262 63.0213 31.0262C65.3325 31.0262 66.8033 29.2024 66.8033 26.2945C66.8033 23.3865 65.3325 21.5711 63.0045 21.5711ZM62.4918 29.4042C60.979 29.4042 60.0293 28.2107 60.0293 26.3029C60.0293 24.3866 60.979 23.1932 62.5002 23.1932C64.0298 23.1932 64.9459 24.3614 64.9459 26.2945C64.9459 28.2359 64.0298 29.4042 62.4918 29.4042Z" fill="white"/>
<path d="M44.8921 30.8749H46.9654L42.4269 18.3049H40.3275L35.7891 30.8749H37.7926L38.9512 27.5386H43.7423L44.8921 30.8749ZM41.277 20.5872H41.4251L43.2457 25.9009H39.4477L41.277 20.5872Z" fill="white"/>
<path d="M37 8.8218V14.8857H39.1894C40.9964 14.8857 42.0427 13.7721 42.0427 11.8348C42.0427 9.927 40.988 8.8218 39.1894 8.8218H37ZM37.9413 9.67906H39.0843C40.3408 9.67906 41.0846 10.4775 41.0846 11.8474C41.0846 13.2384 40.3534 14.0284 39.0843 14.0284H37.9413V9.67906Z" fill="white"/>
<path d="M45.2474 14.9739C46.5837 14.9739 47.4031 14.0788 47.4031 12.5954C47.4031 11.1204 46.5795 10.2212 45.2474 10.2212C43.9111 10.2212 43.0874 11.1204 43.0874 12.5954C43.0874 14.0788 43.9069 14.9739 45.2474 14.9739ZM45.2474 14.1713C44.4616 14.1713 44.0203 13.5956 44.0203 12.5954C44.0203 11.6037 44.4616 11.0238 45.2474 11.0238C46.029 11.0238 46.4744 11.6037 46.4744 12.5954C46.4744 13.5914 46.029 14.1713 45.2474 14.1713Z" fill="white"/>
<path d="M54.3814 10.3094H53.4779L52.6627 13.8015H52.5913L51.65 10.3094H50.7843L49.843 13.8015H49.7757L48.9563 10.3094H48.0402L49.3009 14.8857H50.2296L51.1709 11.5155H51.2423L52.1878 14.8857H53.125L54.3814 10.3094Z" fill="white"/>
<path d="M55.4219 14.8857H56.3254V12.2088C56.3254 11.4944 56.7498 11.049 57.418 11.049C58.0862 11.049 58.4055 11.4146 58.4055 12.15V14.8857H59.309V11.9231C59.309 10.8347 58.7459 10.2212 57.7248 10.2212C57.0356 10.2212 56.5817 10.5279 56.359 11.0364H56.2918V10.3094H55.4219V14.8857Z" fill="white"/>
<path d="M60.7319 14.8857H61.6354V8.52344H60.7319V14.8857Z" fill="white"/>
<path d="M65.0333 14.9739C66.3697 14.9739 67.1891 14.0788 67.1891 12.5954C67.1891 11.1204 66.3655 10.2212 65.0333 10.2212C63.697 10.2212 62.8734 11.1204 62.8734 12.5954C62.8734 14.0788 63.6928 14.9739 65.0333 14.9739ZM65.0333 14.1713C64.2475 14.1713 63.8063 13.5956 63.8063 12.5954C63.8063 11.6037 64.2475 11.0238 65.0333 11.0238C65.815 11.0238 66.2604 11.6037 66.2604 12.5954C66.2604 13.5914 65.815 14.1713 65.0333 14.1713Z" fill="white"/>
<path d="M69.8811 14.2007C69.3894 14.2007 69.0322 13.9612 69.0322 13.5494C69.0322 13.1459 69.318 12.9316 69.9483 12.8896L71.0661 12.8182V13.2006C71.0661 13.7679 70.5619 14.2007 69.8811 14.2007ZM69.65 14.9613C70.2509 14.9613 70.751 14.7008 71.0241 14.2427H71.0955V14.8857H71.9654V11.7592C71.9654 10.7927 71.3183 10.2212 70.171 10.2212C69.1331 10.2212 68.3935 10.7254 68.301 11.5113H69.1751C69.276 11.1877 69.6247 11.0028 70.129 11.0028C70.7468 11.0028 71.0661 11.2759 71.0661 11.7592V12.1542L69.8265 12.2256C68.7381 12.2929 68.1245 12.7677 68.1245 13.5914C68.1245 14.4276 68.7675 14.9613 69.65 14.9613Z" fill="white"/>
<path d="M75.0314 14.9613C75.6617 14.9613 76.1954 14.663 76.4686 14.1629H76.54V14.8857H77.4057V8.52344H76.5022V11.0364H76.4349C76.187 10.5321 75.6575 10.2338 75.0314 10.2338C73.8758 10.2338 73.132 11.1499 73.132 12.5954C73.132 14.0452 73.8674 14.9613 75.0314 14.9613ZM75.2877 11.0448C76.0441 11.0448 76.519 11.6457 76.519 12.5996C76.519 13.5578 76.0483 14.1503 75.2877 14.1503C74.5229 14.1503 74.0649 13.5662 74.0649 12.5954C74.0649 11.6331 74.5271 11.0448 75.2877 11.0448Z" fill="white"/>
<path d="M83.2645 14.9739C84.6008 14.9739 85.4202 14.0788 85.4202 12.5954C85.4202 11.1204 84.5966 10.2212 83.2645 10.2212C81.9282 10.2212 81.1045 11.1204 81.1045 12.5954C81.1045 14.0788 81.924 14.9739 83.2645 14.9739ZM83.2645 14.1713C82.4787 14.1713 82.0374 13.5956 82.0374 12.5954C82.0374 11.6037 82.4787 11.0238 83.2645 11.0238C84.0461 11.0238 84.4915 11.6037 84.4915 12.5954C84.4915 13.5914 84.0461 14.1713 83.2645 14.1713Z" fill="white"/>
<path d="M86.6162 14.8857H87.5197V12.2088C87.5197 11.4944 87.9441 11.049 88.6123 11.049C89.2804 11.049 89.5998 11.4146 89.5998 12.15V14.8857H90.5033V11.9231C90.5033 10.8347 89.9402 10.2212 88.9191 10.2212C88.2299 10.2212 87.776 10.5279 87.5533 11.0364H87.4861V10.3094H86.6162V14.8857Z" fill="white"/>
<path d="M94.6644 9.17059V10.3304H93.9374V11.091H94.6644V13.6754C94.6644 14.5579 95.0636 14.9109 96.068 14.9109C96.2444 14.9109 96.4125 14.8899 96.5596 14.8647V14.1125C96.4336 14.1251 96.3537 14.1335 96.215 14.1335C95.7654 14.1335 95.5679 13.9234 95.5679 13.4443V11.091H96.5596V10.3304H95.5679V9.17059H94.6644Z" fill="white"/>
<path d="M97.7724 14.8857H98.6759V12.213C98.6759 11.5197 99.0877 11.0532 99.8273 11.0532C100.466 11.0532 100.806 11.423 100.806 12.1542V14.8857H101.71V11.9315C101.71 10.8431 101.109 10.2254 100.134 10.2254C99.4449 10.2254 98.9616 10.5321 98.7389 11.0448H98.6675V8.52344H97.7724V14.8857Z" fill="white"/>
<path d="M104.969 10.9902C105.637 10.9902 106.074 11.4566 106.095 12.1752H103.784C103.835 11.4608 104.301 10.9902 104.969 10.9902ZM106.091 13.6502C105.923 14.0074 105.549 14.2049 105.003 14.2049C104.28 14.2049 103.814 13.6964 103.784 12.8938V12.8434H107.016V12.5282C107.016 11.091 106.247 10.2212 104.973 10.2212C103.683 10.2212 102.864 11.1499 102.864 12.6122C102.864 14.0746 103.666 14.9739 104.978 14.9739C106.024 14.9739 106.755 14.4697 106.961 13.6502H106.091Z" fill="white"/>
<path d="M25.9901 20.5611C26.012 18.859 26.9261 17.2486 28.3761 16.3571C27.4613 15.0506 25.9291 14.2223 24.3351 14.1724C22.6348 13.994 20.9865 15.1898 20.1201 15.1898C19.2369 15.1898 17.903 14.1902 16.4665 14.2197C14.5941 14.2802 12.8486 15.3447 11.9377 16.9817C9.97951 20.372 11.4401 25.3545 13.3159 28.095C14.2544 29.4369 15.3512 30.9358 16.7864 30.8827C18.1908 30.8244 18.7153 29.9871 20.4105 29.9871C22.09 29.9871 22.5821 30.8827 24.0464 30.8489C25.5534 30.8244 26.5029 29.501 27.4084 28.1464C28.0827 27.1902 28.6016 26.1334 28.9458 25.0152C27.1748 24.2662 25.9922 22.4839 25.9901 20.5611Z" fill="white"/>
<path d="M23.2243 12.3702C24.046 11.3838 24.4508 10.116 24.3527 8.83594C23.0974 8.96779 21.9378 9.56775 21.1051 10.5163C20.2907 11.4431 19.8669 12.6886 19.9471 13.9197C21.2028 13.9326 22.4374 13.3489 23.2243 12.3702Z" fill="white"/>
</svg>
