<svg width="24" height="24" viewBox="0 0 24 24" fill="none" xmlns="http://www.w3.org/2000/svg">
<g id="vuesax/linear/cake">
<g id="cake">
<path id="Vector" d="M2 22H22" stroke="#292D32" stroke-width="1.5" stroke-linecap="round" stroke-linejoin="round"/>
<path id="Vector_2" d="M3.10938 22V13C3.10938 11.34 4.59938 10 6.43938 10H17.5494C19.3894 10 20.8794 11.34 20.8794 13V22" stroke="#292D32" stroke-width="1.5" stroke-linecap="round" stroke-linejoin="round"/>
<path id="Vector_3" d="M5.55859 10V7.17C5.55859 5.97 6.63859 5 7.97859 5H16.0286C17.3586 5 18.4386 5.97 18.4386 7.17V10" stroke="#292D32" stroke-width="1.5" stroke-linecap="round" stroke-linejoin="round"/>
<path id="Vector_4" d="M3.53125 13.9805L3.90125 13.9905C4.64125 14.0005 5.23125 14.6005 5.23125 15.3405V15.6705C5.23125 16.4105 5.83125 17.0205 6.58125 17.0205C7.32125 17.0205 7.93125 16.4205 7.93125 15.6705V15.3605C7.93125 14.6205 8.53125 14.0105 9.28125 14.0105C10.0213 14.0105 10.6313 14.6105 10.6313 15.3605V15.6705C10.6313 16.4105 11.2312 17.0205 11.9812 17.0205C12.7212 17.0205 13.3313 16.4205 13.3313 15.6705V15.3605C13.3313 14.6205 13.9313 14.0105 14.6813 14.0105C15.4213 14.0105 16.0313 14.6105 16.0313 15.3605V15.6705C16.0313 16.4105 16.6312 17.0205 17.3812 17.0205C18.1212 17.0205 18.7312 16.4205 18.7312 15.6705V15.3605C18.7312 14.6205 19.3312 14.0105 20.0812 14.0105H20.5312" stroke="#292D32" stroke-width="1.5" stroke-linecap="round" stroke-linejoin="round"/>
<path id="Vector_5" d="M8 5V3" stroke="#292D32" stroke-width="1.5" stroke-linecap="round" stroke-linejoin="round"/>
<path id="Vector_6" d="M16 5V3" stroke="#292D32" stroke-width="1.5" stroke-linecap="round" stroke-linejoin="round"/>
<path id="Vector_7" d="M12 5V2" stroke="#292D32" stroke-width="1.5" stroke-linecap="round" stroke-linejoin="round"/>
</g>
</g>
</svg>
