<svg width="24" height="24" viewBox="0 0 24 24" fill="none" xmlns="http://www.w3.org/2000/svg">
<g id="vuesax/bold/cake">
<g id="cake">
<path id="Vector" d="M20.8894 13V14H20.0194C19.2794 14 18.6794 14.6 18.6794 15.35V15.65C18.6794 16.4 18.0794 17 17.3294 17C16.5894 17 15.9894 16.4 15.9894 15.65V15.35C15.9894 14.6 15.3794 14 14.6394 14C13.8994 14 13.2994 14.6 13.2994 15.35V15.65C13.2994 16.4 12.6894 17 11.9494 17C11.2094 17 10.5994 16.4 10.5994 15.65V15.35C10.5994 14.6 9.99938 14 9.25938 14C8.51938 14 7.90938 14.6 7.90938 15.35V15.65C7.90938 16.4 7.30938 17 6.56938 17C5.81938 17 5.21937 16.4 5.21937 15.65V15.33C5.21937 14.59 4.62938 13.99 3.89938 13.98H3.10938V13C3.10938 11.62 4.14938 10.45 5.55938 10.11C5.83938 10.04 6.12938 10 6.43938 10H17.5594C17.8694 10 18.1594 10.04 18.4394 10.11C19.8494 10.45 20.8894 11.62 20.8894 13Z" fill="#292D32"/>
<path id="Vector_2" d="M18.4386 7.17V8.58C18.1486 8.52 17.8586 8.5 17.5586 8.5H6.43859C6.13859 8.5 5.84859 8.53 5.55859 8.59V7.17C5.55859 5.97 6.63859 5 7.97859 5H16.0186C17.3586 5 18.4386 5.97 18.4386 7.17Z" fill="#292D32"/>
<path id="Vector_3" d="M8.75 3.55039V5.01039H7.98C7.72 5.01039 7.48 5.04039 7.25 5.10039V3.55039C7.25 3.20039 7.59 2.90039 8 2.90039C8.41 2.90039 8.75 3.20039 8.75 3.55039Z" fill="#292D32"/>
<path id="Vector_4" d="M16.75 3.33008V5.10008C16.52 5.03008 16.28 5.00008 16.02 5.00008H15.25V3.33008C15.25 2.92008 15.59 2.58008 16 2.58008C16.41 2.58008 16.75 2.92008 16.75 3.33008Z" fill="#292D32"/>
<path id="Vector_5" d="M12.75 2.82V5H11.25V2.82C11.25 2.37 11.59 2 12 2C12.41 2 12.75 2.37 12.75 2.82Z" fill="#292D32"/>
<path id="Vector_6" d="M22 21.2505C22 21.6605 21.66 22.0005 21.25 22.0005H2.75C2.34 22.0005 2 21.6605 2 21.2505C2 20.8405 2.34 20.5005 2.75 20.5005H3.11V15.4805H3.72V15.5505C3.72 16.8905 4.6 18.1305 5.91 18.4205C6.93 18.6605 7.9 18.3305 8.56 17.6805C8.94 17.3005 9.56 17.2905 9.94 17.6705C10.46 18.1805 11.17 18.5005 11.95 18.5005C12.73 18.5005 13.44 18.1905 13.96 17.6705C14.34 17.3005 14.95 17.3005 15.34 17.6805C15.99 18.3305 16.96 18.6605 17.99 18.4205C19.3 18.1305 20.18 16.8905 20.18 15.5505V15.5005H20.89V20.5005H21.25C21.66 20.5005 22 20.8405 22 21.2505Z" fill="#292D32"/>
</g>
</g>
</svg>
