<svg width="18" height="18" viewBox="0 0 18 18" fill="none" xmlns="http://www.w3.org/2000/svg">
<g id="vuesax/linear/cake">
<g id="cake">
<path id="Vector" d="M1.5 16.5H16.5" stroke="#F1F0F0" stroke-width="1.5" stroke-linecap="round" stroke-linejoin="round"/>
<path id="Vector_2" d="M2.33203 16.5V9.75C2.33203 8.505 3.44953 7.5 4.82953 7.5H13.162C14.542 7.5 15.6595 8.505 15.6595 9.75V16.5" stroke="#F1F0F0" stroke-width="1.5" stroke-linecap="round" stroke-linejoin="round"/>
<path id="Vector_3" d="M4.16992 7.5V5.3775C4.16992 4.4775 4.97992 3.75 5.98492 3.75H12.0224C13.0199 3.75 13.8299 4.4775 13.8299 5.3775V7.5" stroke="#F1F0F0" stroke-width="1.5" stroke-linecap="round" stroke-linejoin="round"/>
<path id="Vector_4" d="M2.64844 10.4844L2.92594 10.4919C3.48094 10.4994 3.92344 10.9494 3.92344 11.5044V11.7519C3.92344 12.3069 4.37344 12.7644 4.93594 12.7644C5.49094 12.7644 5.94844 12.3144 5.94844 11.7519V11.5194C5.94844 10.9644 6.39844 10.5069 6.96094 10.5069C7.51594 10.5069 7.97344 10.9569 7.97344 11.5194V11.7519C7.97344 12.3069 8.42344 12.7644 8.98594 12.7644C9.54094 12.7644 9.99844 12.3144 9.99844 11.7519V11.5194C9.99844 10.9644 10.4484 10.5069 11.0109 10.5069C11.5659 10.5069 12.0234 10.9569 12.0234 11.5194V11.7519C12.0234 12.3069 12.4734 12.7644 13.0359 12.7644C13.5909 12.7644 14.0484 12.3144 14.0484 11.7519V11.5194C14.0484 10.9644 14.4984 10.5069 15.0609 10.5069H15.3984" stroke="#F1F0F0" stroke-width="1.5" stroke-linecap="round" stroke-linejoin="round"/>
<path id="Vector_5" d="M6 3.75V2.25" stroke="#F1F0F0" stroke-width="1.5" stroke-linecap="round" stroke-linejoin="round"/>
<path id="Vector_6" d="M12 3.75V2.25" stroke="#F1F0F0" stroke-width="1.5" stroke-linecap="round" stroke-linejoin="round"/>
<path id="Vector_7" d="M9 3.75V1.5" stroke="#F1F0F0" stroke-width="1.5" stroke-linecap="round" stroke-linejoin="round"/>
</g>
</g>
</svg>
