<svg width="25" height="24" viewBox="0 0 25 24" fill="none" xmlns="http://www.w3.org/2000/svg">
<path d="M7.59806 22H18.0781C20.8381 22 21.9381 20.31 22.0681 18.25L22.5881 9.99C22.7281 7.83 21.0081 6 18.8381 6C18.2281 6 17.6681 5.65 17.3881 5.11L16.6681 3.66C16.2081 2.75 15.0081 2 13.9881 2H11.6981C10.6681 2 9.46806 2.75 9.00806 3.66L8.28806 5.11C8.00806 5.65 7.44806 6 6.83806 6C4.66806 6 2.94806 7.83 3.08806 9.99L3.60806 18.25C3.72806 20.31 4.83806 22 7.59806 22Z" stroke="#7C7C7C" stroke-width="1.5" stroke-linecap="round" stroke-linejoin="round"/>
<path d="M11.3379 8H14.3379" stroke="#7C7C7C" stroke-width="1.5" stroke-linecap="round" stroke-linejoin="round"/>
<path d="M12.8379 18C14.6279 18 16.0879 16.54 16.0879 14.75C16.0879 12.96 14.6279 11.5 12.8379 11.5C11.0479 11.5 9.58789 12.96 9.58789 14.75C9.58789 16.54 11.0479 18 12.8379 18Z" stroke="#7C7C7C" stroke-width="1.5" stroke-linecap="round" stroke-linejoin="round"/>
</svg>
