<svg width="48" height="48" viewBox="0 0 48 48" fill="none" xmlns="http://www.w3.org/2000/svg">
<rect width="48" height="48" rx="24" fill="white"/>
<path d="M17.0142 37.3333H30.9875C34.6675 37.3333 36.1342 35.08 36.3075 32.3333L37.0009 21.32C37.1875 18.44 34.8942 16 32.0009 16C31.1875 16 30.4409 15.5333 30.0675 14.8133L29.1075 12.88C28.4942 11.6667 26.8942 10.6667 25.5342 10.6667H22.4809C21.1075 10.6667 19.5075 11.6667 18.8942 12.88L17.9342 14.8133C17.5609 15.5333 16.8142 16 16.0009 16C13.1075 16 10.8142 18.44 11.0009 21.32L11.6942 32.3333C11.8542 35.08 13.3342 37.3333 17.0142 37.3333Z" stroke="#292D32" stroke-width="1.5" stroke-linecap="round" stroke-linejoin="round"/>
<path d="M22 18.6667H26" stroke="#292D32" stroke-width="1.5" stroke-linecap="round" stroke-linejoin="round"/>
<path d="M23.9993 32C26.386 32 28.3327 30.0533 28.3327 27.6667C28.3327 25.28 26.386 23.3333 23.9993 23.3333C21.6127 23.3333 19.666 25.28 19.666 27.6667C19.666 30.0533 21.6127 32 23.9993 32Z" stroke="#292D32" stroke-width="1.5" stroke-linecap="round" stroke-linejoin="round"/>
</svg>
