<svg width="24" height="24" viewBox="0 0 24 24" fill="none" xmlns="http://www.w3.org/2000/svg">
<g id="vuesax/bold/category">
<g id="category">
<path id="Vector" d="M7.24 2H5.34C3.15 2 2 3.15 2 5.33V7.23C2 9.41 3.15 10.56 5.33 10.56H7.23C9.41 10.56 10.56 9.41 10.56 7.23V5.33C10.57 3.15 9.42 2 7.24 2Z" fill="#292D32"/>
<path id="Vector_2" d="M18.6714 2H16.7714C14.5914 2 13.4414 3.15 13.4414 5.33V7.23C13.4414 9.41 14.5914 10.56 16.7714 10.56H18.6714C20.8514 10.56 22.0014 9.41 22.0014 7.23V5.33C22.0014 3.15 20.8514 2 18.6714 2Z" fill="#292D32"/>
<path id="Vector_3" d="M18.6714 13.4297H16.7714C14.5914 13.4297 13.4414 14.5797 13.4414 16.7597V18.6597C13.4414 20.8397 14.5914 21.9897 16.7714 21.9897H18.6714C20.8514 21.9897 22.0014 20.8397 22.0014 18.6597V16.7597C22.0014 14.5797 20.8514 13.4297 18.6714 13.4297Z" fill="#292D32"/>
<path id="Vector_4" d="M7.24 13.4297H5.34C3.15 13.4297 2 14.5797 2 16.7597V18.6597C2 20.8497 3.15 21.9997 5.33 21.9997H7.23C9.41 21.9997 10.56 20.8497 10.56 18.6697V16.7697C10.57 14.5797 9.42 13.4297 7.24 13.4297Z" fill="#292D32"/>
</g>
</g>
</svg>
