<svg width="33" height="33" viewBox="0 0 33 33" fill="none" xmlns="http://www.w3.org/2000/svg">
<path d="M20.3641 3.16406H12.6307C11.7241 3.16406 10.4441 3.6974 9.80406 4.3374L4.3374 9.80408C3.6974 10.4441 3.16406 11.7241 3.16406 12.6307V20.3641C3.16406 21.2707 3.6974 22.5507 4.3374 23.1907L9.80406 28.6574C10.4441 29.2974 11.7241 29.8307 12.6307 29.8307H20.3641C21.2707 29.8307 22.5507 29.2974 23.1907 28.6574L28.6574 23.1907C29.2974 22.5507 29.8307 21.2707 29.8307 20.3641V12.6307C29.8307 11.7241 29.2974 10.4441 28.6574 9.80408L23.1907 4.3374C22.5507 3.6974 21.2707 3.16406 20.3641 3.16406Z" stroke="#5F5F5F" stroke-width="1.5" stroke-linecap="round" stroke-linejoin="round"/>
<path d="M11.8359 21.1693L21.1693 11.8359" stroke="#5F5F5F" stroke-width="1.5" stroke-linecap="round" stroke-linejoin="round"/>
<path d="M21.1693 21.1693L11.8359 11.8359" stroke="#5F5F5F" stroke-width="1.5" stroke-linecap="round" stroke-linejoin="round"/>
</svg>
