<svg width="20" height="21" viewBox="0 0 20 21" fill="none" xmlns="http://www.w3.org/2000/svg">
<path fill-rule="evenodd" clip-rule="evenodd" d="M15.0995 5.82232C15.3924 5.52943 15.3924 5.05456 15.0995 4.76166C14.8066 4.46877 14.3318 4.46877 14.0389 4.76166L9.67913 9.1214L5.31939 4.76166C5.0265 4.46877 4.55163 4.46877 4.25873 4.76166C3.96584 5.05456 3.96584 5.52943 4.25873 5.82232L8.61847 10.1821L4.25873 14.5418C3.96584 14.8347 3.96584 15.3096 4.25873 15.6025C4.55163 15.8954 5.0265 15.8954 5.31939 15.6025L9.67913 11.2427L14.0389 15.6025C14.3318 15.8954 14.8066 15.8954 15.0995 15.6025C15.3924 15.3096 15.3924 14.8347 15.0995 14.5418L10.7398 10.1821L15.0995 5.82232Z" fill="#1A1A25"/>
</svg>
