<svg width="18" height="18" viewBox="0 0 18 18" fill="none" xmlns="http://www.w3.org/2000/svg">
<g id="vuesax/linear/directbox-notif">
<g id="directbox-notif">
<path id="Vector" d="M5.25 9C2.25 9 2.25 10.3425 2.25 12V12.75C2.25 14.82 2.25 16.5 6 16.5H12C15 16.5 15.75 14.82 15.75 12.75V12C15.75 10.3425 15.75 9 12.75 9C12 9 11.79 9.1575 11.4 9.45L10.635 10.26C9.75 11.205 8.25 11.205 7.3575 10.26L6.6 9.45C6.21 9.1575 6 9 5.25 9Z" stroke="#F1F0F0" stroke-width="1.5" stroke-miterlimit="10" stroke-linecap="round" stroke-linejoin="round"/>
<path id="Vector_2" d="M14.25 9V4.5C14.25 2.8425 14.25 1.5 11.25 1.5H6.75C3.75 1.5 3.75 2.8425 3.75 4.5V9" stroke="#F1F0F0" stroke-width="1.5" stroke-miterlimit="10" stroke-linecap="round" stroke-linejoin="round"/>
<path id="Vector_3" d="M7.91211 6.92188H10.4096" stroke="#F1F0F0" stroke-width="1.5" stroke-linecap="round" stroke-linejoin="round"/>
<path id="Vector_4" d="M7.28906 4.67188H11.0391" stroke="#F1F0F0" stroke-width="1.5" stroke-linecap="round" stroke-linejoin="round"/>
</g>
</g>
</svg>
