<svg width="24" height="25" viewBox="0 0 24 25" fill="none" xmlns="http://www.w3.org/2000/svg">
<path d="M7 12.5C3 12.5 3 14.29 3 16.5V17.5C3 20.26 3 22.5 8 22.5H16C20 22.5 21 20.26 21 17.5V16.5C21 14.29 21 12.5 17 12.5C16 12.5 15.72 12.71 15.2 13.1L14.18 14.18C13 15.44 11 15.44 9.81 14.18L8.8 13.1C8.28 12.71 8 12.5 7 12.5Z" stroke="#292D32" stroke-width="1.5" stroke-miterlimit="10" stroke-linecap="round" stroke-linejoin="round"/>
<path d="M19 12.5V6.5C19 4.29 19 2.5 15 2.5H9C5 2.5 5 4.29 5 6.5V12.5" stroke="#292D32" stroke-width="1.5" stroke-miterlimit="10" stroke-linecap="round" stroke-linejoin="round"/>
<path d="M10.5469 9.73047H13.8769" stroke="#292D32" stroke-width="1.5" stroke-linecap="round" stroke-linejoin="round"/>
<path d="M9.71875 6.73047H14.7188" stroke="#292D32" stroke-width="1.5" stroke-linecap="round" stroke-linejoin="round"/>
</svg>
