<svg width="25" height="24" viewBox="0 0 25 24" fill="none" xmlns="http://www.w3.org/2000/svg">
<g id="vuesax/bold/gift">
<path id="Vector" d="M20.334 12V18C20.334 19.9339 18.7678 21.5 16.834 21.5H8.83398C6.90013 21.5 5.33398 19.9339 5.33398 18V12C5.33398 11.7261 5.56013 11.5 5.83398 11.5H7.80398C8.07784 11.5 8.30398 11.7261 8.30398 12V15.14C8.30398 16.0646 8.8154 16.9122 9.6247 17.349C9.99009 17.5501 10.3927 17.65 10.804 17.65C11.2796 17.65 11.7557 17.5125 12.1692 17.2375L12.8403 16.7995L13.4451 17.205C13.4451 17.205 13.4452 17.205 13.4452 17.2051C14.2037 17.7148 15.1813 17.7809 15.9996 17.341C16.8198 16.9054 17.334 16.0674 17.334 15.13V12C17.334 11.7261 17.5601 11.5 17.834 11.5H19.834C20.1078 11.5 20.334 11.7261 20.334 12Z" fill="#822DA4" stroke="#822DA4"/>
<path id="Vector_2" d="M21.834 7V8C21.834 8.47826 21.718 8.84359 21.5085 9.0838C21.3097 9.3116 20.9628 9.5 20.334 9.5H5.33398C4.66924 9.5 4.32825 9.30829 4.14088 9.08829C3.94044 8.85296 3.83398 8.49047 3.83398 8V7C3.83398 6.50953 3.94044 6.14704 4.14088 5.91171C4.32825 5.69171 4.66924 5.5 5.33398 5.5H20.334C20.9628 5.5 21.3097 5.6884 21.5085 5.9162C21.718 6.15641 21.834 6.52174 21.834 7Z" fill="#822DA4" stroke="#822DA4"/>
<path id="Vector_3" d="M9.40119 2.63301L11.2676 4.49945H7.22818C7.17916 4.34832 7.21514 4.17616 7.3383 4.05301L8.7583 2.63301C8.93304 2.45827 9.22645 2.45827 9.40119 2.63301Z" fill="#822DA4" stroke="#822DA4"/>
<path id="Vector_4" d="M18.32 4.05301C18.4432 4.17616 18.4792 4.34832 18.4302 4.49945H14.3907L16.2571 2.63301C16.4319 2.45827 16.7253 2.45827 16.9 2.63301L18.32 4.05301Z" fill="#822DA4" stroke="#822DA4"/>
<path id="Vector_5" d="M14.5351 15.5469L14.5351 15.5469L14.5308 15.544L13.6308 14.944C13.1304 14.6104 12.4846 14.6149 11.9818 14.9402L11.9818 14.9402L11.9781 14.9426L11.0381 15.5626L11.0381 15.5626L11.0361 15.564C10.714 15.7787 10.2734 15.5474 10.2734 15.15V12C10.2734 11.7261 10.4996 11.5 10.7734 11.5H14.8034C15.0773 11.5 15.3034 11.7261 15.3034 12V15.13C15.3034 15.5376 14.8555 15.7653 14.5351 15.5469Z" fill="#822DA4" stroke="#822DA4"/>
</g>
</svg>
