<svg width="24" height="24" viewBox="0 0 24 24" fill="none" xmlns="http://www.w3.org/2000/svg">
<g id="vuesax/linear/gift">
<g id="gift">
<path id="Vector" d="M19.9687 10H3.96875V18C3.96875 21 4.96875 22 7.96875 22H15.9688C18.9688 22 19.9687 21 19.9687 18V10Z" stroke="#292D32" stroke-width="1.5" stroke-miterlimit="10" stroke-linecap="round" stroke-linejoin="round"/>
<path id="Vector_2" d="M21.5 7V8C21.5 9.1 20.97 10 19.5 10H4.5C2.97 10 2.5 9.1 2.5 8V7C2.5 5.9 2.97 5 4.5 5H19.5C20.97 5 21.5 5.9 21.5 7Z" stroke="#292D32" stroke-width="1.5" stroke-miterlimit="10" stroke-linecap="round" stroke-linejoin="round"/>
<path id="Vector_3" d="M11.6388 5.00043H6.11881C5.77881 4.63043 5.78881 4.06043 6.14881 3.70043L7.56881 2.28043C7.93881 1.91043 8.54881 1.91043 8.91881 2.28043L11.6388 5.00043Z" stroke="#292D32" stroke-width="1.5" stroke-miterlimit="10" stroke-linecap="round" stroke-linejoin="round"/>
<path id="Vector_4" d="M17.8716 5.00043H12.3516L15.0716 2.28043C15.4416 1.91043 16.0516 1.91043 16.4216 2.28043L17.8416 3.70043C18.2016 4.06043 18.2116 4.63043 17.8716 5.00043Z" stroke="#292D32" stroke-width="1.5" stroke-miterlimit="10" stroke-linecap="round" stroke-linejoin="round"/>
<path id="Vector_5" d="M8.94141 10V15.14C8.94141 15.94 9.82141 16.41 10.4914 15.98L11.4314 15.36C11.7714 15.14 12.2014 15.14 12.5314 15.36L13.4214 15.96C14.0814 16.4 14.9714 15.93 14.9714 15.13V10H8.94141Z" stroke="#292D32" stroke-width="1.5" stroke-miterlimit="10" stroke-linecap="round" stroke-linejoin="round"/>
</g>
</g>
</svg>
