<svg width="25" height="24" viewBox="0 0 25 24" fill="none" xmlns="http://www.w3.org/2000/svg">
<g id="vuesax/linear/gift">
<g id="gift">
<path id="Vector" d="M20.8047 10H4.80469V18C4.80469 21 5.80469 22 8.80469 22H16.8047C19.8047 22 20.8047 21 20.8047 18V10Z" stroke="#7C7C7C" stroke-width="1.5" stroke-miterlimit="10" stroke-linecap="round" stroke-linejoin="round"/>
<path id="Vector_2" d="M22.334 7V8C22.334 9.1 21.804 10 20.334 10H5.33398C3.80398 10 3.33398 9.1 3.33398 8V7C3.33398 5.9 3.80398 5 5.33398 5H20.334C21.804 5 22.334 5.9 22.334 7Z" stroke="#7C7C7C" stroke-width="1.5" stroke-miterlimit="10" stroke-linecap="round" stroke-linejoin="round"/>
<path id="Vector_3" d="M12.4747 4.99945H6.95475C6.61475 4.62945 6.62475 4.05945 6.98475 3.69945L8.40475 2.27945C8.77475 1.90945 9.38475 1.90945 9.75475 2.27945L12.4747 4.99945Z" stroke="#7C7C7C" stroke-width="1.5" stroke-miterlimit="10" stroke-linecap="round" stroke-linejoin="round"/>
<path id="Vector_4" d="M18.7036 4.99945H13.1836L15.9036 2.27945C16.2736 1.90945 16.8836 1.90945 17.2536 2.27945L18.6736 3.69945C19.0336 4.05945 19.0436 4.62945 18.7036 4.99945Z" stroke="#7C7C7C" stroke-width="1.5" stroke-miterlimit="10" stroke-linecap="round" stroke-linejoin="round"/>
<path id="Vector_5" d="M9.77344 10V15.14C9.77344 15.94 10.6534 16.41 11.3234 15.98L12.2634 15.36C12.6034 15.14 13.0334 15.14 13.3634 15.36L14.2534 15.96C14.9134 16.4 15.8034 15.93 15.8034 15.13V10H9.77344Z" stroke="#7C7C7C" stroke-width="1.5" stroke-miterlimit="10" stroke-linecap="round" stroke-linejoin="round"/>
</g>
</g>
</svg>
