<svg width="81" height="80" viewBox="0 0 81 80" fill="none" xmlns="http://www.w3.org/2000/svg">
<rect x="0.5" width="80" height="80" rx="40" fill="#E8E8E8"/>
<path d="M56.4399 36H24.4399V52C24.4399 58 26.4399 60 32.4399 60H48.4399C54.4399 60 56.4399 58 56.4399 52V36Z" stroke="#292D32" stroke-width="1.5" stroke-miterlimit="10" stroke-linecap="round" stroke-linejoin="round"/>
<path d="M59.5 30V32C59.5 34.2 58.44 36 55.5 36H25.5C22.44 36 21.5 34.2 21.5 32V30C21.5 27.8 22.44 26 25.5 26H55.5C58.44 26 59.5 27.8 59.5 30Z" stroke="#292D32" stroke-width="1.5" stroke-miterlimit="10" stroke-linecap="round" stroke-linejoin="round"/>
<path d="M39.7801 26H28.7401C28.0601 25.26 28.0801 24.12 28.8001 23.4L31.6401 20.56C32.3801 19.82 33.6001 19.82 34.3401 20.56L39.7801 26Z" stroke="#292D32" stroke-width="1.5" stroke-miterlimit="10" stroke-linecap="round" stroke-linejoin="round"/>
<path d="M52.2402 26H41.2002L46.6402 20.56C47.3802 19.82 48.6002 19.82 49.3402 20.56L52.1802 23.4C52.9002 24.12 52.9202 25.26 52.2402 26Z" stroke="#292D32" stroke-width="1.5" stroke-miterlimit="10" stroke-linecap="round" stroke-linejoin="round"/>
<path d="M34.3799 36V46.28C34.3799 47.88 36.1399 48.82 37.4799 47.96L39.3599 46.72C40.0399 46.28 40.8999 46.28 41.5599 46.72L43.3399 47.92C44.6599 48.8 46.4399 47.86 46.4399 46.26V36H34.3799Z" stroke="#292D32" stroke-width="1.5" stroke-miterlimit="10" stroke-linecap="round" stroke-linejoin="round"/>
</svg>
