<svg width="68" height="35" viewBox="0 0 68 35" fill="none" xmlns="http://www.w3.org/2000/svg">
<g id="Sidebar">
<g id="Group 5">
<rect id="Rectangle 1" x="1" y="0.5" width="66" height="34" rx="17" fill="#E0B0FF" stroke="#371345"/>
<g id="Group 3">
<path id="Ellipse 1" d="M58.8824 25.3827C55.0647 29.2004 48.8894 29.2103 45.0894 25.4103C41.2895 21.6104 41.2993 15.4351 45.1171 11.6174C48.9348 7.79968 55.1101 7.78985 58.91 11.5898C62.7099 15.3897 62.7001 21.565 58.8824 25.3827Z" fill="#EACAFF" stroke="#371345"/>
<path id="Ellipse 2" d="M46.0056 24.4942C42.7108 21.1995 42.7232 15.8452 46.0332 12.5352" stroke="#371345" stroke-linecap="round"/>
</g>
<path id="Vector" d="M13.0798 17.7898C13.2962 20.8855 15.923 23.4041 19.0668 23.5424C21.2849 23.6386 23.2685 22.6047 24.4587 20.9757C24.9516 20.3085 24.6871 19.8636 23.8636 20.0139C23.4608 20.0861 23.0461 20.1161 22.6133 20.0981C19.6739 19.9779 17.2695 17.5193 17.2575 14.616C17.2515 13.8346 17.4138 13.0952 17.7083 12.422C18.0329 11.6766 17.6422 11.322 16.8908 11.6406C14.5104 12.6444 12.8814 15.0428 13.0798 17.7898Z" stroke="#371345" stroke-linecap="round" stroke-linejoin="round"/>
</g>
</g>
</svg>
