<svg width="67" height="35" viewBox="0 0 67 35" fill="none" xmlns="http://www.w3.org/2000/svg">
<g id="Group 5">
<rect id="Rectangle 1" x="0.5" y="0.5" width="66" height="34" rx="17" fill="#F5E7FF" stroke="#822DA4"/>
<g id="Group 1">
<path id="Vector" d="M51.7358 23.2881C54.5132 23.2881 56.7646 21.0366 56.7646 18.2593C56.7646 15.4819 54.5132 13.2305 51.7358 13.2305C48.9585 13.2305 46.707 15.4819 46.707 18.2593C46.707 21.0366 48.9585 23.2881 51.7358 23.2881Z" stroke="#822DA4" stroke-width="1.16049" stroke-linecap="round" stroke-linejoin="round"/>
<path id="Vector_2" d="M57.2606 23.784L57.16 23.6834M57.16 12.8367L57.2606 12.7361L57.16 12.8367ZM46.2127 23.784L46.3132 23.6834L46.2127 23.784ZM51.7366 10.5853V10.5234V10.5853ZM51.7366 25.9967V25.9348V25.9967ZM44.0619 18.2601H44H44.0619ZM59.4732 18.2601H59.4113H59.4732ZM46.3132 12.8367L46.2127 12.7361L46.3132 12.8367Z" stroke="#822DA4" stroke-width="1.54732" stroke-linecap="round" stroke-linejoin="round"/>
</g>
<path id="Vector_3" d="M12.5788 17.7898C12.7952 20.8855 15.422 23.4041 18.5658 23.5424C20.7839 23.6386 22.7675 22.6047 23.9577 20.9757C24.4506 20.3085 24.1861 19.8636 23.3626 20.0139C22.9599 20.0861 22.5451 20.1161 22.1123 20.0981C19.1729 19.9779 16.7685 17.5193 16.7565 14.616C16.7505 13.8346 16.9128 13.0952 17.2073 12.422C17.5319 11.6766 17.1412 11.322 16.3898 11.6406C14.0095 12.6444 12.3805 15.0428 12.5788 17.7898Z" stroke="#822DA4" stroke-width="0.901654" stroke-linecap="round" stroke-linejoin="round"/>
<g id="Group 3">
<ellipse id="Ellipse 1" cx="18.4997" cy="17.5001" rx="10.2336" ry="10.2726" transform="rotate(45 18.4997 17.5001)" fill="#822DA4"/>
<path id="Ellipse 2" d="M12.5075 23.4933C9.21275 20.1985 9.22512 14.8442 12.5352 11.5342" stroke="#E0B0FF" stroke-width="2.03109" stroke-linecap="round"/>
</g>
</g>
</svg>
