<svg width="22" height="22" viewBox="0 0 22 22" fill="none" xmlns="http://www.w3.org/2000/svg">
<g id="&#60;Group&#62;">
<g id="&#60;Group&#62;_2">
<path id="&#60;Path&#62;" d="M7.74929 10.3664C7.65359 9.34853 7.45783 8.23537 6.98366 7.23483C6.46164 6.13467 5.58725 5.1861 4.81727 4.41078C3.97333 3.56617 3.2425 2.83417 3.65142 1.99389C3.87328 1.53476 4.4736 1.03666 5.5742 0.707472C6.78355 0.347969 8.61063 0.174715 10.9032 0.759449C13.2436 1.35718 15.1577 2.44435 16.541 3.66146C17.8896 4.84392 18.7422 6.139 19.2512 7.30413C20.2387 9.57376 20.0734 11.3669 19.9603 12.4628C19.734 14.6934 19.9429 14.6068 21.0173 13.7145C22.1223 12.792 19.1555 17.3312 13.448 19.8088C12.0821 20.3978 10.6204 20.8699 9.1631 21.1775C7.75364 21.4763 6.36593 21.6236 5.10873 21.6236C3.91243 21.6236 2.84664 21.4937 1.99835 21.2728C1.21532 21.0605 0.628042 20.7747 0.288728 20.4671C-0.294196 19.9257 0.0625196 19.315 0.849903 18.8689C1.63729 18.4271 2.75963 18.0676 3.92983 17.4265C5.00433 16.8375 6.10492 15.9712 6.8227 14.7541C7.47958 13.6279 7.9146 12.1206 7.74929 10.3664Z" fill="url(#paint0_linear_1667_17201)"/>
<path id="&#60;Path&#62;_2" style="mix-blend-mode:color-dodge" d="M0.288728 20.4672C0.923855 21.052 2.45512 21.5327 4.46055 21.6107C6.6922 21.7017 9.38931 21.2902 11.9298 20.4023C14.5834 19.471 16.9456 18.0417 18.5725 16.673C20.2213 15.2783 21.0957 14.0265 21.2218 13.6843C21.2218 13.6843 18.9989 16.6773 15.4013 18.5701C13.6829 19.4753 11.7732 20.1207 10.1114 20.3633C8.55842 20.5885 7.27947 20.4716 6.6487 20.0211C6.07882 19.6096 6.74005 18.9816 7.69274 18.059C8.56713 17.2144 9.70687 16.0449 10.416 14.5809C11.0772 13.2165 11.3121 11.536 11.0467 10.098C10.777 8.63828 10.0418 7.37786 9.44586 6.4856C8.67588 5.34645 7.73189 4.38056 6.7444 3.63123C5.68296 2.82993 4.58671 2.28418 3.69492 1.91602C3.32516 2.56139 3.66447 3.16778 4.19954 3.76984C4.70851 4.33724 5.39584 4.9393 5.99617 5.6843C6.54864 6.36865 7.01411 7.17862 7.29687 8.00591C7.55788 8.78555 7.67969 9.59985 7.74929 10.3665C7.9146 12.1207 7.47958 13.628 6.8227 14.7542C6.10492 15.9713 5.00433 16.8375 3.92983 17.4266C2.75963 18.0676 1.63729 18.4272 0.849903 18.869C0.0625196 19.3151 -0.294196 19.9258 0.288728 20.4672Z" fill="url(#paint1_radial_1667_17201)"/>
<path id="&#60;Path&#62;_3" d="M5.26241 18.0548C5.35811 17.5047 6.40651 16.7814 7.2896 15.5469C8.07698 14.4381 8.70776 12.8355 8.74691 11.129C8.78171 9.40074 8.21618 7.67253 7.4201 6.41211C6.52396 4.98276 5.36246 4.0775 5.35811 3.23722C5.35376 2.80842 5.72788 2.43159 6.49786 2.24534C7.32875 2.04176 8.599 2.05476 10.0781 2.53987C11.5789 3.03365 13.2232 4.0212 14.376 5.57615C15.4766 7.05748 16.0248 9.07589 15.6506 11.025C15.2809 12.9525 14.1237 14.6027 12.8013 15.7808C11.4875 16.9503 10.0476 17.678 8.81216 18.0981C7.63326 18.4966 6.67187 18.6135 6.04979 18.5616C5.48427 18.5183 5.21891 18.3233 5.26241 18.0548Z" fill="url(#paint2_radial_1667_17201)"/>
<path id="&#60;Path&#62;_4" d="M6.02352 17.5484C6.01482 17.1152 6.7239 16.4785 7.39817 15.504C8.02025 14.6074 8.62493 13.3773 8.91639 11.9999C9.20785 10.6139 9.1687 9.20183 9.00774 8.04969C8.83374 6.80226 8.50747 5.81471 8.97294 5.26463C9.44711 4.70588 10.9436 4.76652 12.4748 6.07892C13.9844 7.36967 15.0414 10.1331 13.9844 12.7016C12.9142 15.309 10.4825 16.864 8.69888 17.5137C7.05451 18.1071 6.03657 17.9772 6.02352 17.5484Z" fill="white"/>
<path id="&#60;Path&#62;_5" opacity="0.4" d="M17.014 16.7719C17.9275 16.8802 20.294 14.8748 21.2206 13.6837C21.2684 13.5494 21.2075 13.5494 21.0161 13.714C19.9416 14.6062 19.7328 14.6929 19.959 12.4622C20.0721 11.3664 20.2375 9.5732 19.25 7.30357C18.741 6.13843 17.8884 4.84336 16.5398 3.6609C15.1564 2.44378 13.2424 1.35661 10.902 0.758886C9.25324 0.338744 7.82638 0.317087 6.71274 0.468684C5.66434 0.611619 4.90306 0.90182 4.39844 1.22667C5.47728 0.958128 6.84324 0.823856 8.40496 1.0101C10.0319 1.20502 11.8242 1.7421 13.4816 2.77297C15.8003 4.21531 17.2445 6.24672 17.8449 8.10487C18.4321 9.91971 18.306 11.6003 18.0145 12.878C17.4185 15.4985 16.4136 16.694 17.014 16.7719Z" fill="url(#paint3_radial_1667_17201)"/>
</g>
</g>
<defs>
<linearGradient id="paint0_linear_1667_17201" x1="43.5838" y1="-14.17" x2="4.91909" y2="48.5975" gradientUnits="userSpaceOnUse">
<stop stop-color="#FF001C"/>
<stop offset="0.219" stop-color="#FF009D"/>
<stop offset="0.64" stop-color="#00AADD"/>
<stop offset="0.898" stop-color="#E9D013"/>
<stop offset="1" stop-color="#FFD400"/>
</linearGradient>
<radialGradient id="paint1_radial_1667_17201" cx="0" cy="0" r="1" gradientUnits="userSpaceOnUse" gradientTransform="translate(11.7294 3.91904) rotate(25.6493) scale(6.54257 6.52395)">
<stop offset="0.311" stop-color="#E0B0FF"/>
<stop offset="1" stop-color="#822DA4"/>
</radialGradient>
<radialGradient id="paint2_radial_1667_17201" cx="0" cy="0" r="1" gradientUnits="userSpaceOnUse" gradientTransform="translate(-4.00539 7.2536) rotate(-24.4057) scale(25.8811 25.8074)">
<stop stop-color="white"/>
<stop offset="0.235" stop-color="#B1B1B1"/>
<stop offset="0.383" stop-color="#9FA1A4"/>
<stop offset="0.572" stop-color="#E5E6E8"/>
<stop offset="0.704" stop-color="white"/>
<stop offset="0.924" stop-color="#9FA1A4"/>
</radialGradient>
<radialGradient id="paint3_radial_1667_17201" cx="0" cy="0" r="1" gradientUnits="userSpaceOnUse" gradientTransform="translate(0.25441 10.4026) scale(23.7722 23.6694)">
<stop offset="0.25" stop-color="#822DA4"/>
<stop offset="1" stop-color="white"/>
</radialGradient>
</defs>
</svg>
