<svg width="24" height="25" viewBox="0 0 24 25" fill="none" xmlns="http://www.w3.org/2000/svg">
<path d="M12 6.94043V10.2704" stroke="#292D32" stroke-width="1.5" stroke-miterlimit="10" stroke-linecap="round"/>
<path d="M12.0189 2.5C8.33892 2.5 5.35892 5.48 5.35892 9.16V11.26C5.35892 11.94 5.07892 12.96 4.72892 13.54L3.45892 15.66C2.67892 16.97 3.21892 18.43 4.65892 18.91C9.43892 20.5 14.6089 20.5 19.3889 18.91C20.7389 18.46 21.3189 16.88 20.5889 15.66L19.3189 13.54C18.9689 12.96 18.6889 11.93 18.6889 11.26V9.16C18.6789 5.5 15.6789 2.5 12.0189 2.5Z" stroke="#292D32" stroke-width="1.5" stroke-miterlimit="10" stroke-linecap="round"/>
<path d="M15.3319 19.3203C15.3319 21.1503 13.8319 22.6503 12.0019 22.6503C11.0919 22.6503 10.2519 22.2703 9.65187 21.6703C9.05187 21.0703 8.67188 20.2303 8.67188 19.3203" stroke="#292D32" stroke-width="1.5" stroke-miterlimit="10"/>
</svg>
