<svg width="18" height="18" viewBox="0 0 18 18" fill="none" xmlns="http://www.w3.org/2000/svg">
<g id="vuesax/linear/people">
<g id="people">
<g id="Group">
<path id="Vector" d="M13.5005 5.37C13.4555 5.3625 13.403 5.3625 13.358 5.37C12.323 5.3325 11.498 4.485 11.498 3.435C11.498 2.3625 12.3605 1.5 13.433 1.5C14.5055 1.5 15.368 2.37 15.368 3.435C15.3605 4.485 14.5355 5.3325 13.5005 5.37Z" stroke="#F1F0F0" stroke-width="1.5" stroke-linecap="round" stroke-linejoin="round"/>
<path id="Vector_2" d="M12.7276 10.8301C13.7551 11.0026 14.8876 10.8226 15.6826 10.2901C16.7401 9.58512 16.7401 8.43012 15.6826 7.72512C14.8801 7.19262 13.7326 7.01262 12.7051 7.19262" stroke="#F1F0F0" stroke-width="1.5" stroke-linecap="round" stroke-linejoin="round"/>
</g>
<g id="Group_2">
<path id="Vector_3" d="M4.47688 5.37C4.52188 5.3625 4.57438 5.3625 4.61938 5.37C5.65438 5.3325 6.47937 4.485 6.47937 3.435C6.47937 2.3625 5.61688 1.5 4.54438 1.5C3.47188 1.5 2.60938 2.37 2.60938 3.435C2.61687 4.485 3.44188 5.3325 4.47688 5.37Z" stroke="#F1F0F0" stroke-width="1.5" stroke-linecap="round" stroke-linejoin="round"/>
<path id="Vector_4" d="M5.25008 10.8301C4.22258 11.0026 3.09008 10.8226 2.29508 10.2901C1.23758 9.58512 1.23758 8.43012 2.29508 7.72512C3.09758 7.19262 4.24508 7.01262 5.27258 7.19262" stroke="#F1F0F0" stroke-width="1.5" stroke-linecap="round" stroke-linejoin="round"/>
</g>
<g id="Group_3">
<path id="Vector_5" d="M8.99859 10.9716C8.95359 10.9641 8.90109 10.9641 8.85609 10.9716C7.82109 10.9341 6.99609 10.0866 6.99609 9.03656C6.99609 7.96406 7.85859 7.10156 8.93109 7.10156C10.0036 7.10156 10.8661 7.97156 10.8661 9.03656C10.8586 10.0866 10.0336 10.9416 8.99859 10.9716Z" stroke="#F1F0F0" stroke-width="1.5" stroke-linecap="round" stroke-linejoin="round"/>
<path id="Vector_6" d="M6.81656 13.3345C5.75906 14.0395 5.75906 15.1945 6.81656 15.8995C8.01656 16.702 9.98156 16.702 11.1816 15.8995C12.2391 15.1945 12.2391 14.0395 11.1816 13.3345C9.98906 12.5395 8.01656 12.5395 6.81656 13.3345Z" stroke="#F1F0F0" stroke-width="1.5" stroke-linecap="round" stroke-linejoin="round"/>
</g>
</g>
</g>
</svg>
