<svg width="24" height="24" viewBox="0 0 24 24" fill="none" xmlns="http://www.w3.org/2000/svg">
<g id="vuesax/linear/people">
<g id="people">
<g id="Group">
<path id="Vector" d="M17.9981 7.16C17.9381 7.15 17.8681 7.15 17.8081 7.16C16.4281 7.11 15.3281 5.98 15.3281 4.58C15.3281 3.15 16.4781 2 17.9081 2C19.3381 2 20.4881 3.16 20.4881 4.58C20.4781 5.98 19.3781 7.11 17.9981 7.16Z" stroke="#292D32" stroke-width="1.5" stroke-linecap="round" stroke-linejoin="round"/>
<path id="Vector_2" d="M16.9675 14.4402C18.3375 14.6702 19.8475 14.4302 20.9075 13.7202C22.3175 12.7802 22.3175 11.2402 20.9075 10.3002C19.8375 9.59016 18.3075 9.35016 16.9375 9.59016" stroke="#292D32" stroke-width="1.5" stroke-linecap="round" stroke-linejoin="round"/>
</g>
<g id="Group_2">
<path id="Vector_3" d="M5.97047 7.16C6.03047 7.15 6.10047 7.15 6.16047 7.16C7.54047 7.11 8.64047 5.98 8.64047 4.58C8.64047 3.15 7.49047 2 6.06047 2C4.63047 2 3.48047 3.16 3.48047 4.58C3.49047 5.98 4.59047 7.11 5.97047 7.16Z" stroke="#292D32" stroke-width="1.5" stroke-linecap="round" stroke-linejoin="round"/>
<path id="Vector_4" d="M7.0014 14.4402C5.6314 14.6702 4.12141 14.4302 3.06141 13.7202C1.65141 12.7802 1.65141 11.2402 3.06141 10.3002C4.13141 9.59016 5.6614 9.35016 7.0314 9.59016" stroke="#292D32" stroke-width="1.5" stroke-linecap="round" stroke-linejoin="round"/>
</g>
<g id="Group_3">
<path id="Vector_5" d="M11.9981 14.6297C11.9381 14.6197 11.8681 14.6197 11.8081 14.6297C10.4281 14.5797 9.32812 13.4497 9.32812 12.0497C9.32812 10.6197 10.4781 9.46973 11.9081 9.46973C13.3381 9.46973 14.4881 10.6297 14.4881 12.0497C14.4781 13.4497 13.3781 14.5897 11.9981 14.6297Z" stroke="#292D32" stroke-width="1.5" stroke-linecap="round" stroke-linejoin="round"/>
<path id="Vector_6" d="M9.08875 17.7794C7.67875 18.7194 7.67875 20.2594 9.08875 21.1994C10.6888 22.2694 13.3087 22.2694 14.9087 21.1994C16.3187 20.2594 16.3187 18.7194 14.9087 17.7794C13.3187 16.7194 10.6888 16.7194 9.08875 17.7794Z" stroke="#292D32" stroke-width="1.5" stroke-linecap="round" stroke-linejoin="round"/>
</g>
</g>
</g>
</svg>
