<svg width="138" height="41" viewBox="0 0 138 41" fill="none" xmlns="http://www.w3.org/2000/svg">
<rect x="0.9125" y="0.50625" width="135.675" height="39.4875" rx="4.55625" fill="black"/>
<rect x="0.9125" y="0.50625" width="135.675" height="39.4875" rx="4.55625" stroke="#A6A6A6" stroke-width="1.0125"/>
<path d="M69.3936 22.0284C67.0122 22.0284 65.0712 23.8398 65.0712 26.3346C65.0712 28.8142 67.0122 30.6408 69.3936 30.6408C71.776 30.6408 73.717 28.8142 73.717 26.3346C73.716 23.8398 71.775 22.0284 69.3936 22.0284ZM69.3936 28.9458C68.0885 28.9458 66.9636 27.8695 66.9636 26.3356C66.9636 24.7855 68.0895 23.7254 69.3936 23.7254C70.6987 23.7254 71.8236 24.7855 71.8236 26.3356C71.8236 27.8685 70.6987 28.9458 69.3936 28.9458ZM59.9632 22.0284C57.5818 22.0284 55.6408 23.8398 55.6408 26.3346C55.6408 28.8142 57.5818 30.6408 59.9632 30.6408C62.3456 30.6408 64.2866 28.8142 64.2866 26.3346C64.2866 23.8398 62.3456 22.0284 59.9632 22.0284ZM59.9632 28.9458C58.6581 28.9458 57.5332 27.8695 57.5332 26.3356C57.5332 24.7855 58.6591 23.7254 59.9632 23.7254C61.2683 23.7254 62.3932 24.7855 62.3932 26.3356C62.3942 27.8685 61.2683 28.9458 59.9632 28.9458ZM48.7467 23.3507V25.1773H53.1187C52.9881 26.205 52.6458 26.9553 52.1234 27.4767C51.4875 28.1125 50.4923 28.8142 48.7467 28.8142C46.0555 28.8142 43.9515 26.6444 43.9515 23.9532C43.9515 21.262 46.0555 19.0922 48.7467 19.0922C50.1986 19.0922 51.2587 19.6632 52.0414 20.3973L53.3303 19.1084C52.2368 18.0645 50.7859 17.2656 48.7467 17.2656C45.0602 17.2656 41.9609 20.2667 41.9609 23.9532C41.9609 27.6397 45.0602 30.6408 48.7467 30.6408C50.7363 30.6408 52.2378 29.9877 53.4113 28.7646C54.6182 27.5577 54.9938 25.8607 54.9938 24.4908C54.9938 24.0676 54.9614 23.6758 54.8956 23.3497H48.7467V23.3507ZM94.6211 24.7693C94.2626 23.8074 93.1691 22.0284 90.9346 22.0284C88.7162 22.0284 86.8724 23.774 86.8724 26.3346C86.8724 28.7484 88.7 30.6408 91.1462 30.6408C93.1195 30.6408 94.2616 29.4339 94.7355 28.7322L93.2673 27.7531C92.7783 28.471 92.1091 28.9438 91.1462 28.9438C90.1843 28.9438 89.4988 28.5034 89.0584 27.6387L94.8165 25.2573L94.6211 24.7693ZM88.7486 26.205C88.7 24.5404 90.0375 23.693 91.0004 23.693C91.7506 23.693 92.3865 24.0686 92.5991 24.6063L88.7486 26.205ZM84.0678 30.3805H85.9591V17.7233H84.0678V30.3805ZM80.9675 22.9913H80.9027C80.4785 22.4851 79.6624 22.0284 78.6357 22.0284C76.4821 22.0284 74.5088 23.9208 74.5088 26.3518C74.5088 28.7656 76.4821 30.6418 78.6357 30.6418C79.6634 30.6418 80.4785 30.1851 80.9027 29.6637H80.9675V30.2833C80.9675 31.9307 80.0866 32.8116 78.6681 32.8116C77.5098 32.8116 76.792 31.9803 76.4983 31.2786L74.851 31.9641C75.3238 33.1052 76.5793 34.5085 78.6681 34.5085C80.8865 34.5085 82.7627 33.2034 82.7627 30.0221V22.2907H80.9685V22.9913H80.9675ZM78.7987 28.9458C77.4936 28.9458 76.4011 27.8523 76.4011 26.3518C76.4011 24.8341 77.4936 23.7254 78.7987 23.7254C80.0866 23.7254 81.0981 24.8341 81.0981 26.3518C81.0981 27.8523 80.0866 28.9458 78.7987 28.9458ZM103.484 17.7233H98.9576V30.3805H100.846V25.5853H103.483C105.577 25.5853 107.637 24.0696 107.637 21.6548C107.637 19.24 105.578 17.7233 103.484 17.7233ZM103.533 23.8236H100.846V19.485H103.533C104.946 19.485 105.747 20.6545 105.747 21.6548C105.747 22.6349 104.946 23.8236 103.533 23.8236ZM115.209 22.0062C113.841 22.0062 112.425 22.6086 111.839 23.9441L113.515 24.6437C113.874 23.9441 114.542 23.7153 115.242 23.7153C116.219 23.7153 117.212 24.3015 117.228 25.3434V25.474C116.886 25.2786 116.153 24.9859 115.258 24.9859C113.451 24.9859 111.61 25.9792 111.61 27.8351C111.61 29.529 113.092 30.6195 114.753 30.6195C116.022 30.6195 116.723 30.0495 117.162 29.3812H117.227V30.3583H119.052V25.5054C119.053 23.2596 117.374 22.0062 115.209 22.0062ZM114.98 28.9428C114.363 28.9428 113.499 28.633 113.499 27.8675C113.499 26.8905 114.574 26.5158 115.503 26.5158C116.332 26.5158 116.724 26.695 117.228 26.9391C117.081 28.1125 116.072 28.9428 114.98 28.9428ZM125.696 22.2826L123.53 27.7703H123.465L121.217 22.2826H119.182L122.553 29.9523L120.631 34.2189H122.602L127.797 22.2826H125.696ZM108.68 30.3805H110.568V17.7233H108.68V30.3805Z" fill="white"/>
<path d="M48.4231 10.3733C48.4231 11.2218 48.172 11.8971 47.6688 12.4013C47.0977 13.0007 46.3525 13.3004 45.4372 13.3004C44.5604 13.3004 43.8142 12.9967 43.2016 12.3892C42.588 11.7807 42.2812 11.0274 42.2812 10.1283C42.2812 9.22816 42.588 8.47487 43.2016 7.86737C43.8142 7.25885 44.5604 6.9551 45.4372 6.9551C45.8726 6.9551 46.2887 7.04015 46.6836 7.20924C47.0795 7.37934 47.3964 7.60513 47.6333 7.88762L47.0997 8.42222C46.6978 7.94128 46.1439 7.70132 45.4362 7.70132C44.7963 7.70132 44.2435 7.92609 43.7767 8.37564C43.3099 8.82519 43.0771 9.4094 43.0771 10.1273C43.0771 10.8451 43.3099 11.4293 43.7767 11.8789C44.2435 12.3284 44.7963 12.5532 45.4362 12.5532C46.1146 12.5532 46.6806 12.3274 47.1332 11.8748C47.4268 11.5802 47.5969 11.1701 47.6424 10.6447H45.4362V9.91464H48.3795C48.4099 10.0736 48.4231 10.2265 48.4231 10.3733Z" fill="white"/>
<path d="M53.0908 7.83603H50.3246V9.76181H52.8194V10.4918H50.3246V12.4176H53.0908V13.1648H49.544V7.08982H53.0908V7.83603Z" fill="white"/>
<path d="M56.3823 13.1648H55.6017V7.83603H53.9047V7.08982H58.0793V7.83603H56.3823V13.1648Z" fill="white"/>
<path d="M61.0995 13.1648V7.08982H61.8801V13.1648H61.0995Z" fill="white"/>
<path d="M65.3421 13.1648H64.5614V7.83603H62.8645V7.08982H67.039V7.83603H65.3421V13.1648Z" fill="white"/>
<path d="M74.9413 12.3801C74.344 12.9937 73.6018 13.3005 72.7138 13.3005C71.8259 13.3005 71.0837 12.9937 70.4874 12.3801C69.89 11.7666 69.5923 11.0153 69.5923 10.1273C69.5923 9.23935 69.89 8.48807 70.4874 7.8745C71.0837 7.26092 71.8259 6.95312 72.7138 6.95312C73.5967 6.95312 74.3379 7.26194 74.9373 7.87855C75.5367 8.49516 75.8364 9.24441 75.8364 10.1273C75.8364 11.0153 75.5377 11.7666 74.9413 12.3801ZM71.0635 11.8708C71.513 12.3265 72.0628 12.5533 72.7138 12.5533C73.3649 12.5533 73.9157 12.3255 74.3642 11.8708C74.8138 11.4152 75.0396 10.834 75.0396 10.1273C75.0396 9.42059 74.8138 8.83941 74.3642 8.38379C73.9157 7.92816 73.3649 7.70136 72.7138 7.70136C72.0628 7.70136 71.513 7.92918 71.0635 8.38379C70.6149 8.83941 70.3891 9.42059 70.3891 10.1273C70.3891 10.834 70.6149 11.4152 71.0635 11.8708Z" fill="white"/>
<path d="M76.9319 13.1648V7.08982H77.8817L80.8341 11.8152H80.8675L80.8341 10.6447V7.08982H81.6147V13.1648H80.7997L77.7106 8.20965H77.6771L77.7106 9.3801V13.1648H76.9319Z" fill="white"/>
<path d="M48.4231 10.3733C48.4231 11.2218 48.172 11.8971 47.6688 12.4013C47.0977 13.0007 46.3525 13.3004 45.4372 13.3004C44.5604 13.3004 43.8142 12.9967 43.2016 12.3892C42.588 11.7807 42.2812 11.0274 42.2812 10.1283C42.2812 9.22816 42.588 8.47487 43.2016 7.86737C43.8142 7.25885 44.5604 6.9551 45.4372 6.9551C45.8726 6.9551 46.2887 7.04015 46.6836 7.20924C47.0795 7.37934 47.3964 7.60513 47.6333 7.88762L47.0997 8.42222C46.6978 7.94128 46.1439 7.70132 45.4362 7.70132C44.7963 7.70132 44.2435 7.92609 43.7767 8.37564C43.3099 8.82519 43.0771 9.4094 43.0771 10.1273C43.0771 10.8451 43.3099 11.4293 43.7767 11.8789C44.2435 12.3284 44.7963 12.5532 45.4362 12.5532C46.1146 12.5532 46.6806 12.3274 47.1332 11.8748C47.4268 11.5802 47.5969 11.1701 47.6424 10.6447H45.4362V9.91464H48.3795C48.4099 10.0736 48.4231 10.2265 48.4231 10.3733Z" stroke="white" stroke-width="0.2025" stroke-miterlimit="10"/>
<path d="M53.0908 7.83603H50.3246V9.76181H52.8194V10.4918H50.3246V12.4176H53.0908V13.1648H49.544V7.08982H53.0908V7.83603Z" stroke="white" stroke-width="0.2025" stroke-miterlimit="10"/>
<path d="M56.3823 13.1648H55.6017V7.83603H53.9047V7.08982H58.0793V7.83603H56.3823V13.1648Z" stroke="white" stroke-width="0.2025" stroke-miterlimit="10"/>
<path d="M61.0995 13.1648V7.08982H61.8801V13.1648H61.0995Z" stroke="white" stroke-width="0.2025" stroke-miterlimit="10"/>
<path d="M65.3421 13.1648H64.5614V7.83603H62.8645V7.08982H67.039V7.83603H65.3421V13.1648Z" stroke="white" stroke-width="0.2025" stroke-miterlimit="10"/>
<path d="M74.9413 12.3801C74.344 12.9937 73.6018 13.3005 72.7138 13.3005C71.8259 13.3005 71.0837 12.9937 70.4874 12.3801C69.89 11.7666 69.5923 11.0153 69.5923 10.1273C69.5923 9.23935 69.89 8.48807 70.4874 7.8745C71.0837 7.26092 71.8259 6.95312 72.7138 6.95312C73.5967 6.95312 74.3379 7.26194 74.9373 7.87855C75.5367 8.49516 75.8364 9.24441 75.8364 10.1273C75.8364 11.0153 75.5377 11.7666 74.9413 12.3801ZM71.0635 11.8708C71.513 12.3265 72.0628 12.5533 72.7138 12.5533C73.3649 12.5533 73.9157 12.3255 74.3642 11.8708C74.8138 11.4152 75.0396 10.834 75.0396 10.1273C75.0396 9.42059 74.8138 8.83941 74.3642 8.38379C73.9157 7.92816 73.3649 7.70136 72.7138 7.70136C72.0628 7.70136 71.513 7.92918 71.0635 8.38379C70.6149 8.83941 70.3891 9.42059 70.3891 10.1273C70.3891 10.834 70.6149 11.4152 71.0635 11.8708Z" stroke="white" stroke-width="0.2025" stroke-miterlimit="10"/>
<path d="M76.9319 13.1648V7.08982H77.8817L80.8341 11.8152H80.8675L80.8341 10.6447V7.08982H81.6147V13.1648H80.7997L77.7106 8.20965H77.6771L77.7106 9.3801V13.1648H76.9319Z" stroke="white" stroke-width="0.2025" stroke-miterlimit="10"/>
<g filter="url(#filter0_ii_2873_96538)">
<path d="M10.9688 7.63641C10.6742 7.94826 10.5 8.43224 10.5 9.05898V31.4514C10.5 32.0792 10.6742 32.5621 10.9688 32.874L11.0437 32.9469L23.5876 20.403V20.2552V20.1074L11.0437 7.5625L10.9688 7.63641Z" fill="url(#paint0_linear_2873_96538)"/>
<path d="M27.7666 24.5896L23.5859 20.407V20.2591V20.1113L27.7676 15.9297L27.8617 15.9833L32.8159 18.7981C34.2303 19.602 34.2303 20.9173 32.8159 21.7222L27.8617 24.537L27.7666 24.5896Z" fill="url(#paint1_linear_2873_96538)"/>
<g filter="url(#filter1_i_2873_96538)">
<path d="M27.8633 24.5268L23.5865 20.25L10.9688 32.8688C11.4345 33.3629 12.205 33.4236 13.0727 32.9316L27.8633 24.5268Z" fill="url(#paint2_linear_2873_96538)"/>
</g>
<path d="M27.8633 15.9784L13.0727 7.57465C12.205 7.08156 11.4345 7.14333 10.9688 7.63743L23.5875 20.2562L27.8633 15.9784Z" fill="url(#paint3_linear_2873_96538)"/>
</g>
<defs>
<filter id="filter0_ii_2873_96538" x="10.5" y="7.23438" width="23.375" height="26.0391" filterUnits="userSpaceOnUse" color-interpolation-filters="sRGB">
<feFlood flood-opacity="0" result="BackgroundImageFix"/>
<feBlend mode="normal" in="SourceGraphic" in2="BackgroundImageFix" result="shape"/>
<feColorMatrix in="SourceAlpha" type="matrix" values="0 0 0 0 0 0 0 0 0 0 0 0 0 0 0 0 0 0 127 0" result="hardAlpha"/>
<feOffset dy="-0.151875"/>
<feComposite in2="hardAlpha" operator="arithmetic" k2="-1" k3="1"/>
<feColorMatrix type="matrix" values="0 0 0 0 0 0 0 0 0 0 0 0 0 0 0 0 0 0 0.12 0"/>
<feBlend mode="normal" in2="shape" result="effect1_innerShadow_2873_96538"/>
<feColorMatrix in="SourceAlpha" type="matrix" values="0 0 0 0 0 0 0 0 0 0 0 0 0 0 0 0 0 0 127 0" result="hardAlpha"/>
<feOffset dy="0.151875"/>
<feComposite in2="hardAlpha" operator="arithmetic" k2="-1" k3="1"/>
<feColorMatrix type="matrix" values="0 0 0 0 1 0 0 0 0 1 0 0 0 0 1 0 0 0 0.25 0"/>
<feBlend mode="normal" in2="effect1_innerShadow_2873_96538" result="effect2_innerShadow_2873_96538"/>
</filter>
<filter id="filter1_i_2873_96538" x="10.9688" y="20.25" width="16.8984" height="13.0234" filterUnits="userSpaceOnUse" color-interpolation-filters="sRGB">
<feFlood flood-opacity="0" result="BackgroundImageFix"/>
<feBlend mode="normal" in="SourceGraphic" in2="BackgroundImageFix" result="shape"/>
<feColorMatrix in="SourceAlpha" type="matrix" values="0 0 0 0 0 0 0 0 0 0 0 0 0 0 0 0 0 0 127 0" result="hardAlpha"/>
<feOffset dy="-0.151875"/>
<feComposite in2="hardAlpha" operator="arithmetic" k2="-1" k3="1"/>
<feColorMatrix type="matrix" values="0 0 0 0 0 0 0 0 0 0 0 0 0 0 0 0 0 0 0.08 0"/>
<feBlend mode="normal" in2="shape" result="effect1_innerShadow_2873_96538"/>
</filter>
<linearGradient id="paint0_linear_2873_96538" x1="22.4756" y1="8.82205" x2="5.48387" y2="25.8138" gradientUnits="userSpaceOnUse">
<stop stop-color="#00A0FF"/>
<stop offset="0.0066" stop-color="#00A1FF"/>
<stop offset="0.2601" stop-color="#00BEFF"/>
<stop offset="0.5122" stop-color="#00D2FF"/>
<stop offset="0.7604" stop-color="#00DFFF"/>
<stop offset="1" stop-color="#00E3FF"/>
</linearGradient>
<linearGradient id="paint1_linear_2873_96538" x1="34.6571" y1="20.2591" x2="10.1588" y2="20.2591" gradientUnits="userSpaceOnUse">
<stop stop-color="#FFE000"/>
<stop offset="0.4087" stop-color="#FFBD00"/>
<stop offset="0.7754" stop-color="#FFA500"/>
<stop offset="1" stop-color="#FF9C00"/>
</linearGradient>
<linearGradient id="paint2_linear_2873_96538" x1="25.5408" y1="22.5726" x2="2.49777" y2="45.6156" gradientUnits="userSpaceOnUse">
<stop stop-color="#FF3A44"/>
<stop offset="1" stop-color="#C31162"/>
</linearGradient>
<linearGradient id="paint3_linear_2873_96538" x1="7.79092" y1="0.1832" x2="18.0802" y2="10.4725" gradientUnits="userSpaceOnUse">
<stop stop-color="#32A071"/>
<stop offset="0.0685" stop-color="#2DA771"/>
<stop offset="0.4762" stop-color="#15CF74"/>
<stop offset="0.8009" stop-color="#06E775"/>
<stop offset="1" stop-color="#00F076"/>
</linearGradient>
</defs>
</svg>
