<svg width="103" height="101" viewBox="0 0 103 101" fill="none" xmlns="http://www.w3.org/2000/svg">
<g clip-path="url(#clip0_2873_96733)">
<rect x="0.015625" y="0.109375" width="102.658" height="100.563" rx="50.2817" fill="#E0B0FF"/>
<path d="M37.2188 50.3901L47.317 60.5303L67.5554 40.25" stroke="#822DA4" stroke-width="6.28521" stroke-linecap="round" stroke-linejoin="round"/>
<path d="M47.1506 10.3776C50.0418 7.90539 54.7767 7.90539 57.7097 10.3776L64.3302 16.0762C65.5872 17.1656 67.9337 18.0455 69.6097 18.0455H76.733C81.1745 18.0455 84.82 21.691 84.82 26.1325V33.2557C84.82 34.8899 85.6999 37.2783 86.7893 38.5353L92.4879 45.1557C94.9601 48.0469 94.9601 52.7818 92.4879 55.7149L86.7893 62.3353C85.6999 63.5924 84.82 65.9388 84.82 67.6149V74.7381C84.82 79.1797 81.1745 82.8251 76.733 82.8251H69.6097C67.9756 82.8251 65.5872 83.705 64.3302 84.7945L57.7097 90.4931C54.8186 92.9652 50.0837 92.9652 47.1506 90.4931L40.5302 84.7945C39.2731 83.705 36.9266 82.8251 35.2506 82.8251H28.0016C23.5601 82.8251 19.9147 79.1797 19.9147 74.7381V67.573C19.9147 65.9388 19.0347 63.5924 17.9872 62.3353L12.3305 55.673C9.90024 52.7818 9.90024 48.0888 12.3305 45.1976L17.9872 38.5353C19.0347 37.2783 19.9147 34.9318 19.9147 33.2976V26.0906C19.9147 21.6491 23.5601 18.0036 28.0016 18.0036H35.2506C36.8847 18.0036 39.2731 17.1237 40.5302 16.0343L47.1506 10.3776Z" stroke="#822DA4" stroke-width="6.28521" stroke-linecap="round" stroke-linejoin="round"/>
</g>
<defs>
<clipPath id="clip0_2873_96733">
<rect x="0.015625" y="0.109375" width="102.658" height="100.563" rx="50.2817" fill="white"/>
</clipPath>
</defs>
</svg>
