<svg width="24" height="24" viewBox="0 0 24 24" fill="none" xmlns="http://www.w3.org/2000/svg">
<path d="M18.63 7.15209C18.67 7.76209 18.62 8.45209 18.5 9.22209L17.77 13.9121C17.15 17.8221 15.34 19.1421 11.43 18.5321L6.73999 17.7921C5.38999 17.5821 4.34999 17.2221 3.58999 16.6821C2.13999 15.6721 1.71999 14.0121 2.11999 11.4521L2.85999 6.76209C3.47999 2.85209 5.28999 1.53209 9.19999 2.14209L13.89 2.88209C17.03 3.37209 18.5 4.65209 18.63 7.15209Z" stroke="#6F6F6F" stroke-width="1.5" stroke-linecap="round" stroke-linejoin="round"/>
<path d="M20.5037 13.4684L19.0037 17.9784C17.7537 21.7384 15.7537 22.7384 11.9937 21.4884L7.48375 19.9884C5.21375 19.2384 3.95375 18.1984 3.59375 16.6784C4.35375 17.2184 5.39375 17.5784 6.74375 17.7884L11.4338 18.5284C15.3438 19.1384 17.1538 17.8184 17.7738 13.9084L18.5037 9.21844C18.6237 8.44844 18.6737 7.75844 18.6337 7.14844C21.0237 8.41844 21.5437 10.3384 20.5037 13.4684Z" stroke="#6F6F6F" stroke-width="1.5" stroke-linecap="round" stroke-linejoin="round"/>
<path d="M8.24 8.98C9.20098 8.98 9.98 8.20098 9.98 7.24C9.98 6.27902 9.20098 5.5 8.24 5.5C7.27902 5.5 6.5 6.27902 6.5 7.24C6.5 8.20098 7.27902 8.98 8.24 8.98Z" stroke="#6F6F6F" stroke-width="1.5" stroke-linecap="round" stroke-linejoin="round"/>
</svg>
