<svg width="25" height="24" viewBox="0 0 25 24" fill="none" xmlns="http://www.w3.org/2000/svg">
<g id="vuesax/bold/user-tick">
<g id="user-tick">
<path id="Vector" d="M4.07617 21.5C4.07617 17.722 7.83777 14.5 12.6662 14.5C17.4946 14.5 21.2562 17.722 21.2562 21.5H4.07617Z" fill="#822DA4" stroke="#822DA4"/>
<path id="Vector_2" d="M9.85628 3.49209L9.85629 3.4921L9.85892 3.48999C10.6341 2.86804 11.6047 2.5 12.666 2.5C15.1499 2.5 17.166 4.51614 17.166 7C17.166 7.84656 16.9322 8.63625 16.5198 9.30859L16.5197 9.3085L16.5131 9.31986C16.2831 9.71799 15.9809 10.074 15.633 10.3683L15.6275 10.373L15.622 10.3779C14.8328 11.0864 13.8014 11.5 12.666 11.5C11.0202 11.5 9.59997 10.6198 8.82607 9.31494L8.82619 9.31486L8.8197 9.30449C8.39973 8.63434 8.16602 7.8464 8.16602 7C8.16602 5.57736 8.82253 4.31011 9.85628 3.49209ZM10.931 9.25212L10.9325 9.25355C11.2124 9.53345 11.5823 9.67 11.946 9.67C12.291 9.67 12.6463 9.54954 12.9268 9.28585L15.5948 6.82777C16.1839 6.28516 16.2037 5.37164 15.6781 4.78605L15.6782 4.78602L15.6738 4.78126C15.1339 4.19512 14.2274 4.16799 13.6474 4.70211C13.6474 4.70215 13.6473 4.70219 13.6473 4.70223L11.9904 6.22724L11.7396 5.97645C11.1743 5.41118 10.2677 5.41118 9.70246 5.97645C9.13747 6.54144 9.1372 7.44744 9.70166 8.01275C9.70193 8.01302 9.7022 8.01329 9.70246 8.01355L10.931 9.25212L10.931 9.25212Z" fill="#822DA4" stroke="#822DA4"/>
</g>
</g>
</svg>
