<svg width="25" height="24" viewBox="0 0 25 24" fill="none" xmlns="http://www.w3.org/2000/svg">
<g id="vuesax/linear/user-tick">
<g id="user-tick">
<path id="Vector" d="M12.666 12C15.4274 12 17.666 9.76142 17.666 7C17.666 4.23858 15.4274 2 12.666 2C9.90459 2 7.66602 4.23858 7.66602 7C7.66602 9.76142 9.90459 12 12.666 12Z" stroke="#7C7C7C" stroke-width="1.5" stroke-linecap="round" stroke-linejoin="round"/>
<path id="Vector_2" d="M4.07617 22C4.07617 18.13 7.92617 15 12.6662 15C13.6262 15 14.5562 15.13 15.4262 15.37" stroke="#7C7C7C" stroke-width="1.5" stroke-linecap="round" stroke-linejoin="round"/>
<g id="Group">
<path id="Vector_3" d="M22.666 18C22.666 18.75 22.456 19.46 22.086 20.06C21.876 20.42 21.606 20.74 21.296 21C20.596 21.63 19.676 22 18.666 22C17.206 22 15.936 21.22 15.246 20.06C14.876 19.46 14.666 18.75 14.666 18C14.666 16.74 15.246 15.61 16.166 14.88C16.856 14.33 17.726 14 18.666 14C20.876 14 22.666 15.79 22.666 18Z" stroke="#7C7C7C" stroke-width="1.5" stroke-miterlimit="10" stroke-linecap="round" stroke-linejoin="round"/>
<path id="Vector_4" d="M17.1055 17.9995L18.0955 18.9895L20.2255 17.0195" stroke="#7C7C7C" stroke-width="1.5" stroke-linecap="round" stroke-linejoin="round"/>
</g>
</g>
</g>
</svg>
