<svg width="18" height="18" viewBox="0 0 18 18" fill="none" xmlns="http://www.w3.org/2000/svg">
<g id="vuesax/linear/wallet-money">
<path id="Vector" d="M8.06369 12.6445V14.1671C8.06369 15.4571 6.86368 16.4995 5.38618 16.4995C3.90868 16.4995 2.70117 15.4571 2.70117 14.1671V12.6445C2.70117 13.9345 3.90118 14.8495 5.38618 14.8495C6.86368 14.8495 8.06369 13.927 8.06369 12.6445Z" stroke="#F1F0F0" stroke-width="1.5" stroke-linecap="round" stroke-linejoin="round"/>
<path id="Vector_2" d="M8.06334 10.5828C8.06334 10.9578 7.95834 11.3028 7.77834 11.6028C7.33584 12.3303 6.42833 12.7878 5.37833 12.7878C4.32833 12.7878 3.42082 12.3228 2.97832 11.6028C2.79832 11.3028 2.69336 10.9578 2.69336 10.5828C2.69336 9.93779 2.99334 9.36029 3.47334 8.94029C3.96084 8.51279 4.62832 8.25781 5.37082 8.25781C6.11332 8.25781 6.78084 8.52029 7.26834 8.94029C7.76334 9.35279 8.06334 9.93779 8.06334 10.5828Z" stroke="#F1F0F0" stroke-width="1.5" stroke-linecap="round" stroke-linejoin="round"/>
<path id="Vector_3" d="M8.06369 10.5825V12.645C8.06369 13.935 6.86368 14.85 5.38618 14.85C3.90868 14.85 2.70117 13.9275 2.70117 12.645V10.5825C2.70117 9.29249 3.90118 8.25 5.38618 8.25C6.12868 8.25 6.79621 8.51248 7.28371 8.93248C7.76371 9.35248 8.06369 9.93749 8.06369 10.5825Z" stroke="#F1F0F0" stroke-width="1.5" stroke-linecap="round" stroke-linejoin="round"/>
<path id="Vector_4" d="M16.4992 8.22786V9.7729C16.4992 10.1854 16.1692 10.5229 15.7492 10.5379H14.2792C13.4692 10.5379 12.7267 9.94538 12.6592 9.13538C12.6142 8.66288 12.7942 8.22037 13.1092 7.91287C13.3867 7.62787 13.7692 7.46289 14.1892 7.46289H15.7492C16.1692 7.47789 16.4992 7.81536 16.4992 8.22786Z" stroke="#F1F0F0" stroke-width="1.5" stroke-linecap="round" stroke-linejoin="round"/>
<path id="Vector_5" d="M1.5 7.875V6.375C1.5 4.335 2.73 2.91 4.6425 2.67C4.8375 2.64 5.04 2.625 5.25 2.625H12C12.195 2.625 12.3825 2.63249 12.5625 2.66249C14.4975 2.88749 15.75 4.32 15.75 6.375V7.46251H14.19C13.77 7.46251 13.3875 7.62749 13.11 7.91249C12.795 8.21999 12.615 8.66249 12.66 9.13499C12.7275 9.94499 13.47 10.5375 14.28 10.5375H15.75V11.625C15.75 13.875 14.25 15.375 12 15.375H10.125" stroke="#F1F0F0" stroke-width="1.5" stroke-linecap="round" stroke-linejoin="round"/>
</g>
</svg>
