<svg width="25" height="24" viewBox="0 0 25 24" fill="none" xmlns="http://www.w3.org/2000/svg">
<g id="vuesax/bold/wallet-money">
<g id="wallet-money">
<path id="Vector" d="M21.47 16.08C21.23 18.75 19.3 20.5 16.5 20.5H7.5C4.74 20.5 2.5 18.26 2.5 15.5V8.5C2.5 5.78 4.14 3.88 6.69 3.56C6.95 3.52 7.22 3.5 7.5 3.5H16.5C16.76 3.5 17.01 3.51 17.25 3.55C19.64 3.83 21.26 5.5 21.47 7.92C21.5 8.21 21.26 8.45 20.97 8.45H19.42C18.46 8.45 17.57 8.82 16.93 9.48C16.17 10.22 15.79 11.26 15.88 12.3C16.04 14.12 17.64 15.55 19.54 15.55H20.97C21.26 15.55 21.5 15.79 21.47 16.08Z" fill="#292D32"/>
<path id="Vector_2" d="M22.5002 10.9692V13.0292C22.5002 13.5792 22.0602 14.0292 21.5002 14.0492H19.5402C18.4602 14.0492 17.4702 13.2592 17.3802 12.1792C17.3202 11.5492 17.5602 10.9592 17.9802 10.5492C18.3502 10.1692 18.8602 9.94922 19.4202 9.94922H21.5002C22.0602 9.96922 22.5002 10.4192 22.5002 10.9692Z" fill="#292D32"/>
</g>
</g>
</svg>
