<svg width="48" height="48" viewBox="0 0 48 48" fill="none" xmlns="http://www.w3.org/2000/svg">
<path d="M17.5078 22.5668C17.2916 20.2671 16.8494 17.7522 15.7781 15.4917C14.5987 13.0061 12.6232 10.863 10.8836 9.11136C8.97688 7.20314 7.32573 5.54934 8.24959 3.6509C8.75084 2.61361 10.1071 1.48825 12.5937 0.744529C15.326 -0.0676897 19.4538 -0.459119 24.6334 0.861959C29.921 2.2124 34.2454 4.66862 37.3708 7.41842C40.4176 10.0899 42.344 13.0159 43.4939 15.6483C45.7249 20.776 45.3514 24.8273 45.0959 27.3031C44.5848 32.3428 45.0566 32.1471 47.4841 30.1312C49.9805 28.0468 43.2776 38.3023 30.3829 43.8998C27.2968 45.2306 23.9945 46.2973 20.702 46.9921C17.5177 47.6673 14.3824 48 11.5421 48C8.83929 48 6.43136 47.7064 4.51484 47.2073C2.74575 46.7278 1.41893 46.082 0.652318 45.3872C-0.664673 44.164 0.14125 42.7842 1.92017 41.7762C3.69909 40.7781 6.23479 39.9659 8.8786 38.5176C11.3062 37.1867 13.7928 35.2296 15.4144 32.4798C16.8985 29.9355 17.8813 26.53 17.5078 22.5668Z" fill="url(#paint0_linear_4469_55952)"/>
<path style="mix-blend-mode:color-dodge" d="M0.652318 45.387C2.08725 46.7081 5.54681 47.7943 10.0777 47.9705C15.1196 48.176 21.2131 47.2463 26.9528 45.2403C32.9481 43.1363 38.2849 39.907 41.9606 36.8147C45.6856 33.6637 47.6611 30.8356 47.9461 30.0625C47.9461 30.0625 42.9238 36.8245 34.7958 41.1009C30.9136 43.1461 26.599 44.6042 22.8446 45.1522C19.3359 45.661 16.4464 45.3968 15.0213 44.3791C13.7338 43.4495 15.2277 42.0305 17.3801 39.9462C19.3556 38.0379 21.9306 35.3958 23.5326 32.0882C25.0265 29.0057 25.5572 25.2088 24.9577 21.9599C24.3483 18.6621 22.6874 15.8145 21.3409 13.7986C19.6013 11.2249 17.4685 9.04271 15.2375 7.34977C12.8394 5.5394 10.3627 4.3064 8.34788 3.47461C7.51247 4.93269 8.27908 6.30269 9.48796 7.66292C10.6379 8.94485 12.1907 10.3051 13.547 11.9882C14.7952 13.5344 15.8469 15.3643 16.4857 17.2334C17.0754 18.9948 17.3506 20.8346 17.5078 22.5666C17.8813 26.5299 16.8985 29.9353 15.4144 32.4796C13.7928 35.2294 11.3062 37.1866 8.8786 38.5174C6.23479 39.9657 3.69909 40.7779 1.92017 41.7761C0.14125 42.784 -0.664673 44.1638 0.652318 45.387Z" fill="url(#paint1_radial_4469_55952)"/>
<path d="M11.8854 39.9363C12.1016 38.6935 14.4702 37.0592 16.4654 34.2703C18.2443 31.7651 19.6694 28.1444 19.7579 24.2888C19.8365 20.3843 18.5588 16.4798 16.7602 13.6321C14.7356 10.4028 12.1114 8.35759 12.1016 6.45915C12.0918 5.49036 12.937 4.63899 14.6766 4.2182C16.5538 3.75827 19.4237 3.78763 22.7653 4.88364C26.1561 5.99921 29.8712 8.23037 32.4757 11.7435C34.9622 15.0902 36.2006 19.6504 35.3554 24.054C34.52 28.4086 31.9056 32.137 28.9178 34.7987C25.9497 37.4409 22.6965 39.0849 19.9053 40.0341C17.2418 40.9344 15.0698 41.1986 13.6643 41.0812C12.3866 40.9833 11.7871 40.543 11.8854 39.9363Z" fill="url(#paint2_radial_4469_55952)"/>
<path d="M13.6056 38.7921C13.586 37.8135 15.188 36.375 16.7114 34.1732C18.1168 32.1476 19.483 29.3684 20.1415 26.2565C20.8 23.1251 20.7115 19.9349 20.3479 17.3319C19.9547 14.5136 19.2176 12.2825 20.2692 11.0397C21.3405 9.77731 24.7215 9.91431 28.181 12.8794C31.5914 15.7956 33.9797 22.0389 31.5914 27.8418C29.1737 33.7329 23.6796 37.246 19.65 38.7138C15.935 40.0545 13.6351 39.7609 13.6056 38.7921Z" fill="white"/>
<path opacity="0.4" d="M38.4435 37.0394C40.5074 37.284 45.854 32.7532 47.9474 30.0621C48.0555 29.7587 47.9179 29.7587 47.4855 30.1306C45.0579 32.1465 44.5861 32.3422 45.0972 27.3025C45.3528 24.8267 45.7262 20.7754 43.4952 15.6477C42.3453 13.0153 40.419 10.0894 37.3722 7.41784C34.2468 4.66804 29.9223 2.21181 24.6347 0.861375C20.9098 -0.0878446 17.6861 -0.136775 15.1701 0.205727C12.8014 0.528657 11.0815 1.1843 9.94141 1.91824C12.3788 1.31152 15.4649 1.00816 18.9933 1.42895C22.6691 1.86931 26.7183 3.08274 30.4629 5.41176C35.7014 8.67042 38.9644 13.2599 40.3207 17.458C41.6475 21.5583 41.3625 25.3551 40.704 28.2419C39.3575 34.1623 37.0872 36.8632 38.4435 37.0394Z" fill="url(#paint3_radial_4469_55952)"/>
<defs>
<linearGradient id="paint0_linear_4469_55952" x1="98.4682" y1="-32.8678" x2="11.1136" y2="108.942" gradientUnits="userSpaceOnUse">
<stop stop-color="#FF001C"/>
<stop offset="0.219" stop-color="#FF009D"/>
<stop offset="0.64" stop-color="#00AADD"/>
<stop offset="0.898" stop-color="#E9D013"/>
<stop offset="1" stop-color="#FFD400"/>
</linearGradient>
<radialGradient id="paint1_radial_4469_55952" cx="0" cy="0" r="1" gradientUnits="userSpaceOnUse" gradientTransform="translate(26.5 8) rotate(25.6493) scale(14.7815 14.7395)">
<stop offset="0.311" stop-color="#E0B0FF"/>
<stop offset="1" stop-color="#822DA4"/>
</radialGradient>
<radialGradient id="paint2_radial_4469_55952" cx="0" cy="0" r="1" gradientUnits="userSpaceOnUse" gradientTransform="translate(-9.0532 15.5333) rotate(-24.4057) scale(58.4727 58.3063)">
<stop stop-color="white"/>
<stop offset="0.235" stop-color="#B1B1B1"/>
<stop offset="0.383" stop-color="#9FA1A4"/>
<stop offset="0.572" stop-color="#E5E6E8"/>
<stop offset="0.704" stop-color="white"/>
<stop offset="0.924" stop-color="#9FA1A4"/>
</radialGradient>
<radialGradient id="paint3_radial_4469_55952" cx="0" cy="0" r="1" gradientUnits="userSpaceOnUse" gradientTransform="translate(0.578873 22.6493) scale(53.7082 53.4758)">
<stop offset="0.25" stop-color="#822DA4"/>
<stop offset="1" stop-color="white"/>
</radialGradient>
</defs>
</svg>
