<svg width="41" height="40" viewBox="0 0 41 40" fill="none" xmlns="http://www.w3.org/2000/svg">
<path d="M37.1666 27.9002V7.78349C37.1666 5.78349 35.5333 4.30015 33.55 4.46682H33.45C29.95 4.76682 24.6333 6.55015 21.6666 8.41682L21.3833 8.60015C20.9 8.90015 20.1 8.90015 19.6166 8.60015L19.2 8.35015C16.2333 6.50015 10.9333 4.73349 7.43331 4.45015C5.44998 4.28349 3.83331 5.78348 3.83331 7.76682V27.9002C3.83331 29.5002 5.13331 31.0002 6.73331 31.2002L7.21665 31.2668C10.8333 31.7502 16.4166 33.5835 19.6166 35.3335L19.6833 35.3668C20.1333 35.6168 20.85 35.6168 21.2833 35.3668C24.4833 33.6002 30.0833 31.7502 33.7166 31.2668L34.2666 31.2002C35.8666 31.0002 37.1666 29.5002 37.1666 27.9002Z" stroke="#292D32" stroke-width="2" stroke-linecap="round" stroke-linejoin="round"/>
<path d="M20.5 9.15039V34.1504" stroke="#292D32" stroke-width="2" stroke-linecap="round" stroke-linejoin="round"/>
<path d="M13.4167 14.1504H9.66669" stroke="#292D32" stroke-width="2" stroke-linecap="round" stroke-linejoin="round"/>
<path d="M14.6667 19.1504H9.66669" stroke="#292D32" stroke-width="2" stroke-linecap="round" stroke-linejoin="round"/>
</svg>
