<svg width="41" height="40" viewBox="0 0 41 40" fill="none" xmlns="http://www.w3.org/2000/svg">
<path d="M38.8333 29.8504C38.8666 31.1004 38.5333 32.2837 37.9333 33.3004C37.5999 33.9004 37.15 34.4504 36.65 34.9004C35.5 35.9671 33.9833 36.6171 32.2999 36.6671C29.8666 36.7171 27.7166 35.4671 26.5333 33.5504C25.9 32.5671 25.5166 31.3838 25.5 30.1338C25.45 28.0338 26.3833 26.1338 27.8833 24.8838C29.0166 23.9504 30.45 23.3671 32.0166 23.3338C35.7 23.2504 38.75 26.1671 38.8333 29.8504Z" stroke="#292D32" stroke-width="2" stroke-miterlimit="10" stroke-linecap="round" stroke-linejoin="round"/>
<path d="M29.5667 30.0509L31.25 31.6509L34.7333 28.2842" stroke="#292D32" stroke-width="2" stroke-linecap="round" stroke-linejoin="round"/>
<path d="M5.78333 12.3994L20.5 20.9161L35.1166 12.4494" stroke="#292D32" stroke-width="2" stroke-linecap="round" stroke-linejoin="round"/>
<path d="M20.5 36.0161V20.8994" stroke="#292D32" stroke-width="2" stroke-linecap="round" stroke-linejoin="round"/>
<path d="M36.5166 15.283V24.7164C36.5166 24.7997 36.5167 24.8663 36.5 24.9497C35.3333 23.933 33.8333 23.333 32.1666 23.333C30.6 23.333 29.15 23.883 28 24.7997C26.4666 26.0164 25.5 27.8997 25.5 29.9997C25.5 31.2497 25.85 32.433 26.4666 33.433C26.6166 33.6997 26.8 33.9497 27 34.1831L23.95 35.8664C22.05 36.9331 18.95 36.9331 17.05 35.8664L8.14997 30.933C6.13331 29.8164 4.48334 27.0164 4.48334 24.7164V15.283C4.48334 12.983 6.13331 10.183 8.14997 9.06638L17.05 4.13301C18.95 3.06634 22.05 3.06634 23.95 4.13301L32.85 9.06638C34.8667 10.183 36.5166 12.983 36.5166 15.283Z" stroke="#292D32" stroke-width="2" stroke-linecap="round" stroke-linejoin="round"/>
</svg>
