<svg width="41" height="40" viewBox="0 0 41 40" fill="none" xmlns="http://www.w3.org/2000/svg">
<g clip-path="url(#clip0_3890_80384)">
<path d="M36.8492 6.56646C34.2825 12.9665 27.8492 21.6665 22.4659 25.9831L19.1826 28.6165C18.7659 28.9165 18.3492 29.1831 17.8826 29.3665C17.8826 29.0665 17.8659 28.7331 17.8159 28.4165C17.6326 27.0165 16.9992 25.7165 15.8826 24.5998C14.7492 23.4665 13.3659 22.7998 11.9492 22.6165C11.6159 22.5998 11.2826 22.5665 10.9492 22.5998C11.1326 22.0831 11.4159 21.5998 11.7659 21.1998L14.3659 17.9165C18.6659 12.5331 27.3992 6.06646 33.7825 3.51646C34.7659 3.1498 35.7159 3.41646 36.3159 4.03313C36.9492 4.6498 37.2492 5.5998 36.8492 6.56646Z" stroke="#292D32" stroke-width="2" stroke-linecap="round" stroke-linejoin="round"/>
<path d="M17.8822 29.3663C17.8822 31.1997 17.1822 32.9497 15.8655 34.283C14.8488 35.2997 13.4655 35.9997 11.8155 36.2163L7.71552 36.6663C5.48218 36.9163 3.56552 35.0163 3.83218 32.7497L4.28218 28.6497C4.68218 24.9997 7.73218 22.6663 10.9655 22.5997C11.2988 22.583 11.6488 22.5997 11.9655 22.6163C13.3822 22.7997 14.7655 23.4497 15.8988 24.5997C17.0155 25.7163 17.6488 27.0163 17.8322 28.4163C17.8488 28.733 17.8822 29.0497 17.8822 29.3663Z" stroke="#292D32" stroke-width="2" stroke-linecap="round" stroke-linejoin="round"/>
<path d="M24.2333 24.1167C24.2333 19.7667 20.7 16.2334 16.35 16.2334" stroke="#292D32" stroke-width="2" stroke-linecap="round" stroke-linejoin="round"/>
<path d="M34.0345 21.2168L35.2678 22.4335C37.7512 24.9168 37.7512 27.3668 35.2678 29.8501L30.3345 34.7835C27.8845 37.2335 25.4012 37.2335 22.9512 34.7835" stroke="#292D32" stroke-width="2" stroke-linecap="round"/>
<path d="M5.68387 17.5166C3.23387 15.0333 3.23387 12.5833 5.68387 10.0999L10.6172 5.1666C13.0672 2.7166 15.5505 2.7166 18.0005 5.1666L19.2339 6.39993" stroke="#292D32" stroke-width="2" stroke-linecap="round"/>
<path d="M19.2513 6.41699L13.0847 12.5837" stroke="#292D32" stroke-width="2" stroke-linecap="round"/>
<path d="M34.0333 21.2168L29.1 26.1335" stroke="#292D32" stroke-width="2" stroke-linecap="round"/>
</g>
<defs>
<clipPath id="clip0_3890_80384">
<rect width="40" height="40" fill="white" transform="translate(0.5)"/>
</clipPath>
</defs>
</svg>
