<svg width="41" height="40" viewBox="0 0 41 40" fill="none" xmlns="http://www.w3.org/2000/svg">
<path d="M28.4167 15.2005L25.3333 12.1171C24.1667 10.9505 22.5667 11.0171 21.7833 12.2505L20.0667 14.9671L25.55 20.4505L28.2667 18.7338C29.45 18.0005 29.5167 16.2838 28.4167 15.2005Z" stroke="#292D32" stroke-width="2" stroke-linecap="round" stroke-linejoin="round"/>
<path d="M20.0658 14.9671L16.0825 14.7338C13.8491 14.6004 13.0825 15.2838 12.8325 17.4004L11.8325 25.8504C11.6158 27.6338 12.8991 28.9004 14.6825 28.7004L23.1325 27.7004C25.2491 27.4504 26.0158 26.6838 25.7991 24.4504L25.5658 20.4671" stroke="#292D32" stroke-width="2" stroke-linecap="round" stroke-linejoin="round"/>
<path d="M12.9833 27.5335L16.0667 24.4502" stroke="#292D32" stroke-width="2" stroke-linecap="round" stroke-linejoin="round"/>
<path d="M15.5 36.6663H25.5C33.8333 36.6663 37.1666 33.333 37.1666 24.9997V14.9997C37.1666 6.66634 33.8333 3.33301 25.5 3.33301H15.5C7.16665 3.33301 3.83331 6.66634 3.83331 14.9997V24.9997C3.83331 33.333 7.16665 36.6663 15.5 36.6663Z" stroke="#292D32" stroke-width="2" stroke-linecap="round" stroke-linejoin="round"/>
</svg>
