<svg width="41" height="40" viewBox="0 0 41 40" fill="none" xmlns="http://www.w3.org/2000/svg">
<path d="M15.7666 18.1163C15.6 18.0997 15.4 18.0997 15.2166 18.1163C11.25 17.983 8.09998 14.733 8.09998 10.733C8.09998 6.64967 11.4 3.33301 15.5 3.33301C19.5833 3.33301 22.9 6.64967 22.9 10.733C22.8833 14.733 19.7333 17.983 15.7666 18.1163Z" stroke="#292D32" stroke-width="2" stroke-linecap="round" stroke-linejoin="round"/>
<path d="M27.85 6.66699C31.0834 6.66699 33.6834 9.28366 33.6834 12.5003C33.6834 15.6503 31.1834 18.217 28.0667 18.3337C27.9334 18.317 27.7834 18.317 27.6334 18.3337" stroke="#292D32" stroke-width="2" stroke-linecap="round" stroke-linejoin="round"/>
<path d="M7.43333 24.267C3.39999 26.967 3.39999 31.367 7.43333 34.0503C12.0167 37.117 19.5333 37.117 24.1167 34.0503C28.15 31.3503 28.15 26.9503 24.1167 24.267C19.55 21.217 12.0333 21.217 7.43333 24.267Z" stroke="#292D32" stroke-width="2" stroke-linecap="round" stroke-linejoin="round"/>
<path d="M31.0667 33.333C32.2667 33.083 33.4 32.5997 34.3333 31.883C36.9333 29.933 36.9333 26.7163 34.3333 24.7663C33.4166 24.0663 32.3 23.5997 31.1167 23.333" stroke="#292D32" stroke-width="2" stroke-linecap="round" stroke-linejoin="round"/>
</svg>
