<svg width="41" height="40" viewBox="0 0 41 40" fill="none" xmlns="http://www.w3.org/2000/svg">
<path d="M35.6333 14.2997V25.6997C35.6333 27.5663 34.6333 29.2997 33.0166 30.2497L23.1166 35.9664C21.5 36.8997 19.5 36.8997 17.8666 35.9664L7.96664 30.2497C6.34998 29.3164 5.34998 27.583 5.34998 25.6997V14.2997C5.34998 12.4331 6.34998 10.6997 7.96664 9.74966L17.8666 4.03301C19.4833 3.09967 21.4833 3.09967 23.1166 4.03301L33.0166 9.74966C34.6333 10.6997 35.6333 12.4164 35.6333 14.2997Z" stroke="#292D32" stroke-width="2" stroke-linecap="round" stroke-linejoin="round"/>
<path d="M20.5 18.333C22.6447 18.333 24.3833 16.5944 24.3833 14.4497C24.3833 12.305 22.6447 10.5664 20.5 10.5664C18.3553 10.5664 16.6166 12.305 16.6166 14.4497C16.6166 16.5944 18.3553 18.333 20.5 18.333Z" stroke="#292D32" stroke-width="2" stroke-linecap="round" stroke-linejoin="round"/>
<path d="M27.1666 27.7663C27.1666 24.7663 24.1833 22.333 20.5 22.333C16.8166 22.333 13.8333 24.7663 13.8333 27.7663" stroke="#292D32" stroke-width="2" stroke-linecap="round" stroke-linejoin="round"/>
</svg>
