<svg width="282" height="48" viewBox="0 0 282 48" fill="none" xmlns="http://www.w3.org/2000/svg">
<path d="M17.5078 22.5668C17.2916 20.2671 16.8494 17.7522 15.7781 15.4917C14.5987 13.0061 12.6232 10.863 10.8836 9.11136C8.97688 7.20314 7.32573 5.54934 8.24959 3.6509C8.75084 2.61361 10.1071 1.48825 12.5937 0.744529C15.326 -0.0676897 19.4538 -0.459119 24.6334 0.861959C29.921 2.2124 34.2454 4.66862 37.3708 7.41842C40.4176 10.0899 42.344 13.0159 43.4939 15.6483C45.7249 20.776 45.3514 24.8273 45.0959 27.3031C44.5848 32.3428 45.0566 32.1471 47.4841 30.1312C49.9805 28.0468 43.2776 38.3023 30.3829 43.8998C27.2968 45.2306 23.9945 46.2973 20.702 46.9921C17.5177 47.6673 14.3824 48 11.5421 48C8.83929 48 6.43136 47.7064 4.51484 47.2073C2.74575 46.7278 1.41893 46.082 0.652318 45.3872C-0.664673 44.164 0.14125 42.7842 1.92017 41.7762C3.69909 40.7781 6.23479 39.9659 8.8786 38.5176C11.3062 37.1867 13.7928 35.2296 15.4144 32.4798C16.8985 29.9355 17.8813 26.53 17.5078 22.5668Z" fill="url(#paint0_linear_1647_78820)"/>
<path style="mix-blend-mode:color-dodge" d="M0.652318 45.387C2.08725 46.7081 5.54681 47.7943 10.0777 47.9705C15.1196 48.176 21.2131 47.2463 26.9528 45.2403C32.9481 43.1363 38.2849 39.907 41.9606 36.8147C45.6856 33.6637 47.6611 30.8356 47.9461 30.0625C47.9461 30.0625 42.9238 36.8245 34.7958 41.1009C30.9136 43.1461 26.599 44.6042 22.8446 45.1522C19.3359 45.661 16.4464 45.3968 15.0213 44.3791C13.7338 43.4495 15.2277 42.0305 17.3801 39.9462C19.3556 38.0379 21.9306 35.3958 23.5326 32.0882C25.0265 29.0057 25.5572 25.2088 24.9577 21.9599C24.3483 18.6621 22.6874 15.8145 21.3409 13.7986C19.6013 11.2249 17.4685 9.04271 15.2375 7.34977C12.8394 5.5394 10.3627 4.3064 8.34788 3.47461C7.51247 4.93269 8.27908 6.30269 9.48796 7.66292C10.6379 8.94485 12.1907 10.3051 13.547 11.9882C14.7952 13.5344 15.8469 15.3643 16.4857 17.2334C17.0754 18.9948 17.3506 20.8346 17.5078 22.5666C17.8813 26.5299 16.8985 29.9353 15.4144 32.4796C13.7928 35.2294 11.3062 37.1866 8.8786 38.5174C6.23479 39.9657 3.69909 40.7779 1.92017 41.7761C0.14125 42.784 -0.664673 44.1638 0.652318 45.387Z" fill="url(#paint1_radial_1647_78820)"/>
<path d="M11.8859 39.9363C12.1021 38.6935 14.4707 37.0592 16.4659 34.2703C18.2448 31.7651 19.6699 28.1444 19.7583 24.2888C19.837 20.3843 18.5593 16.4798 16.7607 13.6321C14.7361 10.4028 12.1119 8.35759 12.1021 6.45915C12.0923 5.49036 12.9375 4.63899 14.6771 4.2182C16.5543 3.75827 19.4242 3.78763 22.7658 4.88364C26.1566 5.99921 29.8717 8.23037 32.4762 11.7435C34.9627 15.0902 36.2011 19.6504 35.3558 24.054C34.5204 28.4086 31.9061 32.137 28.9183 34.7987C25.9502 37.4409 22.697 39.0849 19.9058 40.0341C17.2423 40.9344 15.0702 41.1986 13.6648 41.0812C12.3871 40.9833 11.7876 40.543 11.8859 39.9363Z" fill="url(#paint2_radial_1647_78820)"/>
<path d="M13.6061 38.7921C13.5865 37.8135 15.1885 36.375 16.7119 34.1732C18.1173 32.1476 19.4835 29.3684 20.142 26.2565C20.8004 23.1251 20.712 19.9349 20.3483 17.3319C19.9552 14.5136 19.2181 12.2825 20.2697 11.0397C21.341 9.77731 24.7219 9.91431 28.1815 12.8794C31.5919 15.7956 33.9802 22.0389 31.5919 27.8418C29.1742 33.7329 23.6801 37.246 19.6505 38.7138C15.9354 40.0545 13.6356 39.7609 13.6061 38.7921Z" fill="white"/>
<path opacity="0.4" d="M38.4425 37.0394C40.5064 37.284 45.853 32.7532 47.9464 30.0621C48.0546 29.7587 47.917 29.7587 47.4845 30.1306C45.0569 32.1465 44.5852 32.3422 45.0962 27.3025C45.3518 24.8267 45.7253 20.7754 43.4942 15.6477C42.3443 13.0153 40.418 10.0894 37.3712 7.41784C34.2458 4.66804 29.9214 2.21181 24.6337 0.861375C20.9088 -0.0878446 17.6851 -0.136775 15.1691 0.205727C12.8005 0.528657 11.0805 1.1843 9.94043 1.91824C12.3778 1.31152 15.4639 1.00816 18.9923 1.42895C22.6681 1.86931 26.7173 3.08274 30.4619 5.41176C35.7004 8.67042 38.9634 13.2599 40.3197 17.458C41.6465 21.5583 41.3615 25.3551 40.703 28.2419C39.3565 34.1623 37.0862 36.8632 38.4425 37.0394Z" fill="url(#paint3_radial_1647_78820)"/>
<path d="M65.344 13.164C71.904 13.164 77.152 16.012 77.152 24.396C77.152 32.812 72 35.5 65.44 35.5C61.152 35.5 58.176 35.5 58.176 35.5V13.164C58.176 13.164 63.456 13.164 65.344 13.164ZM65.056 34.444C69.408 34.444 72.672 32.908 72.672 24.3C72.672 16.3 69.216 14.252 64.928 14.252C63.872 14.252 63.424 14.252 62.688 14.252C62.688 16.46 62.656 32.364 62.656 34.444C64.288 34.444 63.552 34.444 65.056 34.444ZM81.5275 18.636C82.8715 18.636 83.7355 19.148 83.9915 20.396C84.9515 18.7 86.7115 18.124 88.6635 18.124C92.2475 18.124 94.1035 20.012 94.1035 22.38L89.9435 24.236C89.9435 22.828 89.8155 19.34 87.3835 19.34C85.2715 19.34 84.3435 22.22 84.3435 25.324V35.5H79.8315V23.052C79.8315 22.124 79.8315 18.636 78.4875 18.636C78.4875 18.636 80.9515 18.636 81.5275 18.636ZM105.939 34.668C109.939 34.668 111.763 31.116 112.627 28.492V33.772C111.603 34.7 108.787 36.044 105.363 36.044C100.307 36.044 95.315 33.612 95.315 27.148C95.315 22.604 98.579 18.38 105.299 18.38C110.259 18.38 112.691 21.74 112.691 24.908H99.923C99.827 25.484 99.795 25.932 99.795 26.86C99.795 30.508 101.235 34.668 105.939 34.668ZM105.555 19.436C102.643 19.436 100.787 21.036 100.243 23.5H108.979C108.979 21.036 107.859 19.436 105.555 19.436ZM132.938 31.756C132.938 33.58 133.514 34.092 133.994 34.092C134.282 34.092 134.538 33.964 134.666 33.772C134.442 34.604 133.002 35.468 131.402 35.468C130.186 35.468 129.066 34.956 128.49 33.804C127.114 35.372 124.65 35.948 122.634 35.948C118.41 35.948 114.506 33.932 114.506 30.156C114.506 26.508 118.282 24.62 123.242 24.62C125.162 24.62 127.338 25.1 128.426 25.74V23.34C128.426 21.804 128.074 19.34 125.258 19.34C123.082 19.34 121.61 20.876 121.61 24.076L117.45 22.348C118.986 18.508 123.818 18.38 125.258 18.38C132.266 18.38 132.938 22.412 132.938 24.876C132.938 27.82 132.938 29.868 132.938 31.756ZM128.426 30.7V27.756C127.818 26.476 125.706 25.708 123.978 25.708C120.49 25.708 119.082 27.692 119.082 30.06C119.082 32.78 121.322 34.316 124.042 34.316C127.082 34.316 128.202 31.884 128.426 30.7ZM144.783 18.38C147.855 18.412 149.295 19.18 150.095 20.652C150.895 19.212 152.015 18.38 154.479 18.38C159.375 18.38 160.623 20.908 160.623 23.788V35.5H156.111C156.111 35.5 156.111 28.62 156.111 24.108C156.111 21.644 155.919 19.596 153.391 19.596C151.247 19.596 150.671 21.708 150.639 24.524L150.671 35.5H146.159C146.159 35.5 146.127 28.652 146.127 24.14C146.127 21.868 145.871 19.596 143.407 19.596C141.359 19.596 140.687 22.124 140.687 24.492V35.5H136.175V23.052C136.175 22.156 136.111 18.924 134.831 18.924C134.831 18.924 137.615 18.924 137.871 18.924C139.311 18.924 139.919 19.404 140.335 20.268C141.295 18.86 142.735 18.38 144.783 18.38ZM182.625 13.164L191.745 35.532H187.265L184.033 27.596H174.945L171.713 35.532H170.625L179.777 13.164H182.625ZM175.201 26.956H183.777L179.489 16.492L175.201 26.956ZM194.605 18.892C194.605 18.604 194.605 18.348 194.605 17.836C194.605 12.556 197.805 11.308 201.613 11.276C205.581 11.244 207.309 13.836 207.501 15.02L203.469 16.556C203.437 16.46 204.045 11.98 201.485 11.98C198.797 11.98 199.117 16.108 199.117 18.892H202.381V19.564H199.117C199.117 25.324 199.085 35.5 199.085 35.5H194.573L194.605 19.564H191.277V18.892H194.605ZM209.168 18.892C209.168 18.604 209.168 18.348 209.168 17.836C209.168 12.556 212.368 11.308 216.176 11.276C220.144 11.244 221.872 13.836 222.064 15.02L218.032 16.556C218 16.46 218.608 11.98 216.048 11.98C213.36 11.98 213.68 16.108 213.68 18.892H216.944V19.564H213.68C213.68 25.324 213.648 35.5 213.648 35.5H209.136L209.168 19.564H205.84V18.892H209.168ZM237.657 31.756C237.657 33.58 238.233 34.092 238.713 34.092C239.001 34.092 239.257 33.964 239.385 33.772C239.161 34.604 237.721 35.468 236.121 35.468C234.905 35.468 233.785 34.956 233.209 33.804C231.833 35.372 229.369 35.948 227.353 35.948C223.129 35.948 219.225 33.932 219.225 30.156C219.225 26.508 223.001 24.62 227.961 24.62C229.881 24.62 232.057 25.1 233.145 25.74V23.34C233.145 21.804 232.793 19.34 229.977 19.34C227.801 19.34 226.329 20.876 226.329 24.076L222.169 22.348C223.705 18.508 228.537 18.38 229.977 18.38C236.985 18.38 237.657 22.412 237.657 24.876C237.657 27.82 237.657 29.868 237.657 31.756ZM233.145 30.7V27.756C232.537 26.476 230.425 25.708 228.697 25.708C225.209 25.708 223.801 27.692 223.801 30.06C223.801 32.78 226.041 34.316 228.761 34.316C231.801 34.316 232.921 31.884 233.145 30.7ZM242.781 11.948C244.253 11.948 245.469 13.164 245.469 14.636C245.469 16.108 244.253 17.292 242.781 17.292C241.309 17.292 240.125 16.108 240.125 14.636C240.125 13.164 241.309 11.948 242.781 11.948ZM242.781 19.18C244.765 19.244 245.373 20.172 245.373 22.86C245.373 33.292 245.405 35.5 245.405 35.5H240.893V23.308C240.893 22.412 240.829 19.18 239.549 19.18C239.549 19.18 242.397 19.18 242.781 19.18ZM249.434 18.636C250.778 18.636 251.642 19.148 251.898 20.396C252.858 18.7 254.618 18.124 256.57 18.124C260.154 18.124 262.01 20.012 262.01 22.38L257.85 24.236C257.85 22.828 257.722 19.34 255.29 19.34C253.178 19.34 252.25 22.22 252.25 25.324V35.5H247.738V23.052C247.738 22.124 247.738 18.636 246.394 18.636C246.394 18.636 248.858 18.636 249.434 18.636ZM276.112 32.172C276.016 27.692 263.952 28.492 263.952 22.604C263.952 20.14 266.768 18.38 271.6 18.38C274.064 18.38 277.552 18.956 278.992 20.14V23.948C277.776 21.26 275.12 19.212 271.824 19.212C269.456 19.212 267.92 20.108 267.92 21.9C267.92 25.452 280.56 25.26 280.56 31.692C280.56 34.924 277.488 36.012 272.176 36.012C271.152 36.012 265.68 35.628 263.44 33.9V28.908C264.368 31.532 267.632 35.02 272.144 35.02C275.152 35.02 276.048 33.356 276.112 32.172Z" fill="#822DA4"/>
<defs>
<linearGradient id="paint0_linear_1647_78820" x1="98.4682" y1="-32.8678" x2="11.1136" y2="108.942" gradientUnits="userSpaceOnUse">
<stop stop-color="#FF001C"/>
<stop offset="0.219" stop-color="#FF009D"/>
<stop offset="0.64" stop-color="#00AADD"/>
<stop offset="0.898" stop-color="#E9D013"/>
<stop offset="1" stop-color="#FFD400"/>
</linearGradient>
<radialGradient id="paint1_radial_1647_78820" cx="0" cy="0" r="1" gradientUnits="userSpaceOnUse" gradientTransform="translate(26.5 8) rotate(25.6493) scale(14.7815 14.7395)">
<stop offset="0.311" stop-color="#E0B0FF"/>
<stop offset="1" stop-color="#822DA4"/>
</radialGradient>
<radialGradient id="paint2_radial_1647_78820" cx="0" cy="0" r="1" gradientUnits="userSpaceOnUse" gradientTransform="translate(-9.05271 15.5333) rotate(-24.4057) scale(58.4727 58.3063)">
<stop stop-color="white"/>
<stop offset="0.235" stop-color="#B1B1B1"/>
<stop offset="0.383" stop-color="#9FA1A4"/>
<stop offset="0.572" stop-color="#E5E6E8"/>
<stop offset="0.704" stop-color="white"/>
<stop offset="0.924" stop-color="#9FA1A4"/>
</radialGradient>
<radialGradient id="paint3_radial_1647_78820" cx="0" cy="0" r="1" gradientUnits="userSpaceOnUse" gradientTransform="translate(0.577897 22.6493) scale(53.7082 53.4758)">
<stop offset="0.25" stop-color="#822DA4"/>
<stop offset="1" stop-color="white"/>
</radialGradient>
</defs>
</svg>
