<svg width="122" height="42" viewBox="0 0 122 42" fill="none" xmlns="http://www.w3.org/2000/svg">
<rect x="0.81875" y="1.39297" width="120.488" height="39.4875" rx="6.58125" fill="black"/>
<rect x="0.81875" y="1.39297" width="120.488" height="39.4875" rx="6.58125" stroke="#A6A6A6" stroke-width="1.0125"/>
<path d="M82.8575 20.3276V22.6472H81.4035V24.1685H82.8575V29.3373C82.8575 31.1022 83.6559 31.8082 85.6646 31.8082C86.0176 31.8082 86.3538 31.7662 86.648 31.7157V30.2113C86.3958 30.2365 86.2361 30.2533 85.9588 30.2533C85.0595 30.2533 84.6645 29.8331 84.6645 28.875V24.1685H86.648V22.6472H84.6645V20.3276H82.8575Z" fill="white"/>
<path d="M91.765 31.9343C94.4376 31.9343 96.0765 30.1441 96.0765 27.1773C96.0765 24.2273 94.4292 22.4287 91.765 22.4287C89.0923 22.4287 87.445 24.2273 87.445 27.1773C87.445 30.1441 89.0839 31.9343 91.765 31.9343ZM91.765 30.329C90.1933 30.329 89.3109 29.1776 89.3109 27.1773C89.3109 25.1938 90.1933 24.034 91.765 24.034C93.3282 24.034 94.2191 25.1938 94.2191 27.1773C94.2191 29.1692 93.3282 30.329 91.765 30.329Z" fill="white"/>
<path d="M97.4787 31.7578H99.2857V26.3536C99.2857 25.0677 100.252 24.2021 101.622 24.2021C101.942 24.2021 102.479 24.2609 102.631 24.3113V22.5296C102.437 22.4791 102.093 22.4539 101.824 22.4539C100.63 22.4539 99.6135 23.1095 99.3529 24.0088H99.2185V22.6052H97.4787V31.7578Z" fill="white"/>
<path d="M107.117 23.9667C108.454 23.9667 109.328 24.8997 109.37 26.3368H104.747C104.848 24.9081 105.781 23.9667 107.117 23.9667ZM109.361 29.2868C109.025 30.0012 108.277 30.3962 107.185 30.3962C105.739 30.3962 104.806 29.3793 104.747 27.774V27.6732H111.21V27.0428C111.21 24.1685 109.672 22.4287 107.126 22.4287C104.546 22.4287 102.907 24.2861 102.907 27.2109C102.907 30.1357 104.512 31.9343 107.134 31.9343C109.227 31.9343 110.689 30.9257 111.101 29.2868H109.361Z" fill="white"/>
<path d="M71.0076 28.3779C71.147 30.6253 73.0199 32.0626 75.8074 32.0626C78.7866 32.0626 80.6508 30.5556 80.6508 28.1514C80.6508 26.2611 79.588 25.2158 77.0096 24.6147L75.6245 24.275C73.9868 23.8917 73.3248 23.3777 73.3248 22.4805C73.3248 21.348 74.3527 20.6076 75.8945 20.6076C77.358 20.6076 78.3685 21.3306 78.5514 22.4892H80.4504C80.3372 20.3724 78.473 18.8828 75.9207 18.8828C73.1767 18.8828 71.3474 20.3724 71.3474 22.6111C71.3474 24.4579 72.384 25.5555 74.6576 26.0869L76.2778 26.4789C77.9416 26.8709 78.6734 27.4458 78.6734 28.404C78.6734 29.519 77.5235 30.3291 75.9555 30.3291C74.2743 30.3291 73.107 29.5713 72.9415 28.3779H71.0076Z" fill="white"/>
<path d="M52.2892 22.4539C51.0453 22.4539 49.9696 23.0759 49.4149 24.118H49.2804V22.6052H47.5406V34.8002H49.3476V30.371H49.4905C49.9696 31.3375 51.0033 31.909 52.306 31.909C54.6173 31.909 56.0881 30.0853 56.0881 27.1773C56.0881 24.2693 54.6173 22.4539 52.2892 22.4539ZM51.7765 30.287C50.2637 30.287 49.314 29.0935 49.314 27.1857C49.314 25.2695 50.2637 24.076 51.7849 24.076C53.3146 24.076 54.2307 25.2442 54.2307 27.1773C54.2307 29.1187 53.3146 30.287 51.7765 30.287Z" fill="white"/>
<path d="M62.411 22.4539C61.1671 22.4539 60.0913 23.0759 59.5366 24.118H59.4021V22.6052H57.6624V34.8002H59.4694V30.371H59.6122C60.0913 31.3375 61.1251 31.909 62.4278 31.909C64.739 31.909 66.2098 30.0853 66.2098 27.1773C66.2098 24.2693 64.739 22.4539 62.411 22.4539ZM61.8983 30.287C60.3855 30.287 59.4358 29.0935 59.4358 27.1857C59.4358 25.2695 60.3855 24.076 61.9067 24.076C63.4363 24.076 64.3524 25.2442 64.3524 27.1773C64.3524 29.1187 63.4363 30.287 61.8983 30.287Z" fill="white"/>
<path d="M44.2986 31.7578H46.3718L41.8334 19.1877H39.734L35.1956 31.7578H37.1991L38.3577 28.4214H43.1488L44.2986 31.7578ZM40.6835 21.47H40.8316L42.6522 26.7837H38.8542L40.6835 21.47Z" fill="white"/>
<path d="M36.4092 9.70656V15.7704H38.5986C40.4055 15.7704 41.4519 14.6568 41.4519 12.7196C41.4519 10.8118 40.3971 9.70656 38.5986 9.70656H36.4092ZM37.3505 10.5638H38.4935C39.75 10.5638 40.4938 11.3623 40.4938 12.7322C40.4938 14.1232 39.7626 14.9132 38.4935 14.9132H37.3505V10.5638Z" fill="white"/>
<path d="M44.6566 15.8587C45.9929 15.8587 46.8123 14.9636 46.8123 13.4802C46.8123 12.0052 45.9887 11.1059 44.6566 11.1059C43.3202 11.1059 42.4966 12.0052 42.4966 13.4802C42.4966 14.9636 43.316 15.8587 44.6566 15.8587ZM44.6566 15.0561C43.8707 15.0561 43.4295 14.4803 43.4295 13.4802C43.4295 12.4885 43.8707 11.9086 44.6566 11.9086C45.4382 11.9086 45.8836 12.4885 45.8836 13.4802C45.8836 14.4761 45.4382 15.0561 44.6566 15.0561Z" fill="white"/>
<path d="M53.7906 11.1942H52.8871L52.0719 14.6863H52.0004L51.0591 11.1942H50.1935L49.2522 14.6863H49.1849L48.3655 11.1942H47.4494L48.7101 15.7704H49.6388L50.5801 12.4002H50.6515L51.597 15.7704H52.5341L53.7906 11.1942Z" fill="white"/>
<path d="M54.8311 15.7704H55.7346V13.0936C55.7346 12.3792 56.159 11.9338 56.8272 11.9338C57.4953 11.9338 57.8147 12.2994 57.8147 13.0348V15.7704H58.7182V12.8078C58.7182 11.7195 58.1551 11.1059 57.1339 11.1059C56.4448 11.1059 55.9909 11.4127 55.7682 11.9212H55.701V11.1942H54.8311V15.7704Z" fill="white"/>
<path d="M60.1411 15.7704H61.0446V9.4082H60.1411V15.7704Z" fill="white"/>
<path d="M64.4425 15.8587C65.7789 15.8587 66.5983 14.9636 66.5983 13.4802C66.5983 12.0052 65.7746 11.1059 64.4425 11.1059C63.1062 11.1059 62.2826 12.0052 62.2826 13.4802C62.2826 14.9636 63.102 15.8587 64.4425 15.8587ZM64.4425 15.0561C63.6567 15.0561 63.2155 14.4803 63.2155 13.4802C63.2155 12.4885 63.6567 11.9086 64.4425 11.9086C65.2241 11.9086 65.6696 12.4885 65.6696 13.4802C65.6696 14.4761 65.2241 15.0561 64.4425 15.0561Z" fill="white"/>
<path d="M69.2903 15.0855C68.7986 15.0855 68.4414 14.8459 68.4414 14.4341C68.4414 14.0307 68.7272 13.8164 69.3575 13.7744L70.4753 13.7029V14.0853C70.4753 14.6526 69.971 15.0855 69.2903 15.0855ZM69.0591 15.8461C69.6601 15.8461 70.1601 15.5855 70.4333 15.1275H70.5047V15.7704H71.3746V12.644C71.3746 11.6774 70.7274 11.1059 69.5802 11.1059C68.5423 11.1059 67.8027 11.6102 67.7102 12.396H68.5843C68.6851 12.0724 69.0339 11.8875 69.5382 11.8875C70.1559 11.8875 70.4753 12.1607 70.4753 12.644V13.039L69.2356 13.1104C68.1472 13.1776 67.5337 13.6525 67.5337 14.4761C67.5337 15.3124 68.1767 15.8461 69.0591 15.8461Z" fill="white"/>
<path d="M74.4406 15.8461C75.0709 15.8461 75.6046 15.5477 75.8777 15.0477H75.9492V15.7704H76.8148V9.4082H75.9114V11.9212H75.8441C75.5962 11.4169 75.0667 11.1185 74.4406 11.1185C73.2849 11.1185 72.5411 12.0346 72.5411 13.4802C72.5411 14.93 73.2765 15.8461 74.4406 15.8461ZM74.6969 11.9296C75.4533 11.9296 75.9282 12.5305 75.9282 13.4844C75.9282 14.4425 75.4575 15.035 74.6969 15.035C73.9321 15.035 73.474 14.4509 73.474 13.4802C73.474 12.5179 73.9363 11.9296 74.6969 11.9296Z" fill="white"/>
<path d="M82.6737 15.8587C84.01 15.8587 84.8294 14.9636 84.8294 13.4802C84.8294 12.0052 84.0058 11.1059 82.6737 11.1059C81.3373 11.1059 80.5137 12.0052 80.5137 13.4802C80.5137 14.9636 81.3331 15.8587 82.6737 15.8587ZM82.6737 15.0561C81.8878 15.0561 81.4466 14.4803 81.4466 13.4802C81.4466 12.4885 81.8878 11.9086 82.6737 11.9086C83.4553 11.9086 83.9007 12.4885 83.9007 13.4802C83.9007 14.4761 83.4553 15.0561 82.6737 15.0561Z" fill="white"/>
<path d="M86.0254 15.7704H86.9289V13.0936C86.9289 12.3792 87.3533 11.9338 88.0215 11.9338C88.6896 11.9338 89.009 12.2994 89.009 13.0348V15.7704H89.9125V12.8078C89.9125 11.7195 89.3494 11.1059 88.3282 11.1059C87.6391 11.1059 87.1852 11.4127 86.9625 11.9212H86.8953V11.1942H86.0254V15.7704Z" fill="white"/>
<path d="M94.0736 10.0554V11.2152H93.3466V11.9758H94.0736V14.5602C94.0736 15.4427 94.4728 15.7957 95.4771 15.7957C95.6536 15.7957 95.8217 15.7746 95.9688 15.7494V14.9972C95.8427 15.0098 95.7629 15.0182 95.6242 15.0182C95.1746 15.0182 94.9771 14.8081 94.9771 14.3291V11.9758H95.9688V11.2152H94.9771V10.0554H94.0736Z" fill="white"/>
<path d="M97.1816 15.7704H98.0851V13.0978C98.0851 12.4044 98.4969 11.938 99.2365 11.938C99.8752 11.938 100.216 12.3078 100.216 13.039V15.7704H101.119V12.8162C101.119 11.7279 100.518 11.1101 99.5433 11.1101C98.8541 11.1101 98.3708 11.4169 98.1481 11.9296H98.0767V9.4082H97.1816V15.7704Z" fill="white"/>
<path d="M104.378 11.8749C105.047 11.8749 105.484 12.3414 105.505 13.06H103.193C103.244 12.3456 103.71 11.8749 104.378 11.8749ZM105.5 14.535C105.332 14.8922 104.958 15.0897 104.412 15.0897C103.689 15.0897 103.223 14.5812 103.193 13.7786V13.7281H106.425V13.413C106.425 11.9758 105.656 11.1059 104.383 11.1059C103.092 11.1059 102.273 12.0346 102.273 13.497C102.273 14.9594 103.076 15.8587 104.387 15.8587C105.433 15.8587 106.164 15.3544 106.37 14.535H105.5Z" fill="white"/>
<path d="M25.391 21.4414C25.4129 19.7394 26.3269 18.1289 27.777 17.2375C26.8622 15.931 25.33 15.1027 23.7359 15.0528C22.0357 14.8743 20.3874 16.0702 19.521 16.0702C18.6378 16.0702 17.3039 15.0705 15.8674 15.1001C13.995 15.1606 12.2495 16.2251 11.3386 17.8621C9.38039 21.2523 10.841 26.2349 12.7168 28.9753C13.6553 30.3172 14.7521 31.8162 16.1873 31.7631C17.5917 31.7048 18.1162 30.8675 19.8114 30.8675C21.4909 30.8675 21.983 31.7631 23.4473 31.7293C24.9543 31.7048 25.9037 30.3814 26.8093 29.0267C27.4836 28.0706 28.0025 27.0138 28.3467 25.8956C26.5757 25.1465 25.393 23.3643 25.391 21.4414Z" fill="white"/>
<path d="M22.6252 13.2506C23.4468 12.2642 23.8516 10.9963 23.7536 9.71631C22.4983 9.84816 21.3387 10.4481 20.5059 11.3967C19.6916 12.3234 19.2678 13.569 19.3479 14.8001C20.6037 14.813 21.8382 14.2293 22.6252 13.2506Z" fill="white"/>
</svg>
