<svg width="223" height="26" viewBox="0 0 223 26" fill="none" xmlns="http://www.w3.org/2000/svg">
<path d="M7.344 2.164C13.904 2.164 19.152 5.012 19.152 13.396C19.152 21.812 14 24.5 7.44 24.5C3.152 24.5 0.176 24.5 0.176 24.5V2.164C0.176 2.164 5.456 2.164 7.344 2.164ZM7.056 23.444C11.408 23.444 14.672 21.908 14.672 13.3C14.672 5.3 11.216 3.252 6.928 3.252C5.872 3.252 5.424 3.252 4.688 3.252C4.688 5.46 4.656 21.364 4.656 23.444C6.288 23.444 5.552 23.444 7.056 23.444ZM23.5275 7.636C24.8715 7.636 25.7355 8.148 25.9915 9.396C26.9515 7.7 28.7115 7.124 30.6635 7.124C34.2475 7.124 36.1035 9.012 36.1035 11.38L31.9435 13.236C31.9435 11.828 31.8155 8.34 29.3835 8.34C27.2715 8.34 26.3435 11.22 26.3435 14.324V24.5H21.8315V12.052C21.8315 11.124 21.8315 7.636 20.4875 7.636C20.4875 7.636 22.9515 7.636 23.5275 7.636ZM47.939 23.668C51.939 23.668 53.763 20.116 54.627 17.492V22.772C53.603 23.7 50.787 25.044 47.363 25.044C42.307 25.044 37.315 22.612 37.315 16.148C37.315 11.604 40.579 7.38 47.299 7.38C52.259 7.38 54.691 10.74 54.691 13.908H41.923C41.827 14.484 41.795 14.932 41.795 15.86C41.795 19.508 43.235 23.668 47.939 23.668ZM47.555 8.436C44.643 8.436 42.787 10.036 42.243 12.5H50.979C50.979 10.036 49.859 8.436 47.555 8.436ZM74.9383 20.756C74.9383 22.58 75.5143 23.092 75.9943 23.092C76.2823 23.092 76.5383 22.964 76.6663 22.772C76.4423 23.604 75.0023 24.468 73.4023 24.468C72.1863 24.468 71.0662 23.956 70.4903 22.804C69.1143 24.372 66.6503 24.948 64.6343 24.948C60.4103 24.948 56.5063 22.932 56.5063 19.156C56.5063 15.508 60.2823 13.62 65.2423 13.62C67.1623 13.62 69.3383 14.1 70.4263 14.74V12.34C70.4263 10.804 70.0743 8.34 67.2583 8.34C65.0823 8.34 63.6103 9.876 63.6103 13.076L59.4503 11.348C60.9863 7.508 65.8183 7.38 67.2583 7.38C74.2663 7.38 74.9383 11.412 74.9383 13.876C74.9383 16.82 74.9383 18.868 74.9383 20.756ZM70.4263 19.7V16.756C69.8183 15.476 67.7063 14.708 65.9783 14.708C62.4903 14.708 61.0823 16.692 61.0823 19.06C61.0823 21.78 63.3223 23.316 66.0423 23.316C69.0823 23.316 70.2023 20.884 70.4263 19.7ZM86.7833 7.38C89.8553 7.412 91.2953 8.18 92.0953 9.652C92.8953 8.212 94.0153 7.38 96.4793 7.38C101.375 7.38 102.623 9.908 102.623 12.788V24.5H98.1113C98.1113 24.5 98.1113 17.62 98.1113 13.108C98.1113 10.644 97.9193 8.596 95.3913 8.596C93.2473 8.596 92.6713 10.708 92.6393 13.524L92.6713 24.5H88.1593C88.1593 24.5 88.1273 17.652 88.1273 13.14C88.1273 10.868 87.8713 8.596 85.4073 8.596C83.3593 8.596 82.6873 11.124 82.6873 13.492V24.5H78.1753V12.052C78.1753 11.156 78.1113 7.924 76.8313 7.924C76.8313 7.924 79.6153 7.924 79.8713 7.924C81.3113 7.924 81.9193 8.404 82.3353 9.268C83.2953 7.86 84.7353 7.38 86.7833 7.38ZM124.625 2.164L133.745 24.532H129.265L126.033 16.596H116.945L113.713 24.532H112.625L121.777 2.164H124.625ZM117.201 15.956H125.777L121.489 5.492L117.201 15.956ZM136.605 7.892C136.605 7.604 136.605 7.348 136.605 6.836C136.605 1.556 139.805 0.307999 143.613 0.275999C147.581 0.243999 149.309 2.836 149.501 4.02L145.469 5.556C145.437 5.46 146.045 0.98 143.485 0.98C140.797 0.98 141.117 5.108 141.117 7.892H144.381V8.564H141.117C141.117 14.324 141.085 24.5 141.085 24.5H136.573L136.605 8.564H133.277V7.892H136.605ZM151.168 7.892C151.168 7.604 151.168 7.348 151.168 6.836C151.168 1.556 154.368 0.307999 158.176 0.275999C162.144 0.243999 163.872 2.836 164.064 4.02L160.032 5.556C160 5.46 160.608 0.98 158.048 0.98C155.36 0.98 155.68 5.108 155.68 7.892H158.944V8.564H155.68C155.68 14.324 155.648 24.5 155.648 24.5H151.136L151.168 8.564H147.84V7.892H151.168ZM179.657 20.756C179.657 22.58 180.233 23.092 180.713 23.092C181.001 23.092 181.257 22.964 181.385 22.772C181.161 23.604 179.721 24.468 178.121 24.468C176.905 24.468 175.785 23.956 175.209 22.804C173.833 24.372 171.369 24.948 169.353 24.948C165.129 24.948 161.225 22.932 161.225 19.156C161.225 15.508 165.001 13.62 169.961 13.62C171.881 13.62 174.057 14.1 175.145 14.74V12.34C175.145 10.804 174.793 8.34 171.977 8.34C169.801 8.34 168.329 9.876 168.329 13.076L164.169 11.348C165.705 7.508 170.537 7.38 171.977 7.38C178.985 7.38 179.657 11.412 179.657 13.876C179.657 16.82 179.657 18.868 179.657 20.756ZM175.145 19.7V16.756C174.537 15.476 172.425 14.708 170.697 14.708C167.209 14.708 165.801 16.692 165.801 19.06C165.801 21.78 168.041 23.316 170.761 23.316C173.801 23.316 174.921 20.884 175.145 19.7ZM184.781 0.947998C186.253 0.947998 187.469 2.164 187.469 3.636C187.469 5.108 186.253 6.292 184.781 6.292C183.309 6.292 182.125 5.108 182.125 3.636C182.125 2.164 183.309 0.947998 184.781 0.947998ZM184.781 8.18C186.765 8.244 187.373 9.172 187.373 11.86C187.373 22.292 187.405 24.5 187.405 24.5H182.893V12.308C182.893 11.412 182.829 8.18 181.549 8.18C181.549 8.18 184.397 8.18 184.781 8.18ZM191.434 7.636C192.778 7.636 193.642 8.148 193.898 9.396C194.858 7.7 196.618 7.124 198.57 7.124C202.154 7.124 204.01 9.012 204.01 11.38L199.85 13.236C199.85 11.828 199.722 8.34 197.29 8.34C195.178 8.34 194.25 11.22 194.25 14.324V24.5H189.738V12.052C189.738 11.124 189.738 7.636 188.394 7.636C188.394 7.636 190.858 7.636 191.434 7.636ZM218.112 21.172C218.016 16.692 205.952 17.492 205.952 11.604C205.952 9.14 208.768 7.38 213.6 7.38C216.064 7.38 219.552 7.956 220.992 9.14V12.948C219.776 10.26 217.12 8.212 213.824 8.212C211.456 8.212 209.92 9.108 209.92 10.9C209.92 14.452 222.56 14.26 222.56 20.692C222.56 23.924 219.488 25.012 214.176 25.012C213.152 25.012 207.68 24.628 205.44 22.9V17.908C206.368 20.532 209.632 24.02 214.144 24.02C217.152 24.02 218.048 22.356 218.112 21.172Z" fill="#822DA4"/>
</svg>
