<svg width="120" height="150" viewBox="0 0 120 150" fill="none" xmlns="http://www.w3.org/2000/svg">
<path d="M113.674 71.3975H6.32589C4.64874 71.3993 3.04083 72.059 1.8549 73.2317C0.668975 74.4045 0.00189183 75.9945 0 77.653V143.744C0.00190683 145.403 0.668988 146.993 1.85491 148.165C3.04083 149.338 4.64874 149.998 6.32589 150H113.674C115.351 149.998 116.959 149.338 118.145 148.166C119.331 146.993 119.998 145.403 120 143.744V77.653C119.998 75.9945 119.331 74.4045 118.145 73.2317C116.959 72.059 115.351 71.3993 113.674 71.3975Z" fill="#822DA4"/>
<path d="M113.674 71.3975H6.32589C4.64874 71.3993 3.04083 72.059 1.8549 73.2317C0.668975 74.4045 0.00189183 75.9945 0 77.653V143.744C0.00190683 145.403 0.668988 146.993 1.85491 148.165C3.04083 149.338 4.64874 149.998 6.32589 150H113.674C115.351 149.998 116.959 149.338 118.145 148.166C119.331 146.993 119.998 145.403 120 143.744V77.653C119.998 75.9945 119.331 74.4045 118.145 73.2317C116.959 72.059 115.351 71.3993 113.674 71.3975ZM115.75 118.872C115.724 125.6 113.033 132.051 108.253 136.839C103.473 141.628 96.9861 144.374 90.1829 144.487C79.2905 144.627 96.2096 144.682 83.0725 144.682C53.0324 144.682 21.7088 144.398 10.0216 144.214C8.48394 144.183 7.01958 143.558 5.9412 142.474C4.86282 141.389 4.25586 139.931 4.24992 138.41V77.6579C4.25053 77.1133 4.46923 76.5911 4.85819 76.2055C5.24715 75.8199 5.77471 75.6023 6.32546 75.6004H113.67C114.22 75.601 114.748 75.8172 115.138 76.2018C115.528 76.5863 115.748 77.1079 115.75 77.6524V118.872Z" fill="#48195A"/>
<path d="M100.459 33.3389H18.6708C17.9472 33.3399 17.2415 33.5618 16.6501 33.9741C16.0587 34.3865 15.6104 34.9694 15.3665 35.6431L2.73485 70.6877C2.54633 71.2108 2.48754 71.7709 2.56344 72.3212C2.63933 72.8714 2.84768 73.3955 3.17098 73.8496C3.49428 74.3036 3.92307 74.6743 4.42132 74.9304C4.91958 75.1865 5.47274 75.3206 6.03429 75.3214L115.725 75.5139H115.73C116.311 75.5139 116.882 75.3714 117.393 75.0993C117.904 74.8271 118.339 74.4338 118.659 73.9545C118.978 73.4753 119.173 72.9251 119.224 72.3534C119.276 71.7816 119.183 71.2061 118.955 70.6784L103.683 35.4413C103.413 34.817 102.964 34.2849 102.39 33.9111C101.817 33.5373 101.146 33.3383 100.459 33.3389Z" fill="#48195A"/>
<path d="M119.238 71.4399C119.238 71.9098 119.141 72.3747 118.954 72.8067L103.684 99.9312C103.412 100.554 102.961 101.085 102.388 101.458C101.815 101.831 101.144 102.03 100.458 102.031H18.6715C17.9476 102.031 17.2416 101.809 16.6497 101.397C16.0578 100.985 15.6089 100.402 15.3643 99.7284L2.73512 72.7973C2.58032 72.3683 2.51254 71.9133 2.53567 71.4583C2.5588 71.0033 2.67237 70.5573 2.86991 70.1458C3.06744 69.7342 3.34505 69.3652 3.68688 69.0599C4.02871 68.7545 4.42805 68.5187 4.86207 68.366C5.23753 68.232 5.63367 68.1633 6.03285 68.1632L19.432 68.1382L24.9009 68.1289L96.864 68.0041L102.336 67.9947L115.726 67.9697H115.729C116.66 67.9699 117.552 68.3355 118.21 68.9863C118.868 69.637 119.238 70.5196 119.238 71.4399Z" fill="#48195A"/>
<path d="M14.3741 120.974C15.9959 120.974 38.2673 122.32 38.2673 123.923C38.2673 125.527 15.9959 126.781 14.3741 126.781C13.5953 126.781 12.8483 126.476 12.2976 125.931C11.7469 125.386 11.4375 124.648 11.4375 123.878C11.4375 123.107 11.7469 122.369 12.2976 121.824C12.8483 121.28 13.5953 120.974 14.3741 120.974Z" fill="#48195A"/>
<path d="M95.3666 12.0215H26.4046C24.5564 12.0236 22.7846 12.7505 21.4777 14.0429C20.1709 15.3352 19.4357 17.0873 19.4336 18.915V102.033H100.46C101.125 102.035 101.777 101.848 102.338 101.493V18.915C102.335 17.0873 101.6 15.3352 100.293 14.0429C98.9866 12.7506 97.2148 12.0236 95.3666 12.0215Z" fill="#E6E6E6"/>
<path d="M69.0446 17.6104H31.2517C29.5688 17.612 27.9552 18.2736 26.7649 19.45C25.5747 20.6265 24.9048 22.2218 24.9023 23.886V102.033H96.8654V45.1218C96.8569 37.8279 93.9231 30.8352 88.7075 25.6776C83.4919 20.52 76.4205 17.6188 69.0446 17.6104Z" fill="white"/>
<path d="M84.6066 95.0908H37.1635C36.7534 95.0908 36.3601 95.2519 36.0701 95.5387C35.7801 95.8255 35.6172 96.2144 35.6172 96.6199C35.6172 97.0255 35.7801 97.4144 36.0701 97.7012C36.3601 97.9879 36.7534 98.149 37.1635 98.149H84.6066C85.0167 98.149 85.41 97.9879 85.7 97.7012C85.99 97.4144 86.1529 97.0255 86.1529 96.6199C86.1529 96.2144 85.99 95.8255 85.7 95.5387C85.41 95.2519 85.0167 95.0908 84.6066 95.0908Z" fill="#E4E4E4"/>
<path d="M84.6082 89.043H37.1651C36.7545 89.043 36.3608 89.2042 36.0706 89.4913C35.7803 89.7783 35.6172 90.1677 35.6172 90.5736C35.6172 90.9796 35.7803 91.3689 36.0706 91.656C36.3608 91.943 36.7545 92.1043 37.1651 92.1043H84.6082C85.0187 92.1043 85.4124 91.943 85.7027 91.656C85.993 91.3689 86.1561 90.9796 86.1561 90.5736C86.1561 90.1677 85.993 89.7783 85.7027 89.4913C85.4124 89.2042 85.0187 89.043 84.6082 89.043Z" fill="#E4E4E4"/>
<path d="M57.7293 82.998H37.1635C36.7534 82.998 36.3601 83.1592 36.0701 83.4459C35.7801 83.7327 35.6172 84.1216 35.6172 84.5272C35.6172 84.9327 35.7801 85.3216 36.0701 85.6084C36.3601 85.8952 36.7534 86.0563 37.1635 86.0563H57.7293C58.1394 86.0563 58.5327 85.8952 58.8227 85.6084C59.1127 85.3216 59.2756 84.9327 59.2756 84.5272C59.2756 84.1216 59.1127 83.7327 58.8227 83.4459C58.5327 83.1592 58.1394 82.998 57.7293 82.998Z" fill="#E4E4E4"/>
<path d="M84.6082 70.3369H37.1651C36.7545 70.3369 36.3608 70.4982 36.0706 70.7852C35.7803 71.0723 35.6172 71.4616 35.6172 71.8676C35.6172 72.2735 35.7803 72.6629 36.0706 72.9499C36.3608 73.237 36.7545 73.3983 37.1651 73.3983H84.6082C85.0187 73.3983 85.4124 73.237 85.7027 72.9499C85.993 72.6629 86.1561 72.2735 86.1561 71.8676C86.1561 71.4616 85.993 71.0723 85.7027 70.7852C85.4124 70.4982 85.0187 70.3369 84.6082 70.3369Z" fill="#E4E4E4"/>
<path d="M84.6066 64.293H37.1635C36.7534 64.293 36.3601 64.4541 36.0701 64.7408C35.7801 65.0276 35.6172 65.4165 35.6172 65.8221C35.6172 66.2276 35.7801 66.6166 36.0701 66.9033C36.3601 67.1901 36.7534 67.3512 37.1635 67.3512H84.6066C85.0167 67.3512 85.41 67.1901 85.7 66.9033C85.99 66.6166 86.1529 66.2276 86.1529 65.8221C86.1529 65.4165 85.99 65.0276 85.7 64.7408C85.41 64.4541 85.0167 64.293 84.6066 64.293Z" fill="#E4E4E4"/>
<path d="M57.7309 58.2441H37.1651C36.7545 58.2441 36.3608 58.4054 36.0706 58.6925C35.7803 58.9795 35.6172 59.3689 35.6172 59.7748C35.6172 60.1808 35.7803 60.5701 36.0706 60.8572C36.3608 61.1442 36.7545 61.3055 37.1651 61.3055H57.7309C58.1414 61.3055 58.5351 61.1442 58.8254 60.8572C59.1157 60.5701 59.2788 60.1808 59.2788 59.7748C59.2788 59.3689 59.1157 58.9795 58.8254 58.6925C58.5351 58.4054 58.1414 58.2441 57.7309 58.2441Z" fill="#E4E4E4"/>
<path d="M84.6082 45.5791H37.1651C36.7545 45.5791 36.3608 45.7404 36.0706 46.0274C35.7803 46.3145 35.6172 46.7038 35.6172 47.1098C35.6172 47.5157 35.7803 47.9051 36.0706 48.1921C36.3608 48.4792 36.7545 48.6404 37.1651 48.6404H84.6082C85.0187 48.6404 85.4124 48.4792 85.7027 48.1921C85.993 47.9051 86.1561 47.5157 86.1561 47.1098C86.1561 46.7038 85.993 46.3145 85.7027 46.0274C85.4124 45.7404 85.0187 45.5791 84.6082 45.5791Z" fill="#822DA4"/>
<path d="M84.6082 39.5371H37.1651C36.7545 39.5371 36.3608 39.6984 36.0706 39.9854C35.7803 40.2725 35.6172 40.6618 35.6172 41.0678C35.6172 41.4737 35.7803 41.8631 36.0706 42.1501C36.3608 42.4372 36.7545 42.5984 37.1651 42.5984H84.6082C85.0187 42.5984 85.4124 42.4372 85.7027 42.1501C85.993 41.8631 86.1561 41.4737 86.1561 41.0678C86.1561 40.6618 85.993 40.2725 85.7027 39.9854C85.4124 39.6984 85.0187 39.5371 84.6082 39.5371Z" fill="#822DA4"/>
<path d="M57.7309 33.4883H37.1651C36.7545 33.4883 36.3608 33.6495 36.0706 33.9366C35.7803 34.2237 35.6172 34.613 35.6172 35.0189C35.6172 35.4249 35.7803 35.8142 36.0706 36.1013C36.3608 36.3883 36.7545 36.5496 37.1651 36.5496H57.7309C58.1414 36.5496 58.5351 36.3883 58.8254 36.1013C59.1157 35.8142 59.2788 35.4249 59.2788 35.0189C59.2788 34.613 59.1157 34.2237 58.8254 33.9366C58.5351 33.6495 58.1414 33.4883 57.7309 33.4883Z" fill="#822DA4"/>
<path d="M99.7541 23.8184C106.405 23.8184 111.797 18.4865 111.797 11.9092C111.797 5.33193 106.405 0 99.7541 0C93.1028 0 87.7109 5.33193 87.7109 11.9092C87.7109 18.4865 93.1028 23.8184 99.7541 23.8184Z" fill="#822DA4"/>
<path d="M98.1116 18.1075C97.9037 18.1075 97.6985 18.0596 97.5125 17.9676C97.3265 17.8756 97.1648 17.7421 97.04 17.5775L93.7545 13.2454C93.6484 13.1063 93.571 12.9478 93.527 12.7791C93.4829 12.6104 93.4729 12.4347 93.4976 12.2622C93.5223 12.0896 93.5812 11.9236 93.6708 11.7736C93.7605 11.6235 93.8793 11.4925 94.0203 11.3879C94.1612 11.2834 94.3217 11.2074 94.4925 11.1642C94.6632 11.1211 94.8409 11.1117 95.0153 11.1366C95.1897 11.1615 95.3575 11.2202 95.5089 11.3093C95.6604 11.3984 95.7925 11.5162 95.8979 11.6559L98.0474 14.4898L103.568 6.30085C103.765 6.00852 104.072 5.80557 104.42 5.73667C104.769 5.66776 105.13 5.73854 105.426 5.93344C105.722 6.12833 105.927 6.43137 105.996 6.7759C106.066 7.12042 105.995 7.4782 105.797 7.77054L99.2264 17.5176C99.1075 17.6939 98.9476 17.8394 98.7602 17.942C98.5727 18.0445 98.3631 18.1012 98.1489 18.1071C98.1365 18.1073 98.1241 18.1075 98.1116 18.1075Z" fill="white"/>
</svg>
