<svg width="138" height="42" viewBox="0 0 138 42" fill="none" xmlns="http://www.w3.org/2000/svg">
<rect x="1.31875" y="1.39297" width="135.675" height="39.4875" rx="4.55625" fill="black"/>
<rect x="1.31875" y="1.39297" width="135.675" height="39.4875" rx="4.55625" stroke="#A6A6A6" stroke-width="1.0125"/>
<path d="M69.8001 22.9098C67.4187 22.9098 65.4777 24.7211 65.4777 27.2159C65.4777 29.6955 67.4187 31.5221 69.8001 31.5221C72.1825 31.5221 74.1235 29.6955 74.1235 27.2159C74.1225 24.7211 72.1815 22.9098 69.8001 22.9098ZM69.8001 29.8272C68.495 29.8272 67.3701 28.7509 67.3701 27.2169C67.3701 25.6668 68.496 24.6067 69.8001 24.6067C71.1052 24.6067 72.2301 25.6668 72.2301 27.2169C72.2301 28.7499 71.1052 29.8272 69.8001 29.8272ZM60.3697 22.9098C57.9883 22.9098 56.0473 24.7211 56.0473 27.2159C56.0473 29.6955 57.9883 31.5221 60.3697 31.5221C62.7521 31.5221 64.6931 29.6955 64.6931 27.2159C64.6931 24.7211 62.7521 22.9098 60.3697 22.9098ZM60.3697 29.8272C59.0646 29.8272 57.9397 28.7509 57.9397 27.2169C57.9397 25.6668 59.0656 24.6067 60.3697 24.6067C61.6748 24.6067 62.7997 25.6668 62.7997 27.2169C62.8007 28.7499 61.6748 29.8272 60.3697 29.8272ZM49.1532 24.2321V26.0586H53.5252C53.3946 27.0863 53.0523 27.8366 52.5299 28.358C51.894 28.9939 50.8988 29.6955 49.1532 29.6955C46.462 29.6955 44.358 27.5258 44.358 24.8345C44.358 22.1433 46.462 19.9735 49.1532 19.9735C50.6051 19.9735 51.6652 20.5446 52.4479 21.2786L53.7368 19.9897C52.6433 18.9458 51.1924 18.147 49.1532 18.147C45.4667 18.147 42.3674 21.148 42.3674 24.8345C42.3674 28.521 45.4667 31.5221 49.1532 31.5221C51.1428 31.5221 52.6443 30.869 53.8178 29.6459C55.0247 28.439 55.4003 26.7421 55.4003 25.3722C55.4003 24.9489 55.3679 24.5571 55.3021 24.2311H49.1532V24.2321ZM95.0276 25.6506C94.6691 24.6887 93.5756 22.9098 91.341 22.9098C89.1227 22.9098 87.2789 24.6553 87.2789 27.2159C87.2789 29.6297 89.1065 31.5221 91.5527 31.5221C93.526 31.5221 94.6681 30.3152 95.142 29.6135L93.6738 28.6344C93.1848 29.3523 92.5155 29.8251 91.5527 29.8251C90.5908 29.8251 89.9053 29.3847 89.4649 28.52L95.223 26.1386L95.0276 25.6506ZM89.1551 27.0863C89.1065 25.4218 90.444 24.5743 91.4069 24.5743C92.1571 24.5743 92.793 24.95 93.0056 25.4876L89.1551 27.0863ZM84.4743 31.2619H86.3656V18.6046H84.4743V31.2619ZM81.374 23.8727H81.3092C80.885 23.3664 80.0689 22.9098 79.0422 22.9098C76.8886 22.9098 74.9153 24.8021 74.9153 27.2331C74.9153 29.6469 76.8886 31.5231 79.0422 31.5231C80.0699 31.5231 80.885 31.0665 81.3092 30.545H81.374V31.1647C81.374 32.812 80.4931 33.6929 79.0746 33.6929C77.9163 33.6929 77.1984 32.8616 76.9048 32.16L75.2575 32.8454C75.7303 33.9865 76.9858 35.3898 79.0746 35.3898C81.293 35.3898 83.1692 34.0847 83.1692 30.9035V23.172H81.375V23.8727H81.374ZM79.2052 29.8272C77.9001 29.8272 76.8076 28.7337 76.8076 27.2331C76.8076 25.7154 77.9001 24.6067 79.2052 24.6067C80.4931 24.6067 81.5046 25.7154 81.5046 27.2331C81.5046 28.7337 80.4931 29.8272 79.2052 29.8272ZM103.891 18.6046H99.3641V31.2619H101.252V26.4667H103.89C105.984 26.4667 108.043 24.951 108.043 22.5362C108.043 20.1213 105.985 18.6046 103.891 18.6046ZM103.94 24.7049H101.252V20.3664H103.94C105.352 20.3664 106.154 21.5358 106.154 22.5362C106.154 23.5163 105.352 24.7049 103.94 24.7049ZM115.616 22.8875C114.248 22.8875 112.831 23.4899 112.245 24.8254L113.922 25.5251C114.28 24.8254 114.948 24.5966 115.648 24.5966C116.625 24.5966 117.618 25.1828 117.635 26.2247V26.3553C117.292 26.1599 116.559 25.8673 115.664 25.8673C113.857 25.8673 112.016 26.8605 112.016 28.7165C112.016 30.4104 113.499 31.5008 115.159 31.5008C116.429 31.5008 117.129 30.9308 117.569 30.2625H117.634V31.2396H119.458V26.3867C119.459 24.141 117.78 22.8875 115.616 22.8875ZM115.387 29.8241C114.769 29.8241 113.906 29.5143 113.906 28.7489C113.906 27.7718 114.981 27.3972 115.909 27.3972C116.739 27.3972 117.13 27.5764 117.635 27.8204C117.488 28.9939 116.478 29.8241 115.387 29.8241ZM126.102 23.1639L123.936 28.6517H123.872L121.624 23.1639H119.589L122.959 30.8336L121.038 35.1003H123.008L128.203 23.1639H126.102ZM109.086 31.2619H110.974V18.6046H109.086V31.2619Z" fill="white"/>
<path d="M48.8232 11.2581C48.8232 12.1065 48.5721 12.7819 48.0689 13.2861C47.4979 13.8855 46.7527 14.1852 45.8374 14.1852C44.9605 14.1852 44.2143 13.8815 43.6018 13.274C42.9882 12.6654 42.6814 11.9121 42.6814 11.013C42.6814 10.1129 42.9882 9.35963 43.6018 8.75213C44.2143 8.14362 44.9605 7.83987 45.8374 7.83987C46.2727 7.83987 46.6889 7.92492 47.0837 8.09401C47.4796 8.26411 47.7965 8.48989 48.0335 8.77238L47.4999 9.30698C47.0979 8.82604 46.5441 8.58608 45.8363 8.58608C45.1964 8.58608 44.6436 8.81086 44.1769 9.26041C43.7101 9.70996 43.4772 10.2942 43.4772 11.012C43.4772 11.7299 43.7101 12.3141 44.1769 12.7637C44.6436 13.2132 45.1964 13.438 45.8363 13.438C46.5147 13.438 47.0807 13.2122 47.5333 12.7596C47.8269 12.465 47.997 12.0549 48.0426 11.5294H45.8363V10.7994H48.7797C48.8101 10.9584 48.8232 11.1113 48.8232 11.2581Z" fill="white"/>
<path d="M53.4909 8.7208H50.7248V10.6466H53.2196V11.3766H50.7248V13.3024H53.4909V14.0496H49.9442V7.97459H53.4909V8.7208Z" fill="white"/>
<path d="M56.7825 14.0496H56.0018V8.7208H54.3049V7.97459H58.4794V8.7208H56.7825V14.0496Z" fill="white"/>
<path d="M61.4997 14.0496V7.97459H62.2803V14.0496H61.4997Z" fill="white"/>
<path d="M65.7422 14.0496H64.9616V8.7208H63.2646V7.97459H67.4391V8.7208H65.7422V14.0496Z" fill="white"/>
<path d="M75.3415 13.2649C74.7441 13.8785 74.0019 14.1853 73.114 14.1853C72.226 14.1853 71.4839 13.8785 70.8875 13.2649C70.2901 12.6513 69.9924 11.9 69.9924 11.0121C69.9924 10.1241 70.2901 9.37284 70.8875 8.75927C71.4839 8.14569 72.226 7.83789 73.114 7.83789C73.9969 7.83789 74.738 8.1467 75.3374 8.76332C75.9368 9.37993 76.2365 10.1292 76.2365 11.0121C76.2365 11.9 75.9379 12.6513 75.3415 13.2649ZM71.4636 12.7556C71.9132 13.2112 72.4629 13.438 73.114 13.438C73.765 13.438 74.3158 13.2102 74.7644 12.7556C75.2139 12.3 75.4397 11.7188 75.4397 11.0121C75.4397 10.3054 75.2139 9.72418 74.7644 9.26855C74.3158 8.81293 73.765 8.58613 73.114 8.58613C72.4629 8.58613 71.9132 8.81394 71.4636 9.26855C71.0151 9.72418 70.7893 10.3054 70.7893 11.0121C70.7893 11.7188 71.0151 12.3 71.4636 12.7556Z" fill="white"/>
<path d="M77.3321 14.0496V7.97459H78.2818L81.2343 12.6999H81.2677L81.2343 11.5295V7.97459H82.0149V14.0496H81.1998L78.1107 9.09441H78.0773L78.1107 10.2649V14.0496H77.3321Z" fill="white"/>
<path d="M48.8232 11.2581C48.8232 12.1065 48.5721 12.7819 48.0689 13.2861C47.4979 13.8855 46.7527 14.1852 45.8374 14.1852C44.9605 14.1852 44.2143 13.8815 43.6018 13.274C42.9882 12.6654 42.6814 11.9121 42.6814 11.013C42.6814 10.1129 42.9882 9.35963 43.6018 8.75213C44.2143 8.14362 44.9605 7.83987 45.8374 7.83987C46.2727 7.83987 46.6889 7.92492 47.0837 8.09401C47.4796 8.26411 47.7965 8.48989 48.0335 8.77238L47.4999 9.30698C47.0979 8.82604 46.5441 8.58608 45.8363 8.58608C45.1964 8.58608 44.6436 8.81086 44.1769 9.26041C43.7101 9.70996 43.4772 10.2942 43.4772 11.012C43.4772 11.7299 43.7101 12.3141 44.1769 12.7637C44.6436 13.2132 45.1964 13.438 45.8363 13.438C46.5147 13.438 47.0807 13.2122 47.5333 12.7596C47.8269 12.465 47.997 12.0549 48.0426 11.5294H45.8363V10.7994H48.7797C48.8101 10.9584 48.8232 11.1113 48.8232 11.2581Z" stroke="white" stroke-width="0.2025" stroke-miterlimit="10"/>
<path d="M53.4909 8.7208H50.7248V10.6466H53.2196V11.3766H50.7248V13.3024H53.4909V14.0496H49.9442V7.97459H53.4909V8.7208Z" stroke="white" stroke-width="0.2025" stroke-miterlimit="10"/>
<path d="M56.7825 14.0496H56.0018V8.7208H54.3049V7.97459H58.4794V8.7208H56.7825V14.0496Z" stroke="white" stroke-width="0.2025" stroke-miterlimit="10"/>
<path d="M61.4997 14.0496V7.97459H62.2803V14.0496H61.4997Z" stroke="white" stroke-width="0.2025" stroke-miterlimit="10"/>
<path d="M65.7422 14.0496H64.9616V8.7208H63.2646V7.97459H67.4391V8.7208H65.7422V14.0496Z" stroke="white" stroke-width="0.2025" stroke-miterlimit="10"/>
<path d="M75.3415 13.2649C74.7441 13.8785 74.0019 14.1853 73.114 14.1853C72.226 14.1853 71.4839 13.8785 70.8875 13.2649C70.2901 12.6513 69.9924 11.9 69.9924 11.0121C69.9924 10.1241 70.2901 9.37284 70.8875 8.75927C71.4839 8.14569 72.226 7.83789 73.114 7.83789C73.9969 7.83789 74.738 8.1467 75.3374 8.76332C75.9368 9.37993 76.2365 10.1292 76.2365 11.0121C76.2365 11.9 75.9379 12.6513 75.3415 13.2649ZM71.4636 12.7556C71.9132 13.2112 72.4629 13.438 73.114 13.438C73.765 13.438 74.3158 13.2102 74.7644 12.7556C75.2139 12.3 75.4397 11.7188 75.4397 11.0121C75.4397 10.3054 75.2139 9.72418 74.7644 9.26855C74.3158 8.81293 73.765 8.58613 73.114 8.58613C72.4629 8.58613 71.9132 8.81394 71.4636 9.26855C71.0151 9.72418 70.7893 10.3054 70.7893 11.0121C70.7893 11.7188 71.0151 12.3 71.4636 12.7556Z" stroke="white" stroke-width="0.2025" stroke-miterlimit="10"/>
<path d="M77.3321 14.0496V7.97459H78.2818L81.2343 12.6999H81.2677L81.2343 11.5295V7.97459H82.0149V14.0496H81.1998L78.1107 9.09441H78.0773L78.1107 10.2649V14.0496H77.3321Z" stroke="white" stroke-width="0.2025" stroke-miterlimit="10"/>
<g filter="url(#filter0_ii_777_20575)">
<path d="M11.3789 8.51874C11.0843 8.83059 10.9102 9.31456 10.9102 9.9413V32.3337C10.9102 32.9615 11.0843 33.4445 11.3789 33.7563L11.4539 33.8292L23.9977 21.2853V21.1375V20.9897L11.4539 8.44482L11.3789 8.51874Z" fill="url(#paint0_linear_777_20575)"/>
<path d="M28.1782 25.468L23.9976 21.2854V21.1376V20.9897L28.1792 16.8081L28.2733 16.8618L33.2275 19.6765C34.642 20.4804 34.642 21.7957 33.2275 22.6006L28.2733 25.4154L28.1782 25.468Z" fill="url(#paint1_linear_777_20575)"/>
<g filter="url(#filter1_i_777_20575)">
<path d="M28.2735 25.4145L23.9967 21.1377L11.3789 33.7565C11.8447 34.2506 12.6152 34.3113 13.4829 33.8193L28.2735 25.4145Z" fill="url(#paint2_linear_777_20575)"/>
</g>
<path d="M28.2735 16.8607L13.4829 8.45698C12.6152 7.96389 11.8447 8.02565 11.3789 8.51975L23.9977 21.1385L28.2735 16.8607Z" fill="url(#paint3_linear_777_20575)"/>
</g>
<defs>
<filter id="filter0_ii_777_20575" x="10.9102" y="8.1167" width="23.3782" height="26.0425" filterUnits="userSpaceOnUse" color-interpolation-filters="sRGB">
<feFlood flood-opacity="0" result="BackgroundImageFix"/>
<feBlend mode="normal" in="SourceGraphic" in2="BackgroundImageFix" result="shape"/>
<feColorMatrix in="SourceAlpha" type="matrix" values="0 0 0 0 0 0 0 0 0 0 0 0 0 0 0 0 0 0 127 0" result="hardAlpha"/>
<feOffset dy="-0.151875"/>
<feComposite in2="hardAlpha" operator="arithmetic" k2="-1" k3="1"/>
<feColorMatrix type="matrix" values="0 0 0 0 0 0 0 0 0 0 0 0 0 0 0 0 0 0 0.12 0"/>
<feBlend mode="normal" in2="shape" result="effect1_innerShadow_777_20575"/>
<feColorMatrix in="SourceAlpha" type="matrix" values="0 0 0 0 0 0 0 0 0 0 0 0 0 0 0 0 0 0 127 0" result="hardAlpha"/>
<feOffset dy="0.151875"/>
<feComposite in2="hardAlpha" operator="arithmetic" k2="-1" k3="1"/>
<feColorMatrix type="matrix" values="0 0 0 0 1 0 0 0 0 1 0 0 0 0 1 0 0 0 0.25 0"/>
<feBlend mode="normal" in2="effect1_innerShadow_777_20575" result="effect2_innerShadow_777_20575"/>
</filter>
<filter id="filter1_i_777_20575" x="11.3789" y="21.1377" width="16.8945" height="13.0215" filterUnits="userSpaceOnUse" color-interpolation-filters="sRGB">
<feFlood flood-opacity="0" result="BackgroundImageFix"/>
<feBlend mode="normal" in="SourceGraphic" in2="BackgroundImageFix" result="shape"/>
<feColorMatrix in="SourceAlpha" type="matrix" values="0 0 0 0 0 0 0 0 0 0 0 0 0 0 0 0 0 0 127 0" result="hardAlpha"/>
<feOffset dy="-0.151875"/>
<feComposite in2="hardAlpha" operator="arithmetic" k2="-1" k3="1"/>
<feColorMatrix type="matrix" values="0 0 0 0 0 0 0 0 0 0 0 0 0 0 0 0 0 0 0.08 0"/>
<feBlend mode="normal" in2="shape" result="effect1_innerShadow_777_20575"/>
</filter>
<linearGradient id="paint0_linear_777_20575" x1="22.8858" y1="9.70437" x2="5.89403" y2="26.6961" gradientUnits="userSpaceOnUse">
<stop stop-color="#00A0FF"/>
<stop offset="0.0066" stop-color="#00A1FF"/>
<stop offset="0.2601" stop-color="#00BEFF"/>
<stop offset="0.5122" stop-color="#00D2FF"/>
<stop offset="0.7604" stop-color="#00DFFF"/>
<stop offset="1" stop-color="#00E3FF"/>
</linearGradient>
<linearGradient id="paint1_linear_777_20575" x1="35.0687" y1="21.1376" x2="10.5704" y2="21.1376" gradientUnits="userSpaceOnUse">
<stop stop-color="#FFE000"/>
<stop offset="0.4087" stop-color="#FFBD00"/>
<stop offset="0.7754" stop-color="#FFA500"/>
<stop offset="1" stop-color="#FF9C00"/>
</linearGradient>
<linearGradient id="paint2_linear_777_20575" x1="25.9509" y1="23.4603" x2="2.90793" y2="46.5033" gradientUnits="userSpaceOnUse">
<stop stop-color="#FF3A44"/>
<stop offset="1" stop-color="#C31162"/>
</linearGradient>
<linearGradient id="paint3_linear_777_20575" x1="8.20107" y1="1.06552" x2="18.4904" y2="11.3549" gradientUnits="userSpaceOnUse">
<stop stop-color="#32A071"/>
<stop offset="0.0685" stop-color="#2DA771"/>
<stop offset="0.4762" stop-color="#15CF74"/>
<stop offset="0.8009" stop-color="#06E775"/>
<stop offset="1" stop-color="#00F076"/>
</linearGradient>
</defs>
</svg>
