<svg width="24" height="25" viewBox="0 0 24 25" fill="none" xmlns="http://www.w3.org/2000/svg">
<g id="Social Icon">
<path id="bg" d="M0 12.5C0 19.1274 5.37258 24.5 12 24.5C18.6274 24.5 24 19.1274 24 12.5C24 5.87258 18.6274 0.5 12 0.5C5.37258 0.5 0 5.87258 0 12.5Z" fill="#F00073"/>
<g id="instagram">
<path d="M11.9999 7.40002C13.6499 7.40002 13.8749 7.40002 14.5499 7.40002C15.1499 7.40002 15.4499 7.55002 15.6749 7.62502C15.9749 7.77502 16.1999 7.85002 16.4249 8.07502C16.6499 8.30002 16.7999 8.52502 16.8749 8.82502C16.9499 9.05002 17.0249 9.35002 17.0999 9.95002C17.0999 10.625 17.0999 10.775 17.0999 12.5C17.0999 14.225 17.0999 14.375 17.0999 15.05C17.0999 15.65 16.9499 15.95 16.8749 16.175C16.7249 16.475 16.6499 16.7 16.4249 16.925C16.1999 17.15 15.9749 17.3 15.6749 17.375C15.4499 17.45 15.1499 17.525 14.5499 17.6C13.8749 17.6 13.7249 17.6 11.9999 17.6C10.2749 17.6 10.1249 17.6 9.4499 17.6C8.8499 17.6 8.5499 17.45 8.3249 17.375C8.0249 17.225 7.7999 17.15 7.5749 16.925C7.3499 16.7 7.1999 16.475 7.1249 16.175C7.0499 15.95 6.9749 15.65 6.8999 15.05C6.8999 14.375 6.8999 14.225 6.8999 12.5C6.8999 10.775 6.8999 10.625 6.8999 9.95002C6.8999 9.35002 7.0499 9.05002 7.1249 8.82502C7.2749 8.52502 7.3499 8.30002 7.5749 8.07502C7.7999 7.85002 8.0249 7.70002 8.3249 7.62502C8.5499 7.55002 8.8499 7.47502 9.4499 7.40002C10.1249 7.40002 10.3499 7.40002 11.9999 7.40002ZM11.9999 6.27502C10.2749 6.27502 10.1249 6.27502 9.4499 6.27502C8.7749 6.27502 8.3249 6.42502 7.9499 6.57502C7.5749 6.72502 7.1999 6.95002 6.8249 7.32502C6.4499 7.70002 6.2999 8.00002 6.0749 8.45002C5.9249 8.82502 5.8499 9.27502 5.7749 9.95002C5.7749 10.625 5.7749 10.85 5.7749 12.5C5.7749 14.225 5.7749 14.375 5.7749 15.05C5.7749 15.725 5.9249 16.175 6.0749 16.55C6.2249 16.925 6.4499 17.3 6.8249 17.675C7.1999 18.05 7.4999 18.2 7.9499 18.425C8.3249 18.575 8.7749 18.65 9.4499 18.725C10.1249 18.725 10.3499 18.725 11.9999 18.725C13.6499 18.725 13.8749 18.725 14.5499 18.725C15.2249 18.725 15.6749 18.575 16.0499 18.425C16.4249 18.275 16.7999 18.05 17.1749 17.675C17.5499 17.3 17.6999 17 17.9249 16.55C18.0749 16.175 18.1499 15.725 18.2249 15.05C18.2249 14.375 18.2249 14.15 18.2249 12.5C18.2249 10.85 18.2249 10.625 18.2249 9.95002C18.2249 9.27502 18.0749 8.82502 17.9249 8.45002C17.7749 8.07502 17.5499 7.70002 17.1749 7.32502C16.7999 6.95002 16.4999 6.80002 16.0499 6.57502C15.6749 6.42502 15.2249 6.35002 14.5499 6.27502C13.8749 6.27502 13.7249 6.27502 11.9999 6.27502Z" fill="white"/>
<path d="M11.9999 9.27502C10.1999 9.27502 8.7749 10.7 8.7749 12.5C8.7749 14.3 10.1999 15.725 11.9999 15.725C13.7999 15.725 15.2249 14.3 15.2249 12.5C15.2249 10.7 13.7999 9.27502 11.9999 9.27502ZM11.9999 14.6C10.8749 14.6 9.8999 13.7 9.8999 12.5C9.8999 11.375 10.7999 10.4 11.9999 10.4C13.1249 10.4 14.0999 11.3 14.0999 12.5C14.0999 13.625 13.1249 14.6 11.9999 14.6Z" fill="white"/>
<path d="M15.2999 9.95002C15.7141 9.95002 16.0499 9.61424 16.0499 9.20002C16.0499 8.78581 15.7141 8.45002 15.2999 8.45002C14.8857 8.45002 14.5499 8.78581 14.5499 9.20002C14.5499 9.61424 14.8857 9.95002 15.2999 9.95002Z" fill="white"/>
</g>
</g>
</svg>
