<svg width="704" height="1024" viewBox="0 0 704 1024" fill="none" xmlns="http://www.w3.org/2000/svg">
<mask id="mask0_1102_60595" style="mask-type:luminance" maskUnits="userSpaceOnUse" x="-96" y="-88" width="800" height="1200">
<path d="M-96 -88L-96 1112H704L704 -88H-96Z" fill="white"/>
</mask>
<g mask="url(#mask0_1102_60595)">
<path d="M-96 -88L-96 1112H704L704 -88H-96Z" fill="#011526"/>
</g>
<mask id="mask1_1102_60595" style="mask-type:luminance" maskUnits="userSpaceOnUse" x="-96" y="-88" width="800" height="1200">
<path d="M-96 -88L-96 1112H704L704 -88H-96Z" fill="white"/>
</mask>
<g mask="url(#mask1_1102_60595)">
<path d="M-219.099 1159.1C-267.799 1107.3 -289.999 1032.6 -277.799 962.4C-265.599 892.2 -218.899 828.3 -155.099 793.9C-73.8993 750.2 31.5007 752.1 98.6007 689.3C155.401 636 166.701 552.9 177.901 477C189.101 401.1 209.101 317.1 274.201 274C318.201 244.9 377.601 238.7 412.501 199.5C447.901 159.6 444.701 98.2996 422.701 50.6996C400.701 3.09959 363.501 -35.5004 333.301 -78.5004C242.001 -208.7 219.201 -383.4 273.801 -534" stroke="#031A2E" stroke-miterlimit="10"/>
<path d="M-212.899 1166.1C-239.699 1136.7 -257.599 1100.1 -265.199 1061.8C-271.499 1030.2 -270.899 997.5 -263.299 966.6C-261.499 959.5 -259.399 952.6 -256.999 945.8C-244.299 910.7 -222.499 879.1 -195.199 851.2C-176.499 832.1 -155.699 814.7 -133.399 800.9C-120.999 793.2 -108.299 786.5 -95.3992 780.5C-60.1992 764.1 -23.6992 752.9 10.5008 738.2C42.6008 724.6 72.8008 707.8 98.1008 680.7C100.601 678 103.001 675.3 105.401 672.4C131.801 640.8 148.201 601.2 161.101 561.9C171.101 531.5 178.301 501.4 185.301 472.6C186.001 469.7 186.701 466.8 187.401 463.9C197.001 425.7 209.501 385.8 230.501 351.8C246.201 326.2 267.101 303.7 294.201 285.3C337.201 256.2 392.701 247.7 425.001 208.5C457.901 168.9 454.601 109.1 434.001 62.1996C420.301 30.9996 400.401 3.49961 380.601 -23.9004C370.601 -37.7004 360.601 -51.5004 351.401 -65.7004C314.301 -123 290.801 -188.3 281.601 -255.1C270.201 -338.3 281.001 -423.4 312.101 -499" stroke="#031A2E" stroke-miterlimit="10"/>
<path d="M-206.698 1173C-233.598 1142.7 -250.598 1104.6 -256.398 1065.6C-261.198 1033.4 -258.498 1000.7 -248.698 970.7C-246.498 963.8 -243.898 957.1 -240.898 950.6C-225.698 916.9 -201.598 888.1 -173.098 860.2C-153.598 841.2 -132.798 822.9 -111.498 807.6C-99.5976 799.1 -87.5976 791.5 -75.6976 784.6C-43.0976 765.7 -10.8976 751.7 19.4024 734.9C47.9024 719.1 74.6024 700.4 97.9024 671.9C100.202 669.1 102.402 666.2 104.602 663.2C128.902 630.1 146.102 589.2 161.502 551.1C173.502 521.6 183.302 494.1 192.702 468.1C193.602 465.5 194.602 462.9 195.502 460.2C208.202 425.7 223.602 389.6 246.702 358.9C264.102 335.8 286.802 315.4 314.202 296.4C356.202 267.3 407.602 256.4 437.502 217.3C467.702 177.8 464.502 119.6 445.302 73.4C432.602 42.7 414.202 15.4 396.002 -11.8C386.802 -25.5 377.702 -39.2001 369.402 -53.2001C335.902 -109.8 316.002 -173.6 310.302 -237.6C303.202 -317.3 318.302 -396.7 350.302 -464.4" stroke="#031A2E" stroke-miterlimit="10"/>
<path d="M-200.498 1180C-227.498 1148.7 -243.698 1109.2 -247.698 1069.5C-250.998 1036.8 -246.198 1004 -234.298 974.8C-231.598 968.1 -228.498 961.7 -225.098 955.4C-207.398 923.2 -181.098 897 -151.398 869.3C-130.998 850.4 -110.398 831.1 -89.8979 814.4C-78.4979 805.1 -67.2979 796.7 -56.3979 788.9C-26.4979 767.5 1.50211 750.9 28.0021 731.8C52.8021 713.9 76.1021 693.3 97.3021 663.3C99.4021 660.3 101.502 657.3 103.502 654.2C126.102 619.5 144.002 577.2 162.002 540.3C176.102 511.7 188.502 486.9 200.202 463.6C201.402 461.3 202.502 458.9 203.702 456.6C219.302 425.7 237.702 393.5 263.102 366.1C282.102 345.6 306.702 327.2 334.402 307.6C375.402 278.6 422.802 265.2 450.202 226.2C477.802 186.9 474.602 130.3 456.802 84.7C445.002 54.4 428.102 27.4 411.502 0.400024C403.202 -13.2 395.002 -26.7 387.602 -40.6C357.702 -96.5 341.402 -158.7 339.202 -220C336.502 -296.3 355.902 -369.8 388.702 -429.6" stroke="#031A2E" stroke-miterlimit="10"/>
<path d="M-194.299 1187C-221.399 1154.7 -236.699 1113.8 -238.899 1073.4C-240.699 1040.1 -233.799 1007.3 -219.799 978.9C-216.599 972.4 -212.999 966.2 -209.199 960.2C-189.099 929.4 -160.399 905.9 -129.599 878.4C-108.399 859.6 -87.7986 839.3 -68.2986 821.3C-57.3986 811.3 -46.8986 801.9 -36.9986 793.2C-9.79858 769.2 14.0014 750 36.6014 728.7C57.7014 708.8 77.6014 686.2 96.8014 654.7C98.7014 651.6 100.601 648.4 102.401 645.1C123.201 608.8 141.701 565.2 162.401 529.5C178.501 501.8 193.501 479.7 207.501 459.1C208.901 457 210.301 455 211.701 452.9C230.301 425.6 251.601 397.2 279.301 373.2C300.001 355.2 326.401 339 354.401 318.7C394.401 289.8 437.801 274 462.801 235C487.801 195.9 484.601 140.8 468.201 96C457.301 66.2 441.901 39.3 427.001 12.6C419.501 -0.800024 412.201 -14.3 405.701 -28C379.401 -83.2 366.701 -143.9 368.001 -202.4C369.601 -275.2 393.301 -343 427.001 -394.9" stroke="#031A2E" stroke-miterlimit="10"/>
<path d="M-188.098 1194C-215.298 1160.7 -229.798 1118.5 -230.198 1077.3C-230.598 1043.5 -221.498 1010.7 -205.398 983.1C-201.698 976.8 -197.698 970.8 -193.298 965.1C-170.698 935.8 -139.798 914.9 -107.798 887.6C-85.6983 868.9 -65.1983 847.7 -46.5983 828.2C-36.1983 817.4 -26.4983 807.1 -17.5983 797.5C7.0017 771 26.5017 749.2 45.3017 725.6C62.8017 703.6 79.2017 679 96.4017 646.1C98.1017 642.8 99.8017 639.5 101.502 636.1C120.302 598.2 139.702 553.3 162.902 518.8C181.102 492 198.602 472.6 215.002 454.8C216.602 453 218.202 451.2 219.902 449.4C241.602 425.7 265.702 401.2 295.702 380.5C318.002 365.1 346.302 350.9 374.602 330C413.602 301.1 453.002 283 475.502 244.1C497.902 205.2 494.702 151.7 479.702 107.5C469.802 78.1 455.802 51.5 442.602 25C436.002 11.7 429.502 -1.59998 423.902 -15.1C401.302 -69.6 392.102 -128.8 396.802 -184.5C402.802 -253.9 430.802 -315.8 465.302 -359.9" stroke="#031A2E" stroke-miterlimit="10"/>
<path d="M-181.998 1201C-209.298 1166.8 -222.998 1123.1 -221.498 1081.2C-220.398 1046.8 -209.198 1014 -190.898 987.2C-186.698 981.1 -182.198 975.3 -177.398 969.9C-152.298 942 -119.098 923.8 -85.8982 896.7C-62.9982 878 -42.5982 855.9 -24.7982 835C-14.9982 823.4 -5.89817 812.2 2.00183 801.7C23.9018 772.7 39.2018 748.3 54.1018 722.3C67.9018 698.3 80.9018 671.7 96.0018 637.2C97.5018 633.8 99.0018 630.3 100.502 626.7C117.502 587.3 137.502 541 163.402 507.7C183.602 481.9 203.602 465.1 222.402 450C224.302 448.5 226.102 447 228.002 445.4C252.702 425.3 279.702 404.7 312.002 387.3C335.902 374.4 366.102 362.4 394.702 340.8C432.802 312 468.102 291.4 488.102 252.6C508.002 213.9 504.702 161.9 491.102 118.4C482.102 89.5 469.602 63.0999 458.102 36.7999C452.302 23.5999 446.802 10.4 442.102 -2.90002C423.102 -56.7 417.502 -114.3 425.702 -167.2C436.102 -233.1 468.302 -289.3 503.702 -325.5" stroke="#031A2E" stroke-miterlimit="10"/>
<path d="M-175.798 1208C-203.198 1172.8 -215.998 1127.7 -212.698 1085.1C-210.098 1050.2 -196.798 1017.3 -176.398 991.4C-171.798 985.5 -166.698 979.9 -161.398 974.8C-133.798 948.4 -98.2981 932.8 -63.9981 905.9C-40.1981 887.3 -19.8981 864.2 -3.09811 842C6.20189 829.7 14.5019 817.6 21.4019 806.2C40.6019 774.6 51.7019 747.7 62.7019 719.4C72.8019 693.3 82.3019 664.8 95.5019 628.8C96.8019 625.2 98.1019 621.6 99.5019 617.9C114.602 576.9 135.302 529.3 163.802 497.2C186.102 472.3 208.602 458.2 229.802 445.8C231.902 444.6 234.002 443.3 236.102 442.1C263.902 425.7 293.702 408.8 328.202 394.8C353.802 384.5 385.802 374.6 414.602 352.4C451.702 323.8 483.002 300.7 500.502 261.9C517.802 223.5 514.502 173 502.302 130.2C494.202 101.7 483.202 75.5 473.402 49.5C468.402 36.4 463.802 23.4 460.002 10.2C444.602 -42.9 442.602 -99 454.302 -149.1C469.002 -211.6 505.602 -262 541.802 -290.2" stroke="#031A2E" stroke-miterlimit="10"/>
<path d="M-169.598 1214.9C-197.098 1178.7 -209.098 1132.2 -203.998 1088.9C-199.898 1053.4 -184.398 1020.5 -161.998 995.399C-156.898 989.699 -151.398 984.399 -145.598 979.499C-115.498 954.499 -77.7984 941.599 -42.2984 914.899C-17.6984 896.399 2.60162 872.399 18.5016 848.699C27.3016 835.599 34.8016 822.599 40.8016 810.299C57.3016 776.099 64.3016 746.699 71.4016 716.099C77.9016 687.999 83.9016 657.499 95.1016 619.999C96.2016 616.299 97.3016 612.499 98.5016 608.699C111.702 566.199 133.202 517.199 164.302 486.399C188.602 462.399 213.702 450.999 237.202 441.299C239.502 440.299 241.802 439.399 244.102 438.399C275.002 425.599 307.502 412.499 344.402 401.899C371.602 394.099 405.502 386.399 434.602 363.499C470.802 334.999 498.102 309.499 513.002 270.699C527.702 232.499 524.402 183.499 513.702 141.399C506.602 113.399 497.002 87.3994 488.902 61.5994C484.802 48.5994 481.102 35.6993 478.102 22.6993C466.302 -29.6007 467.902 -84.2006 483.102 -131.601C502.202 -190.601 543.002 -235.201 580.102 -255.601" stroke="#031A2E" stroke-miterlimit="10"/>
<path d="M-163.398 1221.9C-190.998 1184.7 -202.198 1136.8 -195.198 1092.9C-189.598 1056.9 -171.998 1023.9 -147.498 999.599C-141.898 994.099 -135.898 988.999 -129.698 984.399C-97.1982 960.899 -57.0983 950.699 -20.3983 923.999C5.00175 905.599 25.3018 880.599 40.3018 855.499C48.6018 841.599 55.4017 827.699 60.4017 814.499C74.2017 777.799 77.1018 745.799 80.2018 712.899C83.1018 682.799 85.6018 650.199 94.7018 611.299C95.6018 607.399 96.6017 603.499 97.6017 599.499C109.002 555.499 131.102 505.099 164.802 475.499C191.202 452.399 218.802 443.699 244.702 436.799C247.302 436.099 249.802 435.399 252.302 434.699C286.202 425.599 321.602 416.299 360.802 408.999C389.602 403.699 425.502 398.199 454.802 374.599C490.102 346.199 513.302 318.299 525.702 279.499C537.902 241.499 534.502 194.099 525.202 152.599C519.002 124.999 510.902 99.2993 504.502 73.6993C501.202 60.8993 498.402 48.0993 496.402 35.1993C488.202 -16.4007 493.402 -69.5006 512.102 -114.101C535.502 -169.701 580.702 -208.501 618.602 -221.001" stroke="#031A2E" stroke-miterlimit="10"/>
<path d="M-157.199 1228.9C-184.899 1190.7 -195.199 1141.5 -186.399 1096.8C-179.299 1060.2 -159.599 1027.2 -132.899 1003.8C-126.799 998.499 -120.399 993.599 -113.599 989.299C-78.599 967.199 -36.299 959.699 1.60101 933.199C27.901 914.899 48.001 888.899 62.101 862.499C69.901 847.799 75.901 832.999 79.901 818.899C91.001 779.599 89.701 745.099 88.901 709.799C88.201 677.599 87.201 643.099 94.301 602.699C95.001 598.699 95.801 594.599 96.601 590.499C106.201 544.899 129.001 493.199 165.201 464.799C193.601 442.599 223.801 436.599 252.001 432.399C254.801 431.999 257.601 431.599 260.301 431.099C297.301 425.699 335.501 420.099 377.001 416.199C407.401 413.399 445.201 410.099 474.801 385.799C509.101 357.599 528.401 327.199 538.201 288.399C547.801 250.699 544.401 204.699 536.501 163.899C531.201 136.799 524.601 111.199 519.801 85.8994C517.401 73.1994 515.401 60.4993 514.301 47.7993C509.701 -3.10069 518.401 -54.7006 540.701 -96.5006C568.501 -148.601 617.901 -181.701 656.701 -186.201" stroke="#031A2E" stroke-miterlimit="10"/>
<path d="M-151 1235.9C-178.8 1196.8 -188.3 1146.1 -177.7 1100.7C-169.1 1063.6 -147.3 1030.5 -118.5 1007.9C-111.9 1002.7 -105 998.099 -97.7996 994.099C-60.2996 973.499 -15.6996 968.599 23.3004 942.299C50.4004 924.099 70.5004 897.199 83.7004 869.299C91.0004 853.899 96.3004 838.099 99.3004 823.199C107.7 781.399 102.3 744.299 97.6004 706.699C93.3004 672.499 88.8004 635.999 93.9004 594.099C94.4004 589.899 95.0004 585.699 95.7004 581.399C103.5 534.299 126.9 481.199 165.8 453.999C196.3 432.799 229 429.399 259.6 427.899C262.6 427.799 265.6 427.599 268.6 427.499C308.6 425.699 349.6 423.899 393.5 423.499C425.6 423.199 465.2 422.099 495.1 397.099C528.5 369.099 543.7 336.199 551.1 297.399C558.2 259.899 554.7 215.499 548.2 175.399C543.9 148.699 538.8 123.399 535.6 98.2993C534 85.6993 533 73.1993 532.7 60.6993C531.7 10.4993 544 -39.5006 569.8 -78.5006C601.9 -127.201 655.7 -154.401 695.3 -151.101" stroke="#031A2E" stroke-miterlimit="10"/>
<path d="M-144.898 1242.9C-172.798 1202.8 -181.498 1150.7 -168.998 1104.6C-158.898 1066.9 -134.998 1033.8 -104.098 1012.1C-96.9981 1007.1 -89.5981 1002.8 -81.8981 999.099C-41.8981 979.899 5.00195 977.699 45.202 951.599C73.202 933.499 93.2019 905.599 105.402 876.299C112.202 860.099 116.702 843.399 118.702 827.599C124.402 783.199 114.902 743.499 106.202 703.699C98.3019 667.399 90.3019 628.899 93.4019 585.599C93.7019 581.299 94.1019 576.899 94.6019 572.499C100.502 523.799 124.602 469.399 166.102 443.399C198.602 423.099 233.902 422.299 266.802 423.599C270.102 423.699 273.302 423.899 276.502 423.999C319.602 425.899 363.402 427.799 409.502 430.799C443.202 432.999 484.802 434.099 514.902 408.399C547.402 380.499 558.602 345.199 563.402 306.499C568.002 269.299 564.402 226.299 559.302 186.899C555.902 160.699 552.302 135.599 550.802 110.699C550.002 98.1993 549.902 85.7994 550.602 73.4994C553.202 23.9994 569.102 -24.5007 598.302 -60.7007C634.802 -105.901 692.802 -127.401 733.302 -116.201" stroke="#031A2E" stroke-miterlimit="10"/>
<path d="M-138.698 1249.9C-166.698 1208.8 -174.498 1155.3 -160.198 1108.5C-148.598 1070.3 -122.598 1037.2 -89.5977 1016.2C-82.0977 1011.4 -74.1977 1007.3 -65.9977 1003.9C-23.5977 986.199 25.6023 986.599 67.0023 960.699C95.8023 942.699 115.702 913.799 127.102 883.199C133.402 866.199 137.102 848.699 138.202 831.899C141.102 784.899 127.602 742.699 114.902 700.599C103.402 662.299 91.9023 621.799 92.9023 576.999C93.0023 572.499 93.2023 567.999 93.6023 563.499C97.6023 513.299 122.502 457.599 166.602 432.699C201.102 413.299 239.002 415.099 274.302 419.299C277.802 419.699 281.202 420.099 284.702 420.499C330.802 426.199 377.502 431.699 425.902 438.099C461.202 442.799 504.802 446.199 535.102 419.699C566.702 391.999 573.902 354.199 576.102 315.499C578.202 278.499 574.502 237.099 570.802 198.299C568.302 172.599 566.202 147.599 566.402 122.999C566.502 110.699 567.202 98.3993 568.802 86.1993C575.002 37.3993 594.502 -9.50061 627.202 -43.0006C668.102 -84.8006 730.402 -100.401 771.702 -81.3007" stroke="#031A2E" stroke-miterlimit="10"/>
<path d="M-132.497 1256.9C-160.597 1214.8 -167.597 1159.9 -151.497 1112.4C-138.397 1073.6 -110.297 1040.5 -75.0975 1020.3C-67.0975 1015.7 -58.6975 1011.8 -50.0975 1008.7C-5.19748 992.399 46.3026 995.499 88.8026 969.799C118.503 951.899 138.303 922.099 148.803 889.999C154.603 872.299 157.503 853.799 157.603 836.099C157.803 786.599 140.303 741.699 123.603 697.399C108.503 656.999 93.5025 614.599 92.5025 568.299C92.4025 563.699 92.4025 558.999 92.6025 554.299C94.8025 502.499 120.303 445.499 167.003 421.799C203.603 403.299 243.903 407.799 281.703 414.699C285.403 415.399 289.103 416.099 292.803 416.699C342.003 426.099 391.503 435.199 442.203 445.099C479.203 452.199 524.603 457.899 555.203 430.699C586.003 403.199 589.103 362.799 588.703 324.199C588.303 287.499 584.503 247.499 582.203 209.499C580.603 184.199 580.003 159.499 581.903 135.099C582.803 122.899 584.503 110.699 586.903 98.6993C596.803 50.5993 619.803 5.19939 656.003 -25.5006C701.203 -63.8006 767.803 -73.7007 810.003 -46.7007" stroke="#031A2E" stroke-miterlimit="10"/>
<path d="M-126.299 1263.8C-154.499 1220.8 -160.599 1164.5 -142.699 1116.2C-128.099 1076.9 -97.8989 1043.7 -60.5989 1024.4C-52.0989 1020 -43.1989 1016.3 -34.0989 1013.5C13.3011 998.7 67.0011 1004.4 110.801 978.9C141.301 961 161.101 930.3 170.601 896.8C175.901 878.3 178.101 858.9 177.201 840.4C174.701 788.4 153.101 740.9 132.401 694.2C113.701 651.7 95.1011 607.3 92.2011 559.5C91.9011 554.7 91.8011 549.9 91.8011 545.1C92.1011 491.8 118.401 433.4 167.601 410.9C206.201 393.3 249.101 400.5 289.201 410.1C293.101 411 297.101 412 301.001 413C353.201 426 405.601 438.9 458.601 452.2C497.201 461.8 544.601 469.8 575.301 441.8C605.201 414.5 604.401 371.6 601.301 333C598.401 296.5 594.501 258 593.601 220.7C593.001 195.9 593.801 171.3 597.401 147.2C599.201 135.1 601.701 123.1 605.101 111.2C618.601 63.7998 645.201 19.9999 684.901 -8.00012C734.501 -42.9001 805.401 -47.0001 848.401 -12.1001" stroke="#031A2E" stroke-miterlimit="10"/>
<path d="M-120.098 1270.8C-148.398 1226.8 -153.698 1169.1 -133.998 1120.1C-114.298 1071.1 -69.8976 1032.2 -18.2976 1018.3C31.6024 1004.9 87.6024 1013.4 132.502 987.9C181.202 960.3 201.702 899.1 196.502 844.6C191.302 790.1 165.502 740 141.002 691C116.402 642 92.2024 590.8 90.7024 536C89.2024 481.2 116.102 421.4 168.002 400.1C212.702 381.8 263.102 395.5 309.002 409.3C364.302 426 419.502 442.6 474.802 459.3C515.102 471.4 564.402 481.7 595.302 452.9C624.302 425.8 619.502 380.4 613.802 341.8C604.902 281.4 599.702 219.3 612.802 159.3C625.902 99.2998 659.702 40.9999 713.602 9.59985C767.502 -21.8001 842.702 -20.1002 886.602 22.6998" stroke="#031A2E" stroke-miterlimit="10"/>
<path d="M-137.699 1235.5C-157.899 1192.1 -155.299 1139.6 -132.199 1098.1C-109.099 1056.5 -65.5988 1026.8 -12.7988 1017.4C37.2012 1008.5 94.1012 1017.6 140.601 993.3C190.701 966.9 214.501 906.6 210.501 851.2C206.701 797.8 181.501 748.9 158.901 700.5C135.101 649.7 112.701 596.3 111.001 539.8C109.401 485.5 134.701 426.2 185.401 404.2C229.101 385.2 279.401 397.8 324.901 411.2C379.301 427.3 433.401 444 487.801 460.2C528.101 472.1 577.301 481.6 608.201 452.8C637.401 425.6 633.301 380.1 627.801 341.3C619.301 282 613.701 221.1 626.501 162.2C639.301 103.1 672.801 46 725.901 15.1C779.001 -15.8 852.701 -14.4001 896.501 26.7999" stroke="#031A2E" stroke-miterlimit="10"/>
<path d="M-155.299 1200.3C-167.499 1157.4 -156.899 1110.3 -130.399 1076.2C-103.899 1042 -61.399 1021.4 -7.399 1016.5C42.701 1011.9 100.501 1021.9 148.601 998.6C200.101 973.6 227.101 913.9 224.401 857.8C221.901 805.7 197.501 757.8 176.801 710C153.801 657.3 133.201 601.8 131.401 543.5C129.801 489.7 153.401 430.9 203.001 408.2C245.801 388.5 295.801 400 341.101 413C394.601 428.5 447.701 445.3 501.101 461C541.401 472.7 590.501 481.3 621.401 452.6C650.801 425.3 647.401 379.6 642.001 340.6C633.801 282.4 628.001 222.8 640.401 165C652.901 106.9 686.201 50.7999 738.501 20.4999C790.801 -9.80012 863.001 -8.7001 906.701 30.8999" stroke="#031A2E" stroke-miterlimit="10"/>
<path d="M-172.9 1165C-177 1122.7 -158.6 1081 -128.7 1054.2C-98.8998 1027.5 -57.2998 1015.9 -1.99982 1015.6C48.0002 1015.3 106.9 1026.2 156.5 1003.9C209.4 980.2 239.6 921.3 238.2 864.4C237 813.5 213.5 766.6 194.5 719.5C172.4 664.9 153.5 607.3 151.5 547.3C149.9 494.1 171.8 435.7 220.2 412.2C262.1 391.8 311.9 402.1 356.8 414.8C409.4 429.8 461.4 446.6 513.9 461.7C554.3 473.1 603.2 481 634.1 452.3C663.7 424.9 661 379.1 655.8 339.8C648.1 282.7 641.8 224.3 653.9 167.7C666.1 110.5 699.1 55.5 750.6 25.9C802.1 -3.79998 872.7 -3 916.4 35" stroke="#031A2E" stroke-miterlimit="10"/>
<path d="M-190.5 1129.7C-186.5 1088 -160.4 1051.6 -126.9 1032.2C-93.9 1013 -53.3 1010.3 3.39999 1014.7C53.3 1018.6 113.3 1030.5 164.5 1009.3C218.7 986.8 254.8 928.7 252.1 871.1C249.7 821.6 229.7 775.4 212.3 729.1C191.1 672.5 173.9 612.9 171.8 551.2C170.1 498.5 190.4 440.6 237.6 416.4C278.5 395.3 328.1 404.5 372.7 416.8C424.4 431.2 475.3 448.3 527 462.7C567.4 474 616.1 480.9 647.1 452.4C676.9 424.9 674.9 378.9 669.8 339.5C662.5 283.6 655.9 226.4 667.7 170.9C679.6 114.7 712.4 60.8002 763.1 31.7002C813.8 2.60019 882.9 3.10027 926.5 39.4003" stroke="#031A2E" stroke-miterlimit="10"/>
<path d="M-208.098 1094.4C-195.998 1053.3 -162.298 1022.3 -125.198 1010.2C-89.0976 998.499 -49.3976 1004.5 8.80235 1013.7C58.6024 1021.6 119.702 1034.6 172.502 1014.5C228.102 993.299 267.802 935.999 266.002 877.599C264.502 829.299 245.902 784.099 230.202 738.599C210.002 679.999 194.402 618.399 192.202 554.899C190.502 502.699 209.102 445.299 255.202 420.399C295.202 398.699 344.602 406.699 388.902 418.599C439.702 432.499 489.602 449.599 540.302 463.499C580.702 474.599 629.302 480.699 660.202 452.199C690.202 424.599 688.902 378.499 683.902 338.799C677.002 283.999 670.002 227.999 681.502 173.699C693.102 118.399 725.702 65.5994 775.502 37.0994C825.302 8.59937 892.902 8.69939 936.402 43.4994" stroke="#031A2E" stroke-miterlimit="10"/>
<path d="M-225.699 1059.2C-205.599 1018.6 -164.199 992.9 -123.399 988.3C-84.1992 983.9 -45.3992 998.7 14.2008 1012.9C63.8008 1024.7 126.101 1039 180.501 1019.9C237.501 1000 277.101 943.5 279.901 884.2C282.101 837.2 262.201 792.7 248.001 748.1C228.801 687.4 214.801 623.8 212.401 558.7C210.701 507.1 227.601 450.2 272.501 424.5C311.501 402.1 360.701 408.9 404.701 420.5C454.601 433.7 503.401 451 553.201 464.4C593.601 475.3 642.101 480.5 673.001 452.1C703.201 424.4 702.601 378.2 697.801 338.2C691.301 284.5 684.001 229.8 695.101 176.6C706.401 122.3 738.701 70.5002 787.701 42.6002C836.701 14.7002 902.801 14.5002 946.201 47.7002" stroke="#031A2E" stroke-miterlimit="10"/>
<path d="M-243.301 1023.9C-215.101 983.9 -166.101 963.3 -121.701 966.3C-79.5008 969.2 -41.4008 992.699 19.4992 1011.9C68.9992 1027.5 132.399 1043.1 188.399 1025.2C246.699 1006.5 289.399 950.9 293.699 890.8C296.899 845.1 278.399 801.4 265.799 757.6C247.699 694.8 235.099 629.3 232.699 562.5C230.899 511.4 246.099 455 289.899 428.5C327.999 405.4 376.999 411.099 420.599 422.299C469.599 434.899 517.299 452.299 566.299 465.199C606.699 475.799 654.999 480.299 685.999 451.899C716.399 423.999 716.499 377.799 711.799 337.599C705.699 285.099 698.099 231.5 708.799 179.4C719.799 126 751.899 75.3995 800.099 47.9995C848.299 20.5995 912.799 20.1995 956.199 51.6995" stroke="#031A2E" stroke-miterlimit="10"/>
<path d="M-260.898 988.599C-224.598 949.199 -167.998 933.699 -119.898 944.299C-74.5984 954.399 -37.3984 986.599 25.0016 1011C74.4016 1030.3 138.802 1047.4 196.502 1030.5C256.102 1013.1 301.702 958.299 307.602 897.399C311.802 852.999 294.902 809.999 283.602 767.099C266.602 702.199 255.502 634.799 252.902 566.299C251.102 515.799 264.602 459.799 307.302 432.599C344.402 408.799 393.202 413.299 436.602 424.199C484.702 436.299 531.402 453.699 579.402 466.099C619.902 476.499 668.002 480.099 699.002 451.799C729.602 423.799 730.402 377.399 725.902 336.999C720.102 285.599 712.202 233.299 722.702 182.299C733.402 129.899 765.302 80.2994 812.602 53.4994C860.002 26.6994 923.002 25.9994 966.302 55.8994" stroke="#031A2E" stroke-miterlimit="10"/>
<path d="M-278.5 953.3C-234.2 914.4 -169.9 904 -118.2 922.3C-69.7 939.5 -33.3 980.4 30.3 1010.1C79.7 1033.1 145.1 1051.6 204.3 1035.8C265.3 1019.6 313.9 965.7 321.4 904C326.6 860.9 311.2 818.7 301.4 776.6C285.7 709.5 275.9 640.3 273.2 570C271.4 520 283.2 464.5 324.7 436.6C360.9 412.1 409.5 415.5 452.5 426C499.7 437.5 545.3 455 592.4 466.8C632.9 477 680.9 479.8 711.9 451.5C742.7 423.4 744.2 376.9 739.8 336.2C734.4 285.9 726.2 234.8 736.3 185C746.7 133.5 778.3 85.0996 824.9 58.7996C871.5 32.4996 932.9 31.4997 976.2 59.8997" stroke="#031A2E" stroke-miterlimit="10"/>
<path d="M-296.098 918C-243.698 879.7 -171.598 874.3 -116.398 900.3C-64.6977 924.7 -29.0976 974.1 35.8024 1009.1C85.2024 1035.7 151.602 1055.7 212.402 1041.1C274.802 1026.1 326.302 973.1 335.402 910.6C341.502 868.7 327.902 827.3 319.302 786.1C304.902 716.9 296.402 645.8 293.502 573.8C291.602 524.3 301.802 469.3 342.202 440.6C377.402 415.4 425.802 417.7 468.502 427.8C514.802 438.7 559.302 456.3 605.602 467.6C646.102 477.5 694.002 479.5 724.902 451.3C755.902 423.1 758.102 376.5 753.902 335.6C748.802 286.5 740.302 236.6 750.102 187.9C760.202 137.4 791.602 90 837.302 64.3C883.002 38.6 943.002 37.3001 986.102 64.0001" stroke="#031A2E" stroke-miterlimit="10"/>
<path d="M-313.699 882.8C-253.199 845.1 -173.399 844.7 -114.699 878.4C-59.7992 909.9 -24.8992 967.9 41.1008 1008.3C90.5008 1038.5 157.901 1060 220.301 1046.5C284.001 1032.7 338.301 980.5 349.101 917.2C356.101 876.6 344.301 835.9 337.001 795.6C324.101 724.2 316.701 651.3 313.701 577.6C311.801 528.7 320.301 474.1 359.501 444.7C393.801 418.8 442.001 420 484.401 429.7C529.801 440.1 573.301 457.7 618.601 468.5C659.201 478.2 706.801 479.4 737.801 451.2C769.001 422.9 771.801 376.1 767.801 335C763.101 287 754.301 238.3 763.801 190.8C773.701 141.2 804.801 94.9 849.701 69.8C894.601 44.7 953.001 43.1 996.101 68.2" stroke="#031A2E" stroke-miterlimit="10"/>
<path d="M-331.301 847.5C-262.701 810.4 -175.101 815 -112.901 856.5C-54.8008 895.2 -20.6008 961.6 46.5992 1007.5C96.1992 1041.3 164.299 1064.3 228.399 1051.9C293.499 1039.3 350.499 988 363.099 923.9C370.899 884.6 360.999 844.6 354.899 805.2C343.599 731.6 337.199 656.8 333.999 581.5C332.099 533.1 338.899 479 376.899 448.9C410.299 422.3 458.199 422.4 500.299 431.7C544.799 441.5 587.199 459.2 631.599 469.5C672.199 478.9 719.699 479.3 750.699 451.2C782.099 422.8 785.599 375.9 781.699 334.5C777.299 287.6 768.199 240.2 777.399 193.8C786.999 145.1 817.799 100 861.899 75.5002C905.999 51.0002 962.899 49.1002 1005.9 72.6002" stroke="#031A2E" stroke-miterlimit="10"/>
<path d="M-348.898 812.2C-272.298 775.6 -176.798 785.4 -111.098 834.5C-49.6984 880.4 -16.1984 955.2 52.0016 1006.5C101.702 1043.9 170.702 1068.4 236.402 1057.2C302.802 1045.8 362.502 995.3 377.002 930.5C385.602 892.4 377.702 853.2 372.802 814.7C363.202 738.9 357.702 662.3 354.402 585.2C352.402 537.4 357.602 483.8 394.502 452.8C426.902 425.5 474.602 424.5 516.402 433.4C560.002 442.8 601.402 460.4 644.802 470.2C685.402 479.4 732.802 479 763.802 451C795.402 422.5 799.602 375.5 795.902 333.9C791.802 288.2 782.502 241.9 791.302 196.6C800.602 148.9 831.202 104.8 874.402 80.9C917.602 57 973.002 54.7 1016 76.6" stroke="#031A2E" stroke-miterlimit="10"/>
<path d="M-366.5 776.9C-281.8 740.9 -178.6 755.7 -109.4 812.5C-44.7 865.5 -11.9 948.8 57.3 1005.6C107.2 1046.5 177 1072.5 244.2 1062.5C311.9 1052.2 374.2 1002.6 390.7 937.1C400 900.2 394.2 861.8 390.4 824.3C382.6 746.4 377.9 667.9 374.4 589.1C372.4 541.8 375.9 488.7 411.6 457C443.1 429 490.6 426.9 532.1 435.4C574.8 444.2 615.1 461.7 657.7 471.2C698.4 480 745.6 478.9 776.6 451C808.4 422.3 813.1 375.3 809.7 333.4C805.9 288.8 796.4 243.8 804.8 199.6C813.8 152.8 844.2 109.8 886.6 86.4999C929 63.0999 982.9 60.6 1025.8 80.9" stroke="#031A2E" stroke-miterlimit="10"/>
<path d="M-384.098 741.6C-291.298 706.2 -180.198 726 -107.598 790.5C-39.5977 850.7 -7.29763 942.4 62.8024 1004.6C113.002 1049.1 183.502 1076.7 252.302 1067.7C321.402 1058.7 386.102 1009.7 404.702 943.6C414.702 907.9 411.002 870.4 408.402 833.7C402.602 753.6 398.402 673.3 394.902 592.8C392.902 546 394.702 493.4 429.202 461C459.702 432.3 507.002 429.1 548.202 437.2C590.002 445.5 629.302 463.1 670.902 471.9C711.602 480.5 758.602 478.6 789.702 450.7C821.702 421.9 827.102 374.7 823.902 332.6C820.402 289.1 810.602 245.3 818.802 202.3C827.502 156.5 857.602 114.6 899.202 91.8C940.802 69 993.102 66.2001 1035.9 84.9001" stroke="#031A2E" stroke-miterlimit="10"/>
<path d="M-401.699 706.399C-300.899 671.599 -181.899 696.499 -105.899 768.599C-34.6992 835.999 -2.89923 936.099 68.1008 1003.8C118.501 1051.9 189.701 1081 260.201 1073.2C330.701 1065.4 397.701 1017.1 418.501 950.299C429.201 915.799 427.701 879.099 426.101 843.299C422.401 761.099 418.701 678.899 415.101 596.699C413.001 550.499 413.201 498.299 446.601 465.199C476.201 435.899 523.301 431.499 564.101 439.199C605.001 446.899 643.201 464.599 683.901 472.899C724.601 481.199 771.501 478.599 802.501 450.699C834.701 421.799 840.801 374.499 837.701 332.199C834.601 289.899 824.501 247.299 832.301 205.399C840.701 160.499 870.601 119.699 911.401 97.4995C952.201 75.2994 1003 72.1994 1045.7 89.1994" stroke="#031A2E" stroke-miterlimit="10"/>
</g>
<mask id="mask2_1102_60595" style="mask-type:luminance" maskUnits="userSpaceOnUse" x="-96" y="-88" width="800" height="1200">
<path d="M-96 -88L-96 1112H704L704 -88H-96Z" fill="white"/>
</mask>
<g mask="url(#mask2_1102_60595)">
<path d="M-126.799 1045.1C-121.899 994.3 -88.599 947.2 -42.399 925.6C3.80096 904 61.301 908.7 103.401 937.6C142.201 964.2 168.501 1009.3 212.701 1025.3C260.201 1042.4 316.501 1017.3 343.101 974.4C390.101 898.4 352.301 791.1 287.801 737.5C265.001 718.5 238.001 706.6 217.501 684.7C184.901 649.9 178.901 608.4 162.201 565.8C146.001 524.5 115.801 489.1 77.301 467C26.701 437.9 -58.999 425.6 -109.299 462.5C-136.699 482.6 -152.399 520.4 -140.499 552.3L-126.799 1045.1Z" fill="#013440"/>
</g>
<mask id="mask3_1102_60595" style="mask-type:luminance" maskUnits="userSpaceOnUse" x="-96" y="-88" width="800" height="1200">
<path d="M-96 -88L-96 1112H704L704 -88H-96Z" fill="white"/>
</mask>
<g mask="url(#mask3_1102_60595)">
<path d="M438.202 -269.9C416.802 -221.7 418.002 -166.2 428.202 -114.4C443.502 -36.7 478.202 36.8 482.602 116.6C486.202 181.6 463.402 235.4 428.202 288.5C404.902 323.6 379.202 357.6 362.502 396.6C317.702 501.4 353.602 636.1 444.602 704.7C501.802 747.8 573.702 765.2 638.202 796.2C702.702 827.2 765.402 881.5 769.402 953H844.902V-270L438.202 -269.9Z" fill="#013440"/>
</g>
<mask id="mask4_1102_60595" style="mask-type:luminance" maskUnits="userSpaceOnUse" x="-96" y="-88" width="800" height="1200">
<path d="M-96 -88L-96 1112H704L704 -88H-96Z" fill="white"/>
</mask>
<g mask="url(#mask4_1102_60595)">
<path d="M-146.698 893.4C-168.998 843.3 -166.298 783.2 -139.598 735.3C-112.898 687.3 -62.6984 652.5 -7.4984 643.6C62.7016 632.3 139.002 660.5 203.802 631.7C258.702 607.3 288.002 549.6 315.402 497.2C342.902 444.7 378.602 388.7 437.002 373.8C476.402 363.7 521.302 374.3 556.602 354.6C592.502 334.5 605.702 289 601.702 248.8C597.802 208.6 580.402 171 569.402 132C535.902 14.0004 563.502 -119 641.602 -214.9" stroke="#013440" stroke-miterlimit="10"/>
<path d="M-144.701 898.5C-158.401 867 -161.901 831.5 -155.601 798.1C-151.801 777.8 -144.401 758.2 -133.701 740.6C-126.501 728.9 -117.901 718.1 -108.201 708.4C-84.8006 685.2 -55.0007 668.6 -22.4007 659C-14.6007 656.7 -6.70065 654.8 1.29935 653.4C28.4993 648.5 56.1993 648.5 83.1993 648.7C118.299 649 152.399 649.8 184.199 639.5C191.199 637.2 198.199 634.4 204.999 630.9C229.599 618.3 248.799 598.6 265.499 575.8C284.099 550.4 299.699 521.1 315.199 494.4C317.299 490.8 319.399 487.2 321.599 483.6C337.499 457.5 355.599 432.5 377.799 413.2C395.399 397.8 415.799 386.1 439.799 381.1C452.599 378.4 465.999 377.8 479.399 377.7C507.199 377.3 535.699 378.7 559.799 365.4C591.199 348 604.899 310.9 605.399 275.2C605.499 270.2 605.299 265.3 604.899 260.4C601.499 220.5 585.399 183.1 575.599 144.5C573.099 134.8 571.099 125 569.399 115.2C560.299 60.7 564.099 4.40002 579.299 -48.1C594.499 -100.4 620.999 -148.6 655.999 -188.3" stroke="#013E49" stroke-miterlimit="10"/>
<path d="M-142.598 903.601C-156.098 871.701 -158.798 835.901 -151.498 802.601C-147.098 782.401 -138.998 763.101 -127.598 746.001C-119.998 734.601 -110.998 724.201 -100.898 715.101C-76.6983 693.201 -46.3984 678.401 -13.5984 669.001C-5.69836 666.701 2.30167 664.801 10.3017 663.201C37.6017 657.701 64.8016 656.201 90.9016 654.901C124.702 653.201 156.802 651.801 186.802 639.901C193.402 637.301 200.002 634.201 206.402 630.401C229.602 616.801 247.802 596.401 264.202 573.201C282.402 547.301 298.702 517.801 315.202 492.001C317.402 488.501 319.702 485.101 322.002 481.701C339.002 456.801 357.802 434.201 380.402 417.001C398.302 403.201 418.802 393.001 442.702 389.001C455.502 386.901 468.902 386.801 482.302 387.101C510.102 387.701 538.702 390.001 563.202 376.701C594.402 359.601 607.802 322.601 608.602 287.201C608.702 282.301 608.602 277.401 608.202 272.501C605.302 232.901 590.502 195.701 581.902 157.501C579.702 147.901 578.002 138.201 576.702 128.501C569.302 74.7006 574.802 19.5006 591.702 -30.7994C608.502 -80.8994 636.402 -125.699 670.702 -161.399" stroke="#014752" stroke-miterlimit="10"/>
<path d="M-140.501 908.601C-153.701 876.301 -155.801 840.101 -147.501 806.901C-142.501 786.801 -133.701 767.801 -121.601 751.301C-113.601 740.301 -104.201 730.301 -93.7013 721.701C-68.7013 701.101 -38.0013 688.201 -4.80135 678.801C3.19865 676.601 11.1987 674.501 19.1987 672.801C46.4987 666.801 73.3986 663.701 98.4986 660.801C131.099 657.001 161.099 653.401 189.199 640.001C195.399 637.001 201.599 633.601 207.599 629.501C229.399 614.901 246.599 593.801 262.599 570.101C280.499 543.701 297.299 514.001 314.899 489.101C317.299 485.701 319.699 482.401 322.099 479.201C340.099 455.501 359.799 435.301 382.699 420.101C400.899 408.001 421.499 399.101 445.399 396.301C458.199 394.801 471.499 395.201 484.899 396.001C512.599 397.601 541.499 400.801 566.199 387.501C597.199 370.601 610.399 333.801 611.399 298.701C611.499 293.801 611.499 289.001 611.199 284.201C608.799 244.901 595.199 207.901 587.899 170.101C585.999 160.601 584.599 151.001 583.599 141.401C577.899 88.3006 585.199 34.2006 603.599 -13.9994C621.999 -61.9994 651.299 -103.299 684.899 -134.899" stroke="#02515B" stroke-miterlimit="10"/>
<path d="M-138.401 913.7C-151.401 881 -152.801 844.4 -143.401 811.4C-137.801 791.4 -128.201 772.7 -115.601 756.7C-107.201 746 -97.3009 736.5 -86.6009 728.5C-60.8009 709.2 -29.601 698.1 3.89905 688.9C11.999 686.7 20.0991 684.6 28.0991 682.6C55.4991 676 81.9991 671.4 106.099 666.9C137.399 661 165.399 655.2 191.699 640.2C197.499 636.9 203.199 633.1 208.899 628.8C229.299 613.1 245.499 591.4 261.199 567.3C278.699 540.4 296.199 510.6 314.799 486.5C317.299 483.3 319.799 480.1 322.499 477C341.599 454.5 361.999 436.7 385.399 423.5C403.899 413 424.599 405.5 448.499 403.8C461.299 402.9 474.599 403.8 487.899 405.1C515.499 407.6 544.699 411.9 569.699 398.5C600.599 382 613.399 345.2 614.699 310.4C614.899 305.6 614.899 300.7 614.599 296C612.699 257 600.399 220.2 594.299 182.8C592.799 173.4 591.599 163.9 590.899 154.5C586.899 102.1 595.999 49.1002 615.999 3.10022C635.999 -42.6998 666.699 -80.5997 699.599 -108.1" stroke="#025B64" stroke-miterlimit="10"/>
<path d="M-136.301 918.801C-149.101 885.701 -149.801 848.701 -139.401 815.801C-133.101 795.901 -122.901 777.501 -109.601 762.001C-100.701 751.601 -90.501 742.601 -79.401 735.101C-52.801 717.101 -21.1009 707.901 12.6991 698.801C20.8991 696.601 28.999 694.401 36.999 692.301C64.399 685.201 90.599 679.001 113.699 672.901C143.799 665.001 169.799 656.901 194.199 640.401C199.599 636.701 204.899 632.701 210.199 628.001C229.199 611.301 244.399 588.901 259.799 564.301C276.899 536.801 295.099 506.901 314.699 483.701C317.299 480.601 319.999 477.601 322.799 474.701C342.999 453.401 364.199 438.101 387.899 426.901C406.699 418.001 427.599 411.901 451.399 411.301C464.199 411.001 477.499 412.401 490.799 414.101C518.299 417.601 547.799 422.801 572.999 409.401C603.699 393.101 616.299 356.501 617.799 322.001C617.999 317.201 617.999 312.401 617.899 307.701C616.499 269.001 605.499 232.401 600.599 195.401C599.399 186.101 598.499 176.801 598.099 167.401C595.799 115.701 606.599 63.9008 628.299 20.0008C649.899 -23.6992 681.999 -58.1992 714.199 -81.4992" stroke="#02646D" stroke-miterlimit="10"/>
<path d="M-134.2 923.9C-146.8 890.4 -146.7 853 -135.3 820.3C-128.4 800.5 -117.5 782.4 -103.5 767.4C-94.2 757.4 -83.6 748.8 -72.2 741.8C-44.7 725.2 -12.7 717.8 21.5 708.8C29.8 706.6 37.9 704.4 46 702.1C73.5 694.4 99.2 686.8 121.4 679C150.2 669 174.2 658.7 196.8 640.6C201.8 636.6 206.7 632.2 211.6 627.3C229.2 609.6 243.4 586.5 258.5 561.5C275.3 533.5 294.1 503.4 314.7 481.1C317.5 478.1 320.3 475.2 323.2 472.5C344.4 452.4 366.4 439.5 390.5 430.3C409.6 423.1 430.6 418.3 454.4 418.9C467.2 419.2 480.5 421.1 493.7 423.3C521.1 427.8 550.9 433.9 576.4 420.5C607 404.5 619.2 368 621 333.8C621.3 329 621.3 324.3 621.2 319.6C620.3 281.3 610.5 244.8 606.9 208.2C606 199 605.5 189.8 605.4 180.5C604.8 129.5 617.4 78.8004 640.7 37.1004C663.9 -4.3996 697.4 -35.4996 728.9 -54.6996" stroke="#026E77" stroke-miterlimit="10"/>
<path d="M-132.2 928.9C-144.6 895.1 -143.8 857.2 -131.4 824.7C-123.9 805 -112.3 787.2 -97.5997 772.7C-87.8997 763 -76.8997 754.9 -65.0997 748.5C-36.7997 733.2 -4.2997 727.6 30.2003 718.7C38.5003 716.6 46.8003 714.2 54.9003 711.8C82.4003 703.6 107.8 694.4 129 685C156.6 672.9 178.5 660.5 199.2 640.8C203.8 636.5 208.3 631.8 212.8 626.5C229 607.8 242.3 583.9 256.9 558.5C273.3 530 292.7 499.7 314.5 478.3C317.4 475.4 320.4 472.7 323.4 470.1C345.7 451.2 368.4 440.7 392.9 433.6C412.2 428 433.4 424.7 457.1 426.3C469.9 427.2 483.1 429.6 496.4 432.3C523.8 437.7 553.7 444.8 579.5 431.5C609.9 415.7 621.9 379.4 623.9 345.5C624.2 340.8 624.3 336.1 624.3 331.4C624 293.4 615.4 257.1 613 220.9C612.4 211.8 612.2 202.7 612.4 193.6C613.5 143.3 627.9 93.7004 652.7 54.2004C677.5 14.8004 712.4 -12.7996 743.2 -27.9996" stroke="#027880" stroke-miterlimit="10"/>
<path d="M-130.101 934C-142.301 899.8 -140.801 861.6 -127.301 829.1C-119.201 809.5 -106.801 792 -91.6014 778C-81.4014 768.7 -70.0014 761 -57.9014 755.1C-28.8014 741.1 4.09856 737.4 38.9986 728.6C47.3986 726.5 55.6986 724.1 63.7986 721.5C91.3986 712.8 116.399 702 136.599 691C162.899 676.8 182.899 662.2 201.699 641C205.799 636.3 209.999 631.3 214.099 625.8C228.899 606 241.199 581.5 255.499 555.6C271.499 526.6 291.599 496.1 314.399 475.7C317.399 473 320.599 470.4 323.699 467.9C347.099 450.2 370.499 442.1 395.399 437C414.999 433 436.299 431.1 459.999 433.8C472.799 435.3 485.999 438.2 499.199 441.3C526.499 447.7 556.699 455.7 582.799 442.4C612.999 426.9 624.699 390.7 626.999 357.1C627.299 352.4 627.499 347.8 627.499 343.2C627.699 305.5 620.399 269.4 619.199 233.5C618.899 224.5 618.999 215.5 619.499 206.5C622.299 156.9 638.499 108.5 664.899 71.1C691.299 33.9 727.599 9.69998 757.699 -1.40002" stroke="#038189" stroke-miterlimit="10"/>
<path d="M-127.998 939.101C-139.998 904.501 -137.798 865.901 -123.298 833.601C-114.598 814.101 -101.499 796.901 -85.5985 783.401C-74.9985 774.401 -63.1985 767.101 -50.7985 761.801C-20.8985 749.101 12.5015 747.201 47.7015 738.601C56.2015 736.501 64.6015 734.001 72.7015 731.301C100.402 722.001 124.902 709.701 144.302 697.101C169.402 680.901 187.302 664.101 204.302 641.201C208.002 636.201 211.802 630.801 215.502 625.101C228.902 604.301 240.201 579.101 254.201 552.801C269.901 523.301 290.601 492.601 314.401 473.101C317.601 470.501 320.801 468.001 324.201 465.801C348.601 449.301 372.802 443.601 398.102 440.601C418.002 438.201 439.502 437.701 463.102 441.501C475.902 443.601 489.102 447.001 502.302 450.601C529.502 458.001 560.002 466.901 586.302 453.601C616.402 438.401 627.801 402.201 630.301 369.001C630.701 364.401 630.902 359.701 631.002 355.201C631.702 317.801 625.601 281.901 625.701 246.401C625.701 237.501 626.102 228.601 626.902 219.701C631.402 170.801 649.302 123.501 677.402 88.3005C705.402 53.3005 743.102 32.4006 772.502 25.5006" stroke="#038B92" stroke-miterlimit="10"/>
<path d="M-125.902 944.101C-137.702 909.101 -134.802 870.101 -119.202 837.901C-109.902 818.501 -96.1016 801.601 -79.5016 788.701C-68.5016 780.101 -56.3016 773.201 -43.5016 768.401C-12.8016 757.001 21.0984 757.001 56.5984 748.501C65.1984 746.401 73.5984 743.901 81.6984 741.001C109.398 731.201 133.598 717.301 151.998 703.101C175.798 684.801 191.698 665.801 206.898 641.401C210.198 636.001 213.498 630.401 216.898 624.301C228.898 602.501 239.198 576.601 252.798 549.801C268.098 519.801 289.498 488.901 314.298 470.301C317.598 467.801 320.998 465.501 324.498 463.401C349.998 448.201 374.898 444.801 400.598 443.801C420.698 443.001 442.398 444.001 465.998 448.901C478.798 451.601 491.998 455.501 505.098 459.601C532.198 468.001 562.898 477.801 589.598 464.501C619.498 449.501 630.598 413.501 633.398 380.601C633.798 376.001 634.098 371.401 634.198 366.901C635.398 329.801 630.598 294.101 631.898 259.001C632.198 250.201 632.898 241.401 634.098 232.601C640.198 184.401 659.998 138.201 689.698 105.201C719.298 72.3006 758.398 54.9006 787.098 52.1006" stroke="#03959B" stroke-miterlimit="10"/>
<path d="M-123.8 949.2C-135.4 913.8 -131.7 874.4 -115.2 842.4C-105.3 823 -90.7001 806.5 -73.6001 794.1C-62.2001 785.8 -49.5 779.4 -36.4 775.2C-4.90005 765.1 29.4 766.9 65.3 758.6C74 756.6 82.4999 753.9 90.5999 750.9C118.4 740.5 142.2 725.1 159.6 709.4C182.2 689 196.1 667.9 209.3 641.8C212.2 636.1 215.1 630.1 218.1 623.8C228.7 600.9 238 574.4 251.3 547.2C266.2 516.7 288.2 485.7 314.1 467.9C317.6 465.5 321.1 463.3 324.7 461.4C351.3 447.4 376.9 446.4 403 447.4C423.4 448.2 445.2 450.6 468.8 456.6C481.6 459.9 494.7 464.3 507.9 468.9C534.9 478.2 565.9 489 592.8 475.7C622.5 461 633.3 425.1 636.4 392.5C636.8 388 637.2 383.4 637.4 378.9C639.1 342.1 635.6 306.6 638.1 271.9C638.7 263.2 639.8 254.5 641.2 245.9C649 198.5 670.6 153.3 701.8 122.5C733 91.8002 773.5 77.8002 801.5 79.1002" stroke="#039EA4" stroke-miterlimit="10"/>
<path d="M-121.699 954.301C-133.099 918.501 -128.699 878.701 -111.099 846.801C-100.499 827.501 -85.2993 811.301 -67.4993 799.401C-55.5993 791.501 -42.5992 785.501 -29.1992 781.801C3.20076 773.001 37.9007 776.701 74.0007 768.401C82.8007 766.401 91.3007 763.701 99.5007 760.501C127.301 749.601 150.801 732.601 167.201 715.301C188.501 692.901 200.401 669.501 211.801 641.901C214.301 635.901 216.801 629.501 219.401 622.901C228.601 599.001 236.901 571.801 249.901 544.101C264.501 513.101 287.101 481.901 314.001 465.001C317.601 462.701 321.301 460.701 325.001 459.001C352.601 446.201 379.101 447.601 405.501 450.701C426.201 453.101 448.101 456.901 471.601 464.001C484.401 467.901 497.501 472.801 510.601 477.801C537.601 488.101 568.801 499.801 596.001 486.501C625.601 472.001 636.101 436.301 639.401 404.001C639.901 399.501 640.201 395.001 640.501 390.501C642.701 354.001 640.501 318.701 644.201 284.401C645.101 275.801 646.501 267.201 648.201 258.701C657.701 212.001 681.101 168.001 713.901 139.301C746.701 110.701 788.601 100.201 815.901 105.601" stroke="#03A8AD" stroke-miterlimit="10"/>
<path d="M-119.701 959.4C-130.801 923.2 -125.801 883 -107.201 851.3C-96.0005 832.1 -80.1005 816.2 -61.6005 804.8C-49.3005 797.2 -35.9005 791.7 -22.1005 788.5C11.0995 781 46.1995 786.5 82.6995 778.4C91.5995 776.4 100.199 773.6 108.299 770.3C136.199 758.8 159.199 740.4 174.699 721.4C194.799 696.9 204.599 671.4 214.199 642.1C216.299 635.7 218.399 629.1 220.499 622.2C228.299 597.3 235.599 569.3 248.299 541.3C262.499 509.8 285.799 478.4 313.699 462.4C317.399 460.3 321.299 458.4 325.199 456.8C353.899 445.2 381.099 448.9 407.899 454.1C428.799 458.1 450.899 463.4 474.399 471.6C487.299 476.1 500.299 481.5 513.399 487C540.299 498.3 571.699 510.9 599.199 497.6C628.599 483.4 638.8 447.8 642.4 415.8C642.9 411.3 643.299 406.9 643.699 402.4C646.499 366.2 645.4 331.1 650.4 297.2C651.6 288.7 653.3 280.2 655.4 271.8C666.6 225.8 691.699 182.9 726.199 156.4C760.599 130 803.9 122.9 830.5 132.3" stroke="#03B2B6" stroke-miterlimit="10"/>
<path d="M-117.599 964.4C-128.499 927.9 -122.799 887.3 -103.099 855.6C-91.2988 836.5 -74.6988 820.9 -55.4988 810C-42.7988 802.8 -28.9988 797.7 -14.8988 795.1C19.1012 788.9 54.7012 796.3 91.5012 788.3C100.501 786.4 109.101 783.5 117.301 780C145.201 768 167.901 748 182.401 727.4C201.201 700.8 209.101 673.1 216.801 642.3C218.501 635.6 220.201 628.6 221.901 621.4C228.301 595.5 234.601 566.8 246.901 538.3C260.701 506.3 284.701 474.7 313.601 459.6C317.501 457.6 321.401 455.8 325.501 454.4C355.201 444 383.201 450.1 410.401 457.4C431.601 463 453.901 469.7 477.301 479C490.201 484.1 503.201 490 516.201 496C543.001 508.2 574.701 521.8 602.501 508.5C631.701 494.5 641.701 459.1 645.501 427.4C646.001 423 646.501 418.6 646.901 414.2C650.201 378.3 650.401 343.4 656.601 309.9C658.201 301.5 660.101 293.1 662.501 284.9C675.401 239.6 702.301 197.8 738.401 173.5C774.401 149.2 819.101 145.5 845.001 159.1" stroke="#04BBBF" stroke-miterlimit="10"/>
<path d="M-115.5 969.5C-126.2 932.6 -119.7 891.6 -99.1001 860.1C-86.7001 841.1 -69.3001 825.8 -49.6001 815.4C-36.4001 808.5 -22.2001 803.9 -7.80009 801.8C26.9999 796.9 62.9999 806.1 100.2 798.3C109.3 796.4 117.9 793.5 126.1 789.8C154.1 777.2 176.4 755.7 189.9 733.5C207.5 704.8 213.3 675 219.1 642.6C220.4 635.5 221.7 628.3 223 620.8C228 593.8 233.3 564.5 245.3 535.6C258.8 503 283.4 471.3 313.3 457.1C317.3 455.2 321.4 453.6 325.6 452.3C356.4 443.1 385.1 451.6 412.7 460.9C434.2 468.1 456.6 476.3 480 486.6C493.1 492.2 506.1 498.6 519.1 505.1C545.8 518.3 577.8 532.8 605.8 519.5C634.9 505.7 644.5 470.5 648.6 439.1C649.2 434.7 649.7 430.3 650.2 426C654 390.5 655.5 355.8 662.9 322.6C664.8 314.3 667 306 669.7 297.9C684.3 253.3 713 212.7 750.6 190.5C788.2 168.4 834.3 168.1 859.5 185.8" stroke="#04C5C8" stroke-miterlimit="10"/>
<path d="M-113.401 974.601C-123.901 937.301 -116.701 895.901 -95.0015 864.501C-82.0015 845.601 -63.9015 830.601 -43.5015 820.701C-29.9015 814.201 -15.3015 809.901 -0.501495 808.401C35.0985 804.801 71.5985 815.901 109.099 808.101C118.299 806.201 126.998 803.201 135.198 799.401C163.198 786.301 185.098 763.201 197.698 739.401C213.998 708.701 217.899 676.601 221.799 642.601C222.699 635.201 223.499 627.601 224.499 619.801C228.099 591.801 232.399 561.801 244.099 532.401C257.199 499.301 282.398 467.401 313.398 454.101C317.498 452.301 321.799 450.901 326.099 449.801C357.999 441.801 387.398 452.701 415.398 464.101C437.198 472.901 459.699 482.501 483.099 493.901C495.999 500.201 508.898 507.101 521.898 514.001C548.498 528.201 580.699 543.601 609.099 530.301C637.999 516.801 647.398 481.701 651.698 450.601C652.298 446.301 652.899 441.901 653.399 437.601C657.699 402.401 660.399 367.901 669.099 335.101C671.299 326.901 673.798 318.701 676.798 310.701C693.098 266.801 723.598 227.301 762.798 207.201C801.998 187.201 849.399 190.401 873.999 212.201" stroke="#04CFD2" stroke-miterlimit="10"/>
<path d="M-111.302 979.601C-121.602 941.901 -113.702 900.101 -91.0018 868.901C-77.4018 850.101 -58.6018 835.401 -37.5018 826.101C-23.5018 819.901 -8.50181 816.101 6.59819 815.101C43.0982 812.801 79.9982 825.701 117.798 818.101C127.098 816.201 135.798 813.201 144.098 809.201C172.198 795.501 193.698 770.901 205.298 745.501C220.398 712.701 222.298 678.501 224.298 642.901C224.798 635.201 225.198 627.201 225.798 619.201C227.998 590.201 231.298 559.501 242.598 529.601C255.298 496.001 281.198 463.901 313.298 451.601C317.598 449.901 321.998 448.601 326.498 447.701C359.398 440.901 389.698 454.201 418.098 467.601C440.198 478.001 462.798 489.101 486.098 501.601C498.998 508.501 511.898 515.901 524.798 523.301C551.398 538.501 583.798 554.801 612.398 541.601C641.098 528.301 650.198 493.401 654.898 462.601C655.498 458.301 656.198 454.001 656.798 449.701C661.598 414.801 665.598 380.501 675.498 348.001C677.998 339.901 680.898 331.801 684.198 323.901C702.198 280.701 734.398 242.301 775.298 224.401C816.098 206.601 864.898 213.201 888.798 239.101" stroke="#04D8DB" stroke-miterlimit="10"/>
<path d="M-109.2 984.7C-119.3 946.6 -110.7 904.4 -86.9003 873.4C-72.7003 854.7 -53.2003 840.3 -31.5003 831.5C-17.1003 825.6 -1.60029 822.3 13.7997 821.9C51.0997 820.9 88.3997 835.7 126.6 828.2C135.9 826.4 144.8 823.2 153 819.1C181.2 804.9 202.3 778.7 213 751.7C226.8 716.8 226.7 680.4 226.9 643.2C226.9 635.1 227 626.9 227.2 618.5C228 588.4 230.3 557.1 241.3 526.8C253.7 492.7 280.2 460.5 313.3 449C317.7 447.5 322.2 446.3 326.9 445.5C360.9 439.9 391.9 455.5 420.7 471C443.1 483 465.8 495.5 489.1 509.1C501.9 516.6 514.9 524.5 527.8 532.4C554.3 548.5 586.9 565.7 615.9 552.6C644.4 539.5 653.3 504.7 658.2 474.3C658.9 470 659.6 465.8 660.2 461.5C665.5 426.9 670.8 392.8 681.9 360.7C684.7 352.6 687.9 344.7 691.5 337C711.2 294.5 745.2 257.2 787.6 241.5C830 225.8 880.2 235.8 903.4 265.8" stroke="#04E2E4" stroke-miterlimit="10"/>
<path d="M-107.199 989.801C-117.099 951.301 -107.699 908.701 -82.9991 877.801C-68.0991 859.201 -47.8991 845.101 -25.5991 836.801C-10.6991 831.301 5.10086 828.401 20.9009 828.501C59.0009 828.801 96.8009 845.401 135.301 838.101C144.701 836.301 153.601 833.101 161.901 828.701C190.101 813.901 210.901 786.201 220.601 757.701C233.201 720.801 231.101 682.101 229.301 643.401C228.901 635.001 228.601 626.401 228.401 617.801C227.801 586.701 229.101 554.601 239.801 523.901C251.801 489.301 279.001 456.901 313.101 446.301C317.601 444.901 322.301 443.901 327.101 443.301C362.201 438.901 393.901 456.901 423.101 474.501C445.701 488.101 468.601 502.101 491.901 516.701C504.701 524.801 517.601 533.201 530.501 541.501C556.901 558.601 589.801 576.701 619.001 563.601C647.401 550.701 655.901 516.101 661.101 486.001C661.801 481.801 662.501 477.601 663.301 473.401C669.201 439.101 675.601 405.201 688.001 373.501C691.101 365.501 694.601 357.701 698.501 350.101C719.901 308.301 755.701 272.201 799.701 258.601C843.701 245.101 895.301 258.501 917.801 292.601" stroke="#05ECED" stroke-miterlimit="10"/>
<path d="M-105.1 994.9C-114.8 956 -104.7 913.1 -78.8999 882.3C-63.3999 863.8 -42.4999 850 -19.4999 842.2C-4.19987 837 12.0001 834.6 28.1001 835.2C67.0001 836.8 105.2 855.3 144.1 848C153.6 846.2 162.6 842.9 170.8 838.4C199.1 823.1 219.4 793.9 228.2 763.7C239.5 724.7 235.4 683.9 231.8 643.6C231 634.8 230.3 626 229.7 617C227.7 584.9 228 552.1 238.4 521C250 485.9 277.8 453.3 313 443.6C317.7 442.3 322.5 441.4 327.4 441C363.5 437.8 396.1 458.2 425.6 477.8C448.5 493 471.5 508.4 494.8 524.2C507.6 532.9 520.5 541.7 533.4 550.6C559.7 568.7 592.8 587.7 622.4 574.6C650.6 562 658.9 527.5 664.3 497.7C665.1 493.5 665.8 489.3 666.6 485.2C673 451.2 680.7 417.5 694.3 386.2C697.7 378.3 701.5 370.6 705.7 363.1C728.8 322 766.3 287 812 275.6C857.7 264.2 910.6 281.1 932.4 319.3" stroke="#05F5F6" stroke-miterlimit="10"/>
<path d="M-102.999 999.9C-112.499 960.7 -101.699 917.3 -74.899 886.6C-48.099 855.9 -5.89901 838.8 35.201 841.8C74.901 844.7 113.601 865.1 152.801 857.9C195.301 850.1 225.701 810.8 235.801 769.7C245.901 728.6 239.801 685.6 234.301 643.7C228.801 601.8 224.201 558.4 236.901 518C249.601 477.6 284.501 440.9 327.601 438.6C364.801 436.6 398.101 459.4 428.001 481.1C464.001 507.2 500.101 533.4 536.101 559.5C562.401 578.6 595.701 598.5 625.501 585.4C653.501 573.1 661.501 538.7 667.201 509.2C676.101 462.9 688.001 416.3 712.701 376C737.501 335.6 776.801 301.7 824.101 292.5C871.401 283.3 925.701 303.6 946.801 345.9" stroke="#05FFFF" stroke-miterlimit="10"/>
<path d="M-105.9 976.9C-111 939.5 -96.8 900.6 -69.6 874.7C-42.3 848.8 -2.40002 836.6 38.5 842.3C77.4 847.7 116.5 868.6 156.3 862.4C199.3 855.6 231.4 817.3 242.3 776.1C252.9 736 246.9 693.7 242.4 652.5C237.7 609.7 234.5 565.4 247.5 524.1C260.2 484 293.9 447.3 336.6 444.3C373.4 441.7 406.8 463.8 436.6 485.3C472.2 511 507.7 536.9 543.3 562.6C569.6 581.5 603 601 632.8 587.9C660.9 575.5 669.3 541.2 675.1 511.6C683.9 466 695.4 420.1 719.8 380.2C744.2 340.3 783.2 306.9 829.9 297.9C876.6 288.9 930.2 308.7 951.6 350.1" stroke="#05F8F8" stroke-miterlimit="10"/>
<path d="M-108.902 954C-109.602 918.5 -92.1016 884.1 -64.4016 863C-36.7016 841.9 0.998375 834.6 41.5984 843C79.6984 850.9 119.098 872.3 159.598 867C203.098 861.1 236.898 823.9 248.598 782.5C259.698 743.3 253.898 701.8 250.298 661.3C246.398 617.6 244.598 572.5 257.898 530.2C270.398 490.4 303.198 453.6 345.398 450C381.798 446.9 415.298 468.3 444.998 489.5C480.198 514.7 515.098 540.5 550.298 565.7C576.698 584.5 610.198 603.5 639.998 590.5C668.298 578.1 677.098 543.9 682.998 514.2C691.798 469.3 702.898 424 726.898 384.7C750.998 345.2 789.598 312.5 835.798 303.6C881.998 294.7 934.698 314.1 956.398 354.6" stroke="#05F1F2" stroke-miterlimit="10"/>
<path d="M-111.898 931C-108.298 897.4 -87.3984 867.4 -59.2984 851.1C-31.1984 834.7 4.20157 832.3 44.7016 843.5C82.0016 853.8 121.802 876 162.902 871.5C207.002 866.7 242.402 830.5 255.002 788.9C266.602 750.7 261.102 709.8 258.402 670.1C255.402 625.5 254.902 579.6 268.402 536.3C280.802 496.8 312.502 459.9 354.202 455.7C390.202 452 423.802 472.8 453.402 493.7C488.302 518.4 522.502 544 557.302 568.8C583.702 587.5 617.302 606 647.102 593C675.502 580.6 684.702 546.4 690.802 516.6C699.602 472.4 710.302 427.7 733.802 389C757.502 350 795.802 317.8 841.402 309.1C887.002 300.4 939.002 319.3 960.902 358.9" stroke="#05E9EB" stroke-miterlimit="10"/>
<path d="M-114.801 908C-106.801 876.3 -82.6008 850.8 -54.0008 839.2C-25.5008 827.6 7.5992 830 47.8992 844C84.2992 856.6 124.499 879.5 166.399 875.9C210.999 872.1 247.999 836.9 261.499 795.1C273.499 757.8 268.399 717.7 266.499 678.6C264.299 633.1 265.199 586.4 278.999 542.1C291.299 502.9 321.999 466 363.199 461.1C398.799 456.8 432.499 476.9 461.999 497.5C496.499 521.7 530.099 547.2 564.499 571.5C590.999 590.1 624.599 608.1 654.399 595.1C682.899 582.6 692.599 548.6 698.699 518.7C707.599 475.2 717.799 431.1 740.899 393C764.299 354.5 802.299 322.8 847.199 314.3C892.099 305.8 943.399 324.2 965.599 362.9" stroke="#04E2E4" stroke-miterlimit="10"/>
<path d="M-117.801 885C-105.401 855.1 -78.0008 834.2 -48.8008 827.3C-20.0008 820.5 10.8992 827.6 51.0992 844.5C86.6992 859.4 127.299 883.1 169.799 880.4C214.899 877.5 253.499 843.4 267.899 801.5C280.299 765.1 273.199 725.7 274.499 687.4C276.099 641 275.399 593.4 289.499 548.2C301.699 509.3 331.399 472.3 371.999 466.8C407.199 462 440.999 481.4 470.399 501.7C504.499 525.4 537.399 550.8 571.499 574.6C597.999 593.1 631.799 610.6 661.599 597.6C690.299 585.1 700.399 551.1 706.599 521.1C715.499 478.3 725.299 434.8 747.999 397.3C770.999 359.3 808.699 328.2 853.099 319.7C897.499 311.3 947.899 329.3 970.399 367.1" stroke="#04DBDE" stroke-miterlimit="10"/>
<path d="M-120.699 862.001C-103.899 834.001 -73.2992 817.501 -43.5992 815.501C-14.4992 813.501 14.2008 825.301 54.2008 845.001C88.9008 862.101 129.901 886.701 173.101 884.901C218.701 883.001 258.901 849.901 274.201 807.801C287.001 772.401 280.101 733.601 282.501 696.101C285.501 648.901 285.601 600.401 300.001 554.201C312.001 515.601 340.701 478.501 380.901 472.401C415.801 467.001 449.601 485.801 479.001 505.801C512.701 529.001 545.001 554.301 578.701 577.501C605.301 595.901 639.101 612.901 668.901 600.001C697.701 587.501 708.201 553.601 714.601 523.401C723.501 481.301 732.801 438.401 755.201 401.401C777.901 363.801 815.201 333.301 859.001 325.001C902.801 316.701 952.501 334.301 975.201 371.101" stroke="#04D4D7" stroke-miterlimit="10"/>
<path d="M-123.699 839.101C-102.599 813.001 -68.6992 800.901 -38.3992 803.701C-8.99923 806.401 17.5008 822.901 57.4008 845.601C91.3008 864.901 132.701 890.301 176.601 889.401C222.701 888.501 264.501 856.501 280.701 814.101C293.901 779.601 287.301 741.401 290.601 704.801C294.901 656.701 296.001 607.401 310.501 560.201C322.401 521.901 350.101 484.801 389.801 478.001C424.301 472.001 458.301 490.101 487.501 509.901C520.801 532.601 552.501 557.701 585.801 580.501C612.401 598.801 646.301 615.301 676.101 602.401C705.001 589.901 716.001 556.001 722.401 525.801C731.301 484.401 740.201 442.201 762.201 405.701C784.501 368.601 821.501 338.601 864.801 330.501C908.101 322.401 956.901 339.501 979.901 375.401" stroke="#04CDD0" stroke-miterlimit="10"/>
<path d="M-126.602 816.1C-101.102 791.9 -64.0016 784.2 -33.1016 791.8C-3.40156 799.1 20.8985 820.3 60.6985 846.1C93.7985 867.5 135.498 893.8 180.098 893.9C226.698 893.9 270.098 863 287.298 820.5C300.898 786.9 294.798 749.4 298.798 713.6C304.298 664.7 306.398 614.4 321.198 566.3C332.998 528.3 359.598 491.1 398.798 483.7C432.898 477.2 466.998 494.5 496.098 514.1C529.098 536.3 560.098 561.3 592.998 583.6C619.698 601.7 653.698 617.8 683.398 604.9C712.498 592.3 723.798 558.6 730.398 528.2C739.298 487.5 747.798 445.9 769.298 410C791.298 373.4 827.898 343.9 870.598 336C913.298 328.1 961.398 344.7 984.698 379.7" stroke="#04C5CA" stroke-miterlimit="10"/>
<path d="M-129.602 793.101C-99.7016 770.801 -59.5016 767.401 -27.9016 779.901C2.09845 791.801 24.1985 817.701 63.7985 846.601C95.9985 870.101 138.198 897.401 183.398 898.301C230.498 899.301 275.398 869.401 293.598 826.701C307.498 794.101 304.998 757.401 306.698 722.101C309.198 671.901 316.498 621.201 331.598 572.101C343.298 534.401 368.898 497.101 407.598 489.101C441.298 482.001 475.498 498.701 504.498 518.001C537.098 539.701 567.498 564.501 599.998 586.401C626.698 604.401 660.798 620.001 690.598 607.201C719.798 594.601 731.498 560.901 738.298 530.501C747.198 490.501 755.298 449.501 776.398 414.201C797.998 378.001 834.298 349.201 876.498 341.401C918.598 333.601 965.899 349.801 989.499 383.901" stroke="#04BEC3" stroke-miterlimit="10"/>
<path d="M-132.5 770.1C-98.3 749.6 -54.7 750.5 -22.7 768C7.60002 784.5 27.6 815.1 67 847.1C98.5 872.7 140.9 900.9 186.8 902.8C234.4 904.7 280.9 875.9 300 833.1C314.2 801.4 312.4 765.4 314.8 730.9C318.4 679.8 326.8 628.3 342.1 578.2C353.7 540.8 378.2 503.5 416.4 494.8C449.7 487.1 484 503.2 512.9 522.2C545.1 543.4 574.9 568.1 607 589.5C633.8 607.4 667.9 622.5 697.7 609.7C727 597.1 739.2 563.5 746 532.9C754.8 493.6 762.5 453.2 783.3 418.5C804.6 382.8 840.5 354.5 882.1 346.9C923.7 339.3 970.2 355 994 388.2" stroke="#04B7BC" stroke-miterlimit="10"/>
<path d="M-135.5 747.1C-96.9 728.5 -50.1 733.7 -17.5 756.2C13.1 777.3 31 812.5 70.1 847.7C100.8 875.3 143.6 904.6 190.2 907.4C238.4 910.3 286.2 882.5 306.4 839.5C320.9 808.7 319.8 773.4 322.8 739.7C327.4 687.6 337 635.3 352.6 584.3C364 547.2 387.6 509.8 425.3 500.5C458.2 492.3 492.6 507.6 521.4 526.4C553.2 547.1 582.5 571.6 614.1 592.5C641 610.3 675.2 624.9 704.9 612.1C734.3 599.5 746.9 565.9 753.9 535.3C762.7 496.7 770 456.9 790.4 422.7C811.3 387.5 846.9 359.7 887.9 352.3C928.9 344.9 974.6 360.1 998.7 392.4" stroke="#03B0B6" stroke-miterlimit="10"/>
<path d="M-138.398 724.2C-95.3984 707.5 -45.2984 717 -12.1984 744.4C18.8016 770.1 34.6016 809.9 73.4016 848.3C103.402 878 146.402 908.2 193.702 911.9C242.402 915.7 291.702 889 313.002 845.9C327.802 816 327.402 781.5 331.002 748.5C336.802 695.5 347.402 642.4 363.302 590.4C374.602 553.6 397.102 516.1 434.302 506.2C466.802 497.4 501.302 512.1 530.002 530.6C561.402 550.9 590.102 575.1 621.302 595.6C648.202 613.2 682.502 627.4 712.202 614.6C741.802 601.9 754.702 568.4 761.902 537.7C770.702 499.8 777.602 460.6 797.502 427C818.102 392.2 853.302 365 893.802 357.8C934.202 350.5 979.102 365.3 1003.5 396.7" stroke="#03A9AF" stroke-miterlimit="10"/>
<path d="M-141.398 701.201C-94.0984 686.401 -40.5984 700.101 -6.99844 732.501C24.4016 762.801 38.1016 807.201 76.5016 848.801C105.802 880.501 149.102 911.701 197.002 916.401C246.202 921.201 297.002 895.501 319.302 852.201C334.302 823.101 334.802 789.401 339.002 757.101C345.902 703.201 357.602 649.301 373.702 596.301C384.902 559.801 406.402 522.301 443.102 511.701C475.202 502.301 509.902 516.401 538.402 534.601C569.402 554.401 597.502 578.501 628.302 598.501C655.302 616.001 689.602 629.701 719.402 617.001C749.102 604.301 762.502 570.901 769.702 540.001C778.502 502.801 785.002 464.301 804.502 431.201C824.802 396.901 859.602 370.301 899.502 363.101C939.402 356.001 983.502 370.301 1008.1 400.801" stroke="#03A2A8" stroke-miterlimit="10"/>
<path d="M-144.398 678.201C-92.6984 665.201 -35.8984 683.301 -1.89844 720.601C29.9016 755.501 41.5016 804.501 79.6016 849.301C108.202 883.001 151.702 915.301 200.402 920.801C250.102 926.501 302.302 901.801 325.702 858.501C341.002 830.301 342.302 797.301 347.002 765.801C355.202 710.901 367.802 656.301 384.202 602.301C395.302 566.001 415.702 528.501 452.002 517.301C483.702 507.401 518.502 520.701 546.902 538.701C577.502 558.001 605.002 581.901 635.402 601.501C662.502 618.901 696.902 632.101 726.602 619.401C756.402 606.701 770.202 573.301 777.602 542.401C786.302 505.901 792.402 468.001 811.602 435.501C831.502 401.701 866.102 375.601 905.402 368.601C944.702 361.601 988.002 375.501 1012.9 405.101" stroke="#039AA2" stroke-miterlimit="10"/>
<path d="M-147.301 655.2C-91.2008 644.1 -31.1008 666.5 3.3992 708.7C35.5992 748.2 45.1992 801.8 82.7992 849.8C110.799 885.5 154.499 918.8 203.799 925.3C253.999 931.9 307.499 908.2 332.099 864.8C347.599 837.5 349.799 805.3 354.999 774.5C364.399 718.7 377.999 663.2 394.699 608.3C405.599 572.3 425.099 534.7 460.799 522.9C492.099 512.4 526.999 525.1 555.399 542.8C585.599 561.6 612.499 585.4 642.499 604.5C669.599 621.8 704.099 634.5 733.799 621.8C763.799 609.1 777.899 575.8 785.499 544.7C794.199 508.9 799.899 471.6 818.699 439.7C838.299 406.3 872.499 380.8 911.199 374C949.899 367.2 992.499 380.6 1017.7 409.3" stroke="#03939B" stroke-miterlimit="10"/>
<path d="M-150.301 632.2C-89.8008 623 -26.4008 649.7 8.59921 696.9C41.2992 741 48.7992 799.2 85.9992 850.4C113.399 888.1 157.299 922.4 207.199 929.8C257.899 937.4 312.799 914.6 338.599 871.2C354.299 844.7 357.499 813.3 363.099 783.3C373.799 726.6 388.399 670.3 405.199 614.3C415.999 578.6 434.499 541 469.699 528.5C500.599 517.4 535.599 529.5 563.899 546.9C593.699 565.2 619.999 588.8 649.599 607.4C676.799 624.5 711.299 636.8 740.999 624.2C771.099 611.4 785.599 578.2 793.399 547.1C802.099 512 807.399 475.3 825.699 444C844.899 411.1 878.799 386.1 916.899 379.5C955.099 372.9 996.799 385.8 1022.3 413.6" stroke="#038C94" stroke-miterlimit="10"/>
<path d="M-153.199 609.2C-88.3992 601.9 -21.4992 632.9 13.8008 685C46.9008 733.7 52.4008 796.4 89.1008 850.9C115.901 890.6 159.901 925.9 210.501 934.3C261.701 942.8 317.901 921 344.901 877.5C360.801 851.9 364.901 821.3 371.101 792C383.201 734.4 398.601 677.3 415.701 620.3C426.401 584.9 443.801 547.2 478.501 534.1C509.001 522.5 544.101 533.9 572.301 551C601.701 568.9 627.401 592.2 656.601 610.4C683.901 627.4 718.501 639.2 748.201 626.6C778.401 613.8 793.401 580.7 801.201 549.4C809.801 515 814.801 478.9 832.701 448.1C851.601 415.7 885.101 391.3 922.701 384.8C960.301 378.3 1001.3 390.8 1027 417.7" stroke="#03858E" stroke-miterlimit="10"/>
<path d="M-156.199 586.3C-86.9992 580.9 -16.7992 616.2 19.0008 673.2C52.5008 726.5 56.1008 793.8 92.3008 851.5C118.501 893.2 162.701 929.5 214.001 938.9C265.801 948.2 323.201 927.5 351.401 884C367.501 859.2 372.601 829.4 379.201 800.8C392.701 742.4 408.901 684.3 426.301 626.4C436.901 591.3 453.301 553.5 487.501 539.8C517.701 527.6 552.801 538.4 580.901 555.2C609.901 572.6 635.101 595.7 663.801 613.5C691.201 630.3 725.801 641.6 755.501 629.1C785.901 616.3 801.201 583.2 809.201 551.9C817.801 518.2 822.401 482.7 839.901 452.5C858.401 420.5 891.601 396.7 928.601 390.4C965.601 384.1 1005.8 396.1 1031.8 422" stroke="#027E87" stroke-miterlimit="10"/>
<path d="M-159.102 563.3C-85.5016 559.7 -11.9016 599.3 24.2984 661.3C58.2984 719.2 59.8984 791.1 95.4984 852C121.098 895.7 165.398 933 217.398 943.3C269.698 953.6 328.398 933.7 357.798 890.2C373.998 866.2 380.198 837.3 387.198 809.4C402.198 750.1 419.098 691.2 436.698 632.3C447.198 597.5 462.498 559.7 496.298 545.3C526.098 532.6 561.298 542.6 589.298 559.2C617.898 576.1 642.498 599 670.798 616.4C698.198 633.1 732.898 643.9 762.598 631.4C793.098 618.6 808.698 585.5 816.998 554.1C825.498 521.1 829.698 486.3 846.898 456.6C865.098 425.1 897.898 401.8 934.398 395.7C970.898 389.5 1010.3 401.1 1036.5 426.1" stroke="#027680" stroke-miterlimit="10"/>
<path d="M-162.102 540.301C-84.2016 538.601 -7.20157 582.601 29.4984 649.501C63.8984 712.001 63.5984 788.5 98.6984 852.6C123.798 898.4 168.198 936.6 220.798 947.9C273.598 959.1 333.498 940.1 364.198 896.7C380.598 873.5 387.798 845.5 395.298 818.3C411.898 758.2 429.398 698.401 447.298 638.501C457.598 604.001 471.998 566.1 505.198 551.1C534.598 537.8 569.898 547.2 597.798 563.4C625.998 579.9 649.998 602.601 677.898 619.501C705.398 636.001 740.198 646.401 769.798 634.001C800.398 621.101 816.498 588.2 824.798 556.6C833.298 524.3 837.098 490.101 853.798 461.001C871.598 430.001 904.098 407.3 939.998 401.3C975.898 395.3 1014.5 406.4 1041 430.5" stroke="#026F7A" stroke-miterlimit="10"/>
<path d="M-165 517.3C-82.7 517.5 -2.39999 565.8 34.7 637.6C69.5 704.8 67.3 785.8 101.8 853.1C126.4 900.9 170.8 940.2 224.2 952.3C277.5 964.5 338.6 946.3 370.7 902.9C387.3 880.5 395.5 853.4 403.4 826.9C421.6 766.1 439.7 705.3 457.9 644.4C468.1 610.2 481.4 572.2 514.2 556.6C543.2 542.7 578.6 551.5 606.4 567.4C634.2 583.4 657.6 605.9 685.2 622.3C712.8 638.7 747.6 648.6 777.3 636.2C808 623.3 824.5 590.4 833 558.8C841.5 527.2 844.9 493.6 861.2 465.1C878.7 434.5 910.8 412.4 946.2 406.5C981.5 400.7 1019.3 411.3 1046.1 434.5" stroke="#026873" stroke-miterlimit="10"/>
</g>
<mask id="mask5_1102_60595" style="mask-type:luminance" maskUnits="userSpaceOnUse" x="-96" y="-88" width="800" height="1200">
<path d="M-96 -88L-96 1112H704L704 -88H-96Z" fill="white"/>
</mask>
<g mask="url(#mask5_1102_60595)">
<path d="M592 891C592 889.895 591.105 889 590 889C588.895 889 588 889.895 588 891C588 892.105 588.895 893 590 893C591.105 893 592 892.105 592 891Z" fill="#05FFFF"/>
<path d="M569 891C569 889.895 568.105 889 567 889C565.895 889 565 889.895 565 891C565 892.105 565.895 893 567 893C568.105 893 569 892.105 569 891Z" fill="#05FFFF"/>
<path d="M546 891C546 889.895 545.105 889 544 889C542.895 889 542 889.895 542 891C542 892.105 542.895 893 544 893C545.105 893 546 892.105 546 891Z" fill="#05FFFF"/>
<path d="M523 891C523 889.895 522.105 889 521 889C519.895 889 519 889.895 519 891C519 892.105 519.895 893 521 893C522.105 893 523 892.105 523 891Z" fill="#05FFFF"/>
<path d="M500 891C500 889.895 499.105 889 498 889C496.895 889 496 889.895 496 891C496 892.105 496.895 893 498 893C499.105 893 500 892.105 500 891Z" fill="#05FFFF"/>
<path d="M592 866C592 864.895 591.105 864 590 864C588.895 864 588 864.895 588 866C588 867.105 588.895 868 590 868C591.105 868 592 867.105 592 866Z" fill="#05FFFF"/>
<path d="M569 866C569 864.895 568.105 864 567 864C565.895 864 565 864.895 565 866C565 867.105 565.895 868 567 868C568.105 868 569 867.105 569 866Z" fill="#05FFFF"/>
<path d="M546 866C546 864.895 545.105 864 544 864C542.895 864 542 864.895 542 866C542 867.105 542.895 868 544 868C545.105 868 546 867.105 546 866Z" fill="#05FFFF"/>
<path d="M523 866C523 864.895 522.105 864 521 864C519.895 864 519 864.895 519 866C519 867.105 519.895 868 521 868C522.105 868 523 867.105 523 866Z" fill="#05FFFF"/>
<path d="M500 866C500 864.895 499.105 864 498 864C496.895 864 496 864.895 496 866C496 867.105 496.895 868 498 868C499.105 868 500 867.105 500 866Z" fill="#05FFFF"/>
<path d="M592 841C592 839.895 591.105 839 590 839C588.895 839 588 839.895 588 841C588 842.105 588.895 843 590 843C591.105 843 592 842.105 592 841Z" fill="#05FFFF"/>
<path d="M569 841C569 839.895 568.105 839 567 839C565.895 839 565 839.895 565 841C565 842.105 565.895 843 567 843C568.105 843 569 842.105 569 841Z" fill="#05FFFF"/>
<path d="M546 841C546 839.895 545.105 839 544 839C542.895 839 542 839.895 542 841C542 842.105 542.895 843 544 843C545.105 843 546 842.105 546 841Z" fill="#05FFFF"/>
<path d="M523 841C523 839.895 522.105 839 521 839C519.895 839 519 839.895 519 841C519 842.105 519.895 843 521 843C522.105 843 523 842.105 523 841Z" fill="#05FFFF"/>
<path d="M500 841C500 839.895 499.105 839 498 839C496.895 839 496 839.895 496 841C496 842.105 496.895 843 498 843C499.105 843 500 842.105 500 841Z" fill="#05FFFF"/>
<path d="M592 816C592 814.895 591.105 814 590 814C588.895 814 588 814.895 588 816C588 817.105 588.895 818 590 818C591.105 818 592 817.105 592 816Z" fill="#05FFFF"/>
<path d="M569 816C569 814.895 568.105 814 567 814C565.895 814 565 814.895 565 816C565 817.105 565.895 818 567 818C568.105 818 569 817.105 569 816Z" fill="#05FFFF"/>
<path d="M546 816C546 814.895 545.105 814 544 814C542.895 814 542 814.895 542 816C542 817.105 542.895 818 544 818C545.105 818 546 817.105 546 816Z" fill="#05FFFF"/>
<path d="M523 816C523 814.895 522.105 814 521 814C519.895 814 519 814.895 519 816C519 817.105 519.895 818 521 818C522.105 818 523 817.105 523 816Z" fill="#05FFFF"/>
<path d="M500 816C500 814.895 499.105 814 498 814C496.895 814 496 814.895 496 816C496 817.105 496.895 818 498 818C499.105 818 500 817.105 500 816Z" fill="#05FFFF"/>
<path d="M592 791C592 789.895 591.105 789 590 789C588.895 789 588 789.895 588 791C588 792.105 588.895 793 590 793C591.105 793 592 792.105 592 791Z" fill="#05FFFF"/>
<path d="M569 791C569 789.895 568.105 789 567 789C565.895 789 565 789.895 565 791C565 792.105 565.895 793 567 793C568.105 793 569 792.105 569 791Z" fill="#05FFFF"/>
<path d="M546 791C546 789.895 545.105 789 544 789C542.895 789 542 789.895 542 791C542 792.105 542.895 793 544 793C545.105 793 546 792.105 546 791Z" fill="#05FFFF"/>
<path d="M523 791C523 789.895 522.105 789 521 789C519.895 789 519 789.895 519 791C519 792.105 519.895 793 521 793C522.105 793 523 792.105 523 791Z" fill="#05FFFF"/>
<path d="M500 791C500 789.895 499.105 789 498 789C496.895 789 496 789.895 496 791C496 792.105 496.895 793 498 793C499.105 793 500 792.105 500 791Z" fill="#05FFFF"/>
<path d="M592 766C592 764.895 591.105 764 590 764C588.895 764 588 764.895 588 766C588 767.105 588.895 768 590 768C591.105 768 592 767.105 592 766Z" fill="#05FFFF"/>
<path d="M569 766C569 764.895 568.105 764 567 764C565.895 764 565 764.895 565 766C565 767.105 565.895 768 567 768C568.105 768 569 767.105 569 766Z" fill="#05FFFF"/>
<path d="M546 766C546 764.895 545.105 764 544 764C542.895 764 542 764.895 542 766C542 767.105 542.895 768 544 768C545.105 768 546 767.105 546 766Z" fill="#05FFFF"/>
<path d="M523 766C523 764.895 522.105 764 521 764C519.895 764 519 764.895 519 766C519 767.105 519.895 768 521 768C522.105 768 523 767.105 523 766Z" fill="#05FFFF"/>
<path d="M500 766C500 764.895 499.105 764 498 764C496.895 764 496 764.895 496 766C496 767.105 496.895 768 498 768C499.105 768 500 767.105 500 766Z" fill="#05FFFF"/>
<path d="M592 741C592 739.895 591.105 739 590 739C588.895 739 588 739.895 588 741C588 742.105 588.895 743 590 743C591.105 743 592 742.105 592 741Z" fill="#05FFFF"/>
<path d="M569 741C569 739.895 568.105 739 567 739C565.895 739 565 739.895 565 741C565 742.105 565.895 743 567 743C568.105 743 569 742.105 569 741Z" fill="#05FFFF"/>
<path d="M546 741C546 739.895 545.105 739 544 739C542.895 739 542 739.895 542 741C542 742.105 542.895 743 544 743C545.105 743 546 742.105 546 741Z" fill="#05FFFF"/>
<path d="M523 741C523 739.895 522.105 739 521 739C519.895 739 519 739.895 519 741C519 742.105 519.895 743 521 743C522.105 743 523 742.105 523 741Z" fill="#05FFFF"/>
<path d="M500 741C500 739.895 499.105 739 498 739C496.895 739 496 739.895 496 741C496 742.105 496.895 743 498 743C499.105 743 500 742.105 500 741Z" fill="#05FFFF"/>
<path d="M592 716C592 714.895 591.105 714 590 714C588.895 714 588 714.895 588 716C588 717.105 588.895 718 590 718C591.105 718 592 717.105 592 716Z" fill="#05FFFF"/>
<path d="M569 716C569 714.895 568.105 714 567 714C565.895 714 565 714.895 565 716C565 717.105 565.895 718 567 718C568.105 718 569 717.105 569 716Z" fill="#05FFFF"/>
<path d="M546 716C546 714.895 545.105 714 544 714C542.895 714 542 714.895 542 716C542 717.105 542.895 718 544 718C545.105 718 546 717.105 546 716Z" fill="#05FFFF"/>
<path d="M523 716C523 714.895 522.105 714 521 714C519.895 714 519 714.895 519 716C519 717.105 519.895 718 521 718C522.105 718 523 717.105 523 716Z" fill="#05FFFF"/>
<path d="M500 716C500 714.895 499.105 714 498 714C496.895 714 496 714.895 496 716C496 717.105 496.895 718 498 718C499.105 718 500 717.105 500 716Z" fill="#05FFFF"/>
<path d="M592 691C592 689.895 591.105 689 590 689C588.895 689 588 689.895 588 691C588 692.105 588.895 693 590 693C591.105 693 592 692.105 592 691Z" fill="#05FFFF"/>
<path d="M569 691C569 689.895 568.105 689 567 689C565.895 689 565 689.895 565 691C565 692.105 565.895 693 567 693C568.105 693 569 692.105 569 691Z" fill="#05FFFF"/>
<path d="M546 691C546 689.895 545.105 689 544 689C542.895 689 542 689.895 542 691C542 692.105 542.895 693 544 693C545.105 693 546 692.105 546 691Z" fill="#05FFFF"/>
<path d="M523 691C523 689.895 522.105 689 521 689C519.895 689 519 689.895 519 691C519 692.105 519.895 693 521 693C522.105 693 523 692.105 523 691Z" fill="#05FFFF"/>
<path d="M500 691C500 689.895 499.105 689 498 689C496.895 689 496 689.895 496 691C496 692.105 496.895 693 498 693C499.105 693 500 692.105 500 691Z" fill="#05FFFF"/>
<path d="M592 666C592 664.895 591.105 664 590 664C588.895 664 588 664.895 588 666C588 667.105 588.895 668 590 668C591.105 668 592 667.105 592 666Z" fill="#05FFFF"/>
<path d="M569 666C569 664.895 568.105 664 567 664C565.895 664 565 664.895 565 666C565 667.105 565.895 668 567 668C568.105 668 569 667.105 569 666Z" fill="#05FFFF"/>
<path d="M546 666C546 664.895 545.105 664 544 664C542.895 664 542 664.895 542 666C542 667.105 542.895 668 544 668C545.105 668 546 667.105 546 666Z" fill="#05FFFF"/>
<path d="M523 666C523 664.895 522.105 664 521 664C519.895 664 519 664.895 519 666C519 667.105 519.895 668 521 668C522.105 668 523 667.105 523 666Z" fill="#05FFFF"/>
<path d="M500 666C500 664.895 499.105 664 498 664C496.895 664 496 664.895 496 666C496 667.105 496.895 668 498 668C499.105 668 500 667.105 500 666Z" fill="#05FFFF"/>
<path d="M592 641C592 639.895 591.105 639 590 639C588.895 639 588 639.895 588 641C588 642.105 588.895 643 590 643C591.105 643 592 642.105 592 641Z" fill="#05FFFF"/>
<path d="M569 641C569 639.895 568.105 639 567 639C565.895 639 565 639.895 565 641C565 642.105 565.895 643 567 643C568.105 643 569 642.105 569 641Z" fill="#05FFFF"/>
<path d="M546 641C546 639.895 545.105 639 544 639C542.895 639 542 639.895 542 641C542 642.105 542.895 643 544 643C545.105 643 546 642.105 546 641Z" fill="#05FFFF"/>
<path d="M523 641C523 639.895 522.105 639 521 639C519.895 639 519 639.895 519 641C519 642.105 519.895 643 521 643C522.105 643 523 642.105 523 641Z" fill="#05FFFF"/>
<path d="M500 641C500 639.895 499.105 639 498 639C496.895 639 496 639.895 496 641C496 642.105 496.895 643 498 643C499.105 643 500 642.105 500 641Z" fill="#05FFFF"/>
<path d="M592 616C592 614.895 591.105 614 590 614C588.895 614 588 614.895 588 616C588 617.105 588.895 618 590 618C591.105 618 592 617.105 592 616Z" fill="#05FFFF"/>
<path d="M569 616C569 614.895 568.105 614 567 614C565.895 614 565 614.895 565 616C565 617.105 565.895 618 567 618C568.105 618 569 617.105 569 616Z" fill="#05FFFF"/>
<path d="M546 616C546 614.895 545.105 614 544 614C542.895 614 542 614.895 542 616C542 617.105 542.895 618 544 618C545.105 618 546 617.105 546 616Z" fill="#05FFFF"/>
<path d="M523 616C523 614.895 522.105 614 521 614C519.895 614 519 614.895 519 616C519 617.105 519.895 618 521 618C522.105 618 523 617.105 523 616Z" fill="#05FFFF"/>
<path d="M500 616C500 614.895 499.105 614 498 614C496.895 614 496 614.895 496 616C496 617.105 496.895 618 498 618C499.105 618 500 617.105 500 616Z" fill="#05FFFF"/>
<path d="M592 591C592 589.895 591.105 589 590 589C588.895 589 588 589.895 588 591C588 592.105 588.895 593 590 593C591.105 593 592 592.105 592 591Z" fill="#05FFFF"/>
<path d="M569 591C569 589.895 568.105 589 567 589C565.895 589 565 589.895 565 591C565 592.105 565.895 593 567 593C568.105 593 569 592.105 569 591Z" fill="#05FFFF"/>
<path d="M546 591C546 589.895 545.105 589 544 589C542.895 589 542 589.895 542 591C542 592.105 542.895 593 544 593C545.105 593 546 592.105 546 591Z" fill="#05FFFF"/>
<path d="M523 591C523 589.895 522.105 589 521 589C519.895 589 519 589.895 519 591C519 592.105 519.895 593 521 593C522.105 593 523 592.105 523 591Z" fill="#05FFFF"/>
<path d="M500 591C500 589.895 499.105 589 498 589C496.895 589 496 589.895 496 591C496 592.105 496.895 593 498 593C499.105 593 500 592.105 500 591Z" fill="#05FFFF"/>
<path d="M592 566C592 564.895 591.105 564 590 564C588.895 564 588 564.895 588 566C588 567.105 588.895 568 590 568C591.105 568 592 567.105 592 566Z" fill="#05FFFF"/>
<path d="M569 566C569 564.895 568.105 564 567 564C565.895 564 565 564.895 565 566C565 567.105 565.895 568 567 568C568.105 568 569 567.105 569 566Z" fill="#05FFFF"/>
<path d="M546 566C546 564.895 545.105 564 544 564C542.895 564 542 564.895 542 566C542 567.105 542.895 568 544 568C545.105 568 546 567.105 546 566Z" fill="#05FFFF"/>
<path d="M523 566C523 564.895 522.105 564 521 564C519.895 564 519 564.895 519 566C519 567.105 519.895 568 521 568C522.105 568 523 567.105 523 566Z" fill="#05FFFF"/>
<path d="M500 566C500 564.895 499.105 564 498 564C496.895 564 496 564.895 496 566C496 567.105 496.895 568 498 568C499.105 568 500 567.105 500 566Z" fill="#05FFFF"/>
<path d="M592 541C592 539.895 591.105 539 590 539C588.895 539 588 539.895 588 541C588 542.105 588.895 543 590 543C591.105 543 592 542.105 592 541Z" fill="#05FFFF"/>
<path d="M569 541C569 539.895 568.105 539 567 539C565.895 539 565 539.895 565 541C565 542.105 565.895 543 567 543C568.105 543 569 542.105 569 541Z" fill="#05FFFF"/>
<path d="M546 541C546 539.895 545.105 539 544 539C542.895 539 542 539.895 542 541C542 542.105 542.895 543 544 543C545.105 543 546 542.105 546 541Z" fill="#05FFFF"/>
<path d="M523 541C523 539.895 522.105 539 521 539C519.895 539 519 539.895 519 541C519 542.105 519.895 543 521 543C522.105 543 523 542.105 523 541Z" fill="#05FFFF"/>
<path d="M500 541C500 539.895 499.105 539 498 539C496.895 539 496 539.895 496 541C496 542.105 496.895 543 498 543C499.105 543 500 542.105 500 541Z" fill="#05FFFF"/>
</g>
</svg>
