<svg width="24" height="25" viewBox="0 0 24 25" fill="none" xmlns="http://www.w3.org/2000/svg">
<g id="Social Icon">
<path id="bg" d="M0 12.5C0 19.1274 5.37258 24.5 12 24.5C18.6274 24.5 24 19.1274 24 12.5C24 5.87258 18.6274 0.5 12 0.5C5.37258 0.5 0 5.87258 0 12.5Z" fill="#2867B2"/>
<path id="linkedin" d="M8.7 18.5H6.15V10.475H8.7V18.5ZM7.425 9.35C6.6 9.35 6 8.75 6 7.925C6 7.1 6.675 6.5 7.425 6.5C8.25 6.5 8.85 7.1 8.85 7.925C8.85 8.75 8.25 9.35 7.425 9.35ZM18 18.5H15.45V14.15C15.45 12.875 14.925 12.5 14.175 12.5C13.425 12.5 12.675 13.1 12.675 14.225V18.5H10.125V10.475H12.525V11.6C12.75 11.075 13.65 10.25 14.925 10.25C16.35 10.25 17.85 11.075 17.85 13.55V18.5H18Z" fill="white"/>
</g>
</svg>
