<svg width="240" height="216" viewBox="0 0 240 216" fill="none" xmlns="http://www.w3.org/2000/svg">
<path d="M0 83H240V212C240 214.209 238.209 216 236 216H4C1.79086 216 0 214.209 0 212V83Z" fill="#822DA4"/>
<g clip-path="url(#clip0_1102_63359)">
<path d="M237.896 82.6028C237.81 82.6028 237.726 82.5764 237.655 82.5271L121.209 1.22087C120.855 0.974595 120.434 0.84298 120.003 0.843717C119.572 0.844454 119.151 0.977507 118.797 1.225L3.19031 82.5263C3.09887 82.5906 2.9857 82.6159 2.87569 82.5965C2.76568 82.5771 2.66784 82.5148 2.6037 82.4231C2.53957 82.3314 2.51438 82.2179 2.53368 82.1076C2.55299 81.9974 2.61521 81.8993 2.70665 81.835L118.314 0.533654C118.809 0.187222 119.398 0.000998631 120.001 4.00512e-06C120.605 -0.000990621 121.195 0.18329 121.691 0.528089L238.136 81.8341C238.21 81.8855 238.265 81.9591 238.294 82.0442C238.323 82.1293 238.324 82.2214 238.297 82.3071C238.271 82.3929 238.217 82.4678 238.145 82.521C238.073 82.5742 237.985 82.6028 237.896 82.6028Z" fill="#3F3D56"/>
<path d="M9.79688 85.4847L120.118 3.51172L231.276 91.3175L125.802 154.006L68.5388 140.919L9.79688 85.4847Z" fill="#E6E6E6"/>
<path d="M73.371 192.726H18.8698C18.5352 192.726 18.2037 192.661 17.8944 192.532C17.5851 192.404 17.304 192.216 17.0673 191.979C16.8305 191.742 16.6426 191.461 16.5145 191.151C16.3863 190.841 16.3203 190.508 16.3203 190.173C16.3203 189.837 16.3863 189.505 16.5145 189.195C16.6426 188.885 16.8305 188.604 17.0673 188.367C17.304 188.13 17.5851 187.942 17.8944 187.813C18.2037 187.685 18.5352 187.62 18.8698 187.62H73.371C73.7057 187.62 74.0371 187.685 74.3464 187.813C74.6558 187.942 74.9368 188.13 75.1736 188.367C75.4104 188.604 75.5983 188.885 75.7264 189.195C75.8546 189.505 75.9206 189.837 75.9206 190.173C75.9206 190.508 75.8546 190.841 75.7264 191.151C75.5983 191.461 75.4104 191.742 75.1736 191.979C74.9368 192.216 74.6558 192.404 74.3464 192.532C74.0371 192.661 73.7057 192.726 73.371 192.726Z" fill="#822DA4"/>
<path d="M38.4237 181.75H18.8698C18.5352 181.751 18.2037 181.685 17.8944 181.557C17.5851 181.429 17.304 181.241 17.0673 181.004C16.8305 180.767 16.6426 180.485 16.5145 180.175C16.3863 179.865 16.3203 179.533 16.3203 179.197C16.3203 178.862 16.3863 178.53 16.5145 178.22C16.6426 177.91 16.8305 177.628 17.0673 177.391C17.304 177.154 17.5851 176.966 17.8944 176.838C18.2037 176.71 18.5352 176.644 18.8698 176.645H38.4237C38.7583 176.644 39.0898 176.71 39.3991 176.838C39.7084 176.966 39.9895 177.154 40.2263 177.391C40.463 177.628 40.6509 177.91 40.7791 178.22C40.9072 178.53 40.9732 178.862 40.9732 179.197C40.9732 179.533 40.9072 179.865 40.7791 180.175C40.6509 180.485 40.463 180.767 40.2263 181.004C39.9895 181.241 39.7084 181.429 39.3991 181.557C39.0898 181.685 38.7583 181.751 38.4237 181.75Z" fill="#822DA4"/>
<path d="M121.668 131.143C121.254 131.144 120.844 131.063 120.46 130.906L52.4219 102.602V14.0048C52.4228 13.2214 52.7336 12.4703 53.2861 11.9163C53.8387 11.3623 54.5878 11.0507 55.3692 11.0498H185.896C186.677 11.0507 187.426 11.3623 187.979 11.9163C188.531 12.4703 188.842 13.2214 188.843 14.0048V102.664L188.715 102.718L122.913 130.892C122.519 131.058 122.096 131.143 121.668 131.143Z" fill="white"/>
<path d="M121.668 131.353C121.226 131.354 120.788 131.268 120.38 131.1L52.2109 102.742V14.004C52.2119 13.1646 52.5449 12.3598 53.1369 11.7663C53.7289 11.1727 54.5316 10.8388 55.3688 10.8379H185.895C186.732 10.8388 187.535 11.1727 188.127 11.7663C188.719 12.3598 189.052 13.1646 189.053 14.004V102.802L122.995 131.085C122.575 131.262 122.124 131.354 121.668 131.353ZM53.053 102.178L120.701 130.32C121.332 130.577 122.038 130.572 122.666 130.308L188.211 102.245V14.004C188.21 13.3884 187.966 12.7983 187.532 12.363C187.098 11.9278 186.509 11.6829 185.895 11.6822H55.3688C54.7549 11.6829 54.1663 11.9278 53.7321 12.363C53.298 12.7983 53.0538 13.3884 53.0531 14.004L53.053 102.178Z" fill="#3F3D56"/>
<path d="M237.053 81.7588H236.968L188.632 102.452L122.497 130.765C122.238 130.874 121.961 130.931 121.681 130.933C121.4 130.934 121.123 130.88 120.863 130.774L52.6316 102.393L3.10732 81.7926L3.03166 81.7588H2.94737C2.16594 81.7597 1.41677 82.0713 0.864219 82.6252C0.311668 83.1792 0.000867053 83.9303 0 84.7138V213.045C0.000868165 213.829 0.311669 214.58 0.864219 215.134C1.41677 215.688 2.16594 215.999 2.94737 216H237.053C237.834 215.999 238.583 215.688 239.136 215.134C239.688 214.58 239.999 213.829 240 213.045V84.7138C239.999 83.9303 239.688 83.1792 239.136 82.6252C238.583 82.0713 237.834 81.7597 237.053 81.7588ZM239.158 213.045C239.158 213.605 238.936 214.142 238.541 214.538C238.146 214.933 237.611 215.156 237.053 215.156H2.94737C2.38909 215.156 1.85374 214.933 1.45897 214.538C1.06421 214.142 0.842328 213.605 0.842105 213.045V84.7138C0.842869 84.168 1.05405 83.6436 1.43149 83.2502C1.80893 82.8568 2.32341 82.625 2.86739 82.6031L52.6316 103.305L120.539 131.555C121.274 131.855 122.098 131.85 122.83 131.542L188.632 103.368L237.137 82.6031C237.68 82.6266 238.193 82.8591 238.569 83.2522C238.946 83.6454 239.157 84.1688 239.158 84.7138V213.045Z" fill="#3F3D56"/>
<path d="M120.988 106.02C118.476 106.025 116.031 105.21 114.021 103.7L113.897 103.606L87.6606 83.4665C86.4456 82.5331 85.4258 81.3689 84.6595 80.0404C83.8932 78.7119 83.3954 77.245 83.1945 75.7236C82.9937 74.2022 83.0937 72.6561 83.4888 71.1734C83.8839 69.6908 84.5665 68.3006 85.4974 67.0824C86.4284 65.8642 87.5896 64.8418 88.9147 64.0735C90.2398 63.3053 91.7028 62.8062 93.2203 62.6048C94.7378 62.4034 96.2799 62.5036 97.7588 62.8998C99.2376 63.2959 100.624 63.9803 101.839 64.9136L118.833 77.978L158.992 25.469C159.924 24.2511 161.085 23.2291 162.41 22.4613C163.736 21.6935 165.199 21.1949 166.717 20.9941C168.234 20.7932 169.776 20.894 171.255 21.2907C172.734 21.6875 174.12 22.3723 175.335 23.3062L175.085 23.6461L175.341 23.3111C177.791 25.1992 179.395 27.9846 179.799 31.0563C180.203 34.128 179.376 37.2351 177.498 39.6959L130.262 101.459C129.169 102.882 127.764 104.034 126.156 104.825C124.548 105.616 122.779 106.025 120.988 106.02Z" fill="#822DA4"/>
<path d="M73.991 185.092H26.5479C26.1374 185.092 25.7436 185.253 25.4534 185.54C25.1631 185.827 25 186.217 25 186.622C25 187.028 25.1631 187.418 25.4534 187.705C25.7436 187.992 26.1374 188.153 26.5479 188.153H73.991C74.4015 188.153 74.7952 187.992 75.0855 187.705C75.3758 187.418 75.5389 187.028 75.5389 186.622C75.5389 186.217 75.3758 185.827 75.0855 185.54C74.7952 185.253 74.4015 185.092 73.991 185.092Z" fill="white"/>
<path d="M73.991 179.049H26.5479C26.1374 179.049 25.7436 179.21 25.4534 179.497C25.1631 179.784 25 180.174 25 180.579C25 180.985 25.1631 181.375 25.4534 181.662C25.7436 181.949 26.1374 182.11 26.5479 182.11H73.991C74.4015 182.11 74.7952 181.949 75.0855 181.662C75.3758 181.375 75.5389 180.985 75.5389 180.579C75.5389 180.174 75.3758 179.784 75.0855 179.497C74.7952 179.21 74.4015 179.049 73.991 179.049Z" fill="white"/>
<path d="M47.1137 173H26.5479C26.1374 173 25.7436 173.161 25.4534 173.448C25.1631 173.735 25 174.125 25 174.531C25 174.937 25.1631 175.326 25.4534 175.613C25.7436 175.9 26.1374 176.061 26.5479 176.061H47.1137C47.5242 176.061 47.918 175.9 48.2082 175.613C48.4985 175.326 48.6616 174.937 48.6616 174.531C48.6616 174.125 48.4985 173.735 48.2082 173.448C47.918 173.161 47.5242 173 47.1137 173Z" fill="white"/>
</g>
<defs>
<clipPath id="clip0_1102_63359">
<rect width="240" height="216" fill="white"/>
</clipPath>
</defs>
</svg>
