<svg width="24" height="25" viewBox="0 0 24 25" fill="none" xmlns="http://www.w3.org/2000/svg">
<g id="Social Icon">
<path id="bg" d="M0 12.5C0 19.1274 5.37258 24.5 12 24.5C18.6274 24.5 24 19.1274 24 12.5C24 5.87258 18.6274 0.5 12 0.5C5.37258 0.5 0 5.87258 0 12.5Z" fill="#1DA1F2"/>
<path id="twitter" d="M18 8.75C17.55 8.975 17.1 9.05 16.575 9.125C17.1 8.825 17.475 8.375 17.625 7.775C17.175 8.075 16.65 8.225 16.05 8.375C15.6 7.925 14.925 7.625 14.25 7.625C12.675 7.625 11.475 9.125 11.85 10.625C9.825 10.55 8.025 9.575 6.75 8.075C6.075 9.2 6.45 10.625 7.5 11.375C7.125 11.375 6.75 11.225 6.375 11.075C6.375 12.2 7.2 13.25 8.325 13.55C7.95 13.625 7.575 13.7 7.2 13.625C7.5 14.6 8.4 15.35 9.525 15.35C8.625 16.025 7.275 16.4 6 16.25C7.125 16.925 8.4 17.375 9.75 17.375C14.325 17.375 16.875 13.55 16.725 10.025C17.25 9.725 17.7 9.275 18 8.75Z" fill="white"/>
</g>
</svg>
