<svg width="24" height="25" viewBox="0 0 24 25" fill="none" xmlns="http://www.w3.org/2000/svg">
<path d="M19 8.65172C20.6569 8.65172 22 7.30857 22 5.65172C22 3.99486 20.6569 2.65172 19 2.65172C17.3431 2.65172 16 3.99486 16 5.65172C16 7.30857 17.3431 8.65172 19 8.65172Z" stroke="#292D32" stroke-width="1.5" stroke-linecap="round" stroke-linejoin="round"/>
<path d="M14.02 2.85172C13.36 2.72172 12.69 2.65172 12 2.65172C6.48 2.65172 2 7.13172 2 12.6517C2 18.1717 6.48 22.6517 12 22.6517C17.52 22.6517 22 18.1717 22 12.6517C22 11.9717 21.93 11.3017 21.8 10.6617" stroke="#292D32" stroke-width="1.5" stroke-linecap="round" stroke-linejoin="round"/>
</svg>
