<svg width="24" height="24" viewBox="0 0 24 24" fill="none" xmlns="http://www.w3.org/2000/svg">
<g id="devicon:google" clip-path="url(#clip0_4368_41148)">
<path id="Vector" d="M16.1774 1.3295C17.3708 1.77364 18.4767 2.42155 19.4462 3.24316C19.3792 3.31024 19.3111 3.3776 19.242 3.44573C19.2178 3.46953 19.1935 3.49345 19.1691 3.5175C19 3.68396 18.8251 3.85616 18.6566 4.03206C18.0428 4.64793 17.4282 5.26246 16.8126 5.87565C16.1098 5.29244 15.2972 4.8529 14.421 4.58406L14.421 4.58405L14.4183 4.58326C13.1044 4.18805 11.707 4.16238 10.3795 4.50906C9.05272 4.85555 7.84694 5.56059 6.89429 6.5469C6.06538 7.39063 5.43759 8.41058 5.05772 9.53072C4.514 11.1324 4.514 12.8687 5.05772 14.4703L5.05782 14.4706C5.59165 16.0399 6.60741 17.4005 7.9602 18.3583C8.80539 18.9605 9.76683 19.38 10.7832 19.5899L10.7832 19.59L10.7929 19.5918C11.7877 19.7768 12.808 19.777 13.8029 19.5925C14.8033 19.4229 15.7572 19.0459 16.6034 18.4859L16.6034 18.4859L16.607 18.4835C17.2842 18.0269 17.8624 17.4383 18.3068 16.753C18.7513 16.0676 19.0529 15.2997 19.1937 14.4951L19.2962 13.9089H18.7012H12.7381V10.2796H22.9744C23.2584 12.1687 23.1366 14.0984 22.6151 15.9396C22.1063 17.7343 21.1183 19.3565 19.7571 20.632C18.4488 21.82 16.8546 22.6482 15.1303 23.0355L15.1303 23.0354L15.1255 23.0366C13.2071 23.4876 11.2079 23.4661 9.29967 22.9741C6.95262 22.3434 4.86955 20.9769 3.35626 19.0751C1.84244 17.1727 0.97858 14.835 0.891563 12.4054C0.804545 9.97571 1.49896 7.58219 2.8728 5.57637C4.24649 3.57077 6.22706 2.05849 8.52366 1.26159C11.0078 0.409634 13.7088 0.433604 16.1774 1.3295Z" fill="white" stroke="#822DA4"/>
<path id="Vector_2" d="M14.4211 4.58497L14.419 4.58432C13.1055 4.18773 11.7082 4.16057 10.3803 4.50584C9.05306 4.85093 7.84646 5.55476 6.89273 6.54014C6.22562 7.21915 5.68876 8.01228 5.30655 8.87993L2.2806 6.53712C3.6367 4.07263 5.85865 2.19105 8.52409 1.26241C11.0078 0.409993 13.7085 0.433281 16.1771 1.32837C17.371 1.77571 18.4766 2.42711 19.4452 3.2523C19.3331 3.36549 19.2202 3.4774 19.1057 3.591C18.9597 3.73579 18.8109 3.88333 18.6575 4.03975C18.0422 4.65391 17.4275 5.26628 16.8131 5.87687C16.1102 5.29351 15.2975 4.85386 14.4211 4.58497Z" fill="#E33629" stroke="#822DA4"/>
<path id="Vector_3" d="M0.611401 9.65605C0.820163 8.62063 1.16701 7.61792 1.64265 6.6748L5.52953 9.69168C5.02119 11.1891 5.02119 12.8124 5.52953 14.3098C4.23453 15.3098 2.9389 16.3148 1.64265 17.3248C0.452308 14.9554 0.0892746 12.2557 0.611401 9.65605Z" fill="#F8BD00"/>
<path id="Vector_4" d="M12.2381 9.77832H23.3981C23.7797 11.8726 23.6764 14.0264 23.0963 16.0746C22.5623 17.958 21.5252 19.6602 20.0963 20.9983C18.8419 20.0196 17.5819 19.0483 16.3275 18.0696C16.9494 17.6501 17.4802 17.1094 17.8881 16.4798C18.296 15.8503 18.5726 15.1448 18.7013 14.4058H12.2381C12.2363 12.8646 12.2381 11.3214 12.2381 9.77832Z" fill="#587DBD"/>
<path id="Vector_5" d="M1.64062 17.3246C2.93687 16.3246 4.2325 15.3196 5.5275 14.3096C6.02851 15.7799 6.98138 17.0544 8.25 17.9508C9.04116 18.5103 9.9403 18.8985 10.89 19.0908C11.8257 19.2649 12.7855 19.2649 13.7213 19.0908C14.6543 18.9331 15.544 18.5818 16.3331 18.0596C17.5875 19.0383 18.8475 20.0096 20.1019 20.9883C18.7292 22.2366 17.0558 23.1068 15.2456 23.5139C13.2476 23.9836 11.1655 23.9611 9.17813 23.4483C7.60632 23.0286 6.13814 22.2888 4.86563 21.2752C3.51886 20.2057 2.41882 18.8582 1.64062 17.3246Z" fill="#319F43"/>
</g>
<defs>
<clipPath id="clip0_4368_41148">
<rect width="24" height="24" fill="white"/>
</clipPath>
</defs>
</svg>
